Besley-Italic.ufo
<glyph name="exclam" format="2">
  <advance width="638"/>
  <unicode hex="0021"/>
  <outline>
    <contour>
      <point x="20" y="100" type="curve" smooth="yes"/>
      <point x="20" y="166"/>
      <point x="74" y="220"/>
      <point x="140" y="220" type="curve" smooth="yes"/>
      <point x="206" y="220"/>
      <point x="260" y="166"/>
      <point x="260" y="100" type="curve" smooth="yes"/>
      <point x="260" y="34"/>
      <point x="206" y="-20"/>
      <point x="140" y="-20" type="curve" smooth="yes"/>
      <point x="74" y="-20"/>
      <point x="20" y="34"/>
    </contour>
    <contour>
      <point x="550" y="1294" type="curve" smooth="yes"/>
      <point x="447" y="967"/>
      <point x="344" y="716"/>
      <point x="272" y="434" type="curve" smooth="yes"/>
      <point x="267" y="415"/>
      <point x="264" y="410"/>
      <point x="239" y="410" type="curve" smooth="yes"/>
      <point x="206" y="410" type="line" smooth="yes"/>
      <point x="188" y="410"/>
      <point x="184" y="412"/>
      <point x="188" y="428" type="curve" smooth="yes"/>
      <point x="253" y="712"/>
      <point x="249" y="995"/>
      <point x="320" y="1350" type="curve" smooth="yes"/>
      <point x="336" y="1430"/>
      <point x="362" y="1518"/>
      <point x="466" y="1518" type="curve" smooth="yes"/>
      <point x="530" y="1518"/>
      <point x="570" y="1468"/>
      <point x="570" y="1404" type="curve" smooth="yes"/>
      <point x="570" y="1368"/>
      <point x="560" y="1326"/>
    </contour>
  </outline>
</glyph>
<glyph name="numbersign" format="2">
  <advance width="1320"/>
  <unicode hex="0023"/>
  <outline>
    <contour>
      <point x="625" y="1610" type="curve" smooth="yes"/>
      <point x="670" y="1610" type="line" smooth="yes"/>
      <point x="712" y="1610"/>
      <point x="712" y="1603"/>
      <point x="704" y="1573" type="curve" smooth="yes"/>
      <point x="578" y="1121" type="line" smooth="yes"/>
      <point x="569" y="1088"/>
      <point x="568" y="1080"/>
      <point x="614" y="1080" type="curve" smooth="yes"/>
      <point x="876" y="1080" type="line" smooth="yes"/>
      <point x="906" y="1080"/>
      <point x="912" y="1095"/>
      <point x="918" y="1117" type="curve" smooth="yes"/>
      <point x="1046" y="1573" type="line" smooth="yes"/>
      <point x="1055" y="1604"/>
      <point x="1058" y="1610"/>
      <point x="1098" y="1610" type="curve" smooth="yes"/>
      <point x="1136" y="1610" type="line" smooth="yes"/>
      <point x="1170" y="1610"/>
      <point x="1166" y="1596"/>
      <point x="1160" y="1573" type="curve" smooth="yes"/>
      <point x="1031" y="1113" type="line" smooth="yes"/>
      <point x="1023" y="1084"/>
      <point x="1017" y="1080"/>
      <point x="1056" y="1080" type="curve" smooth="yes"/>
      <point x="1348" y="1080" type="line" smooth="yes"/>
      <point x="1372" y="1080"/>
      <point x="1380" y="1075"/>
      <point x="1380" y="1049" type="curve" smooth="yes"/>
      <point x="1380" y="997" type="line" smooth="yes"/>
      <point x="1380" y="976"/>
      <point x="1374" y="970"/>
      <point x="1352" y="970" type="curve" smooth="yes"/>
      <point x="1042" y="970" type="line" smooth="yes"/>
      <point x="997" y="970"/>
      <point x="990" y="963"/>
      <point x="980" y="929" type="curve" smooth="yes"/>
      <point x="888" y="599" type="line" smooth="yes"/>
      <point x="878" y="563"/>
      <point x="882" y="560"/>
      <point x="930" y="560" type="curve" smooth="yes"/>
      <point x="1194" y="560" type="line" smooth="yes"/>
      <point x="1228" y="560"/>
      <point x="1240" y="558"/>
      <point x="1240" y="521" type="curve" smooth="yes"/>
      <point x="1240" y="491" type="line" smooth="yes"/>
      <point x="1240" y="452"/>
      <point x="1232" y="450"/>
      <point x="1192" y="450" type="curve" smooth="yes"/>
      <point x="878" y="450" type="line" smooth="yes"/>
      <point x="847" y="450"/>
      <point x="846" y="449"/>
      <point x="839" y="425" type="curve" smooth="yes"/>
      <point x="696" y="-87" type="line" smooth="yes"/>
      <point x="692" y="-102"/>
      <point x="685" y="-110"/>
      <point x="664" y="-110" type="curve" smooth="yes"/>
      <point x="620" y="-110" type="line" smooth="yes"/>
      <point x="576" y="-110"/>
      <point x="578" y="-100"/>
      <point x="587" y="-69" type="curve" smooth="yes"/>
      <point x="720" y="407" type="line" smooth="yes"/>
      <point x="731" y="447"/>
      <point x="727" y="450"/>
      <point x="674" y="450" type="curve" smooth="yes"/>
      <point x="444" y="450" type="line" smooth="yes"/>
      <point x="394" y="450"/>
      <point x="390" y="450"/>
      <point x="379" y="411" type="curve" smooth="yes"/>
      <point x="244" y="-73" type="line" smooth="yes"/>
      <point x="235" y="-104"/>
      <point x="228" y="-110"/>
      <point x="188" y="-110" type="curve" smooth="yes"/>
      <point x="157" y="-110" type="line" smooth="yes"/>
      <point x="122" y="-110"/>
      <point x="122" y="-104"/>
      <point x="129" y="-79" type="curve" smooth="yes"/>
      <point x="264" y="405" type="line" smooth="yes"/>
      <point x="274" y="441"/>
      <point x="278" y="450"/>
      <point x="220" y="450" type="curve" smooth="yes"/>
      <point x="-26" y="450" type="line" smooth="yes"/>
      <point x="-54" y="450"/>
      <point x="-60" y="455"/>
      <point x="-60" y="485" type="curve" smooth="yes"/>
      <point x="-60" y="527" type="line" smooth="yes"/>
      <point x="-60" y="553"/>
      <point x="-57" y="560"/>
      <point x="-32" y="560" type="curve" smooth="yes"/>
      <point x="250" y="560" type="line" smooth="yes"/>
      <point x="293" y="560"/>
      <point x="307" y="563"/>
      <point x="318" y="601" type="curve" smooth="yes"/>
      <point x="413" y="939" type="line" smooth="yes"/>
      <point x="421" y="968"/>
      <point x="420" y="970"/>
      <point x="381" y="970" type="curve" smooth="yes"/>
      <point x="112" y="970" type="line" smooth="yes"/>
      <point x="85" y="970"/>
      <point x="80" y="976"/>
      <point x="80" y="1005" type="curve" smooth="yes"/>
      <point x="80" y="1047" type="line" smooth="yes"/>
      <point x="80" y="1072"/>
      <point x="82" y="1080"/>
      <point x="106" y="1080" type="curve" smooth="yes"/>
      <point x="414" y="1080" type="line" smooth="yes"/>
      <point x="454" y="1080"/>
      <point x="458" y="1102"/>
      <point x="466" y="1131" type="curve" smooth="yes"/>
      <point x="593" y="1585" type="line" smooth="yes"/>
      <point x="597" y="1601"/>
      <point x="604" y="1610"/>
    </contour>
    <contour>
      <point x="818" y="970" type="curve" smooth="yes"/>
      <point x="568" y="970" type="line" smooth="yes"/>
      <point x="530" y="970"/>
      <point x="533" y="962"/>
      <point x="525" y="933" type="curve" smooth="yes"/>
      <point x="434" y="607" type="line" smooth="yes"/>
      <point x="424" y="572"/>
      <point x="420" y="560"/>
      <point x="470" y="560" type="curve" smooth="yes"/>
      <point x="700" y="560" type="line" smooth="yes"/>
      <point x="751" y="560"/>
      <point x="763" y="561"/>
      <point x="774" y="601" type="curve" smooth="yes"/>
      <point x="870" y="945" type="line" smooth="yes"/>
      <point x="879" y="978"/>
      <point x="855" y="970"/>
    </contour>
  </outline>
</glyph>
<glyph name="dollar" format="2">
  <advance width="1320"/>
  <unicode hex="0024"/>
  <outline>
    <contour>
      <point x="1026" y="1142" type="curve" smooth="yes"/>
      <point x="1026" y="1214"/>
      <point x="1090" y="1224"/>
      <point x="1090" y="1270" type="curve" smooth="yes"/>
      <point x="1090" y="1317"/>
      <point x="1049" y="1385"/>
      <point x="934" y="1409" type="curve" smooth="yes"/>
      <point x="914" y="1413"/>
      <point x="916" y="1407"/>
      <point x="911" y="1390" type="curve" smooth="yes"/>
      <point x="778" y="920" type="line" smooth="yes"/>
      <point x="760" y="857"/>
      <point x="763" y="857"/>
      <point x="818" y="831" type="curve" smooth="yes"/>
      <point x="982" y="752"/>
      <point x="1140" y="651"/>
      <point x="1140" y="410" type="curve" smooth="yes"/>
      <point x="1140" y="131"/>
      <point x="901" y="-11"/>
      <point x="544" y="-19" type="curve" smooth="yes"/>
      <point x="514" y="-20"/>
      <point x="513" y="-20"/>
      <point x="506" y="-44" type="curve" smooth="yes"/>
      <point x="475" y="-152" type="line" smooth="yes"/>
      <point x="470" y="-171"/>
      <point x="466" y="-170"/>
      <point x="442" y="-170" type="curve" smooth="yes"/>
      <point x="377" y="-170" type="line" smooth="yes"/>
      <point x="347" y="-170"/>
      <point x="351" y="-168"/>
      <point x="357" y="-146" type="curve" smooth="yes"/>
      <point x="389" y="-31" type="line" smooth="yes"/>
      <point x="395" y="-10"/>
      <point x="396" y="-10"/>
      <point x="373" y="-6" type="curve" smooth="yes"/>
      <point x="108" y="41"/>
      <point x="12" y="200"/>
      <point x="12" y="352" type="curve" smooth="yes"/>
      <point x="12" y="448"/>
      <point x="82" y="504"/>
      <point x="140" y="504" type="curve" smooth="yes"/>
      <point x="194" y="504"/>
      <point x="254" y="462"/>
      <point x="254" y="388" type="curve" smooth="yes"/>
      <point x="254" y="316"/>
      <point x="190" y="306"/>
      <point x="190" y="260" type="curve" smooth="yes"/>
      <point x="190" y="215"/>
      <point x="227" y="134"/>
      <point x="379" y="100" type="curve" smooth="yes"/>
      <point x="409" y="93"/>
      <point x="422" y="85"/>
      <point x="431" y="116" type="curve" smooth="yes"/>
      <point x="588" y="671" type="line" smooth="yes"/>
      <point x="598" y="708"/>
      <point x="592" y="707"/>
      <point x="561" y="722" type="curve" smooth="yes"/>
      <point x="413" y="795"/>
      <point x="280" y="888"/>
      <point x="280" y="1100" type="curve" smooth="yes"/>
      <point x="280" y="1333"/>
      <point x="522" y="1506"/>
      <point x="796" y="1519" type="curve" smooth="yes"/>
      <point x="826" y="1520"/>
      <point x="827" y="1520"/>
      <point x="834" y="1544" type="curve" smooth="yes"/>
      <point x="865" y="1651" type="line" smooth="yes"/>
      <point x="870" y="1668"/>
      <point x="869" y="1670"/>
      <point x="891" y="1670" type="curve" smooth="yes"/>
      <point x="960" y="1670" type="line" smooth="yes"/>
      <point x="988" y="1670"/>
      <point x="987" y="1660"/>
      <point x="982" y="1641" type="curve" smooth="yes"/>
      <point x="950" y="1530" type="line" smooth="yes"/>
      <point x="943" y="1504"/>
      <point x="953" y="1508"/>
      <point x="978" y="1502" type="curve" smooth="yes"/>
      <point x="1149" y="1460"/>
      <point x="1268" y="1345"/>
      <point x="1268" y="1158" type="curve" smooth="yes"/>
      <point x="1268" y="1062"/>
      <point x="1198" y="1026"/>
      <point x="1140" y="1026" type="curve" smooth="yes"/>
      <point x="1086" y="1026"/>
      <point x="1026" y="1068"/>
    </contour>
    <contour>
      <point x="460" y="1150" type="curve" smooth="yes"/>
      <point x="460" y="1039"/>
      <point x="532" y="975"/>
      <point x="630" y="922" type="curve" smooth="yes"/>
      <point x="658" y="907"/>
      <point x="656" y="912"/>
      <point x="665" y="944" type="curve" smooth="yes"/>
      <point x="791" y="1392" type="line" smooth="yes"/>
      <point x="797" y="1414"/>
      <point x="802" y="1418"/>
      <point x="774" y="1415" type="curve" smooth="yes"/>
      <point x="594" y="1398"/>
      <point x="460" y="1309"/>
    </contour>
    <contour>
      <point x="960" y="340" type="curve" smooth="yes"/>
      <point x="960" y="493"/>
      <point x="866" y="571"/>
      <point x="747" y="633" type="curve" smooth="yes"/>
      <point x="704" y="655"/>
      <point x="703" y="656"/>
      <point x="689" y="606" type="curve" smooth="yes"/>
      <point x="548" y="106" type="line" smooth="yes"/>
      <point x="541" y="81"/>
      <point x="546" y="84"/>
      <point x="576" y="85" type="curve" smooth="yes"/>
      <point x="825" y="95"/>
      <point x="960" y="208"/>
    </contour>
  </outline>
</glyph>
<glyph name="percent" format="2">
  <advance width="2000"/>
  <unicode hex="0025"/>
  <outline>
    <contour>
      <point x="140" y="1080" type="curve" smooth="yes"/>
      <point x="201" y="1366"/>
      <point x="387" y="1520"/>
      <point x="613" y="1520" type="curve" smooth="yes"/>
      <point x="839" y="1520"/>
      <point x="1001" y="1366"/>
      <point x="940" y="1080" type="curve" smooth="yes"/>
      <point x="879" y="794"/>
      <point x="642" y="640"/>
      <point x="456" y="640" type="curve" smooth="yes"/>
      <point x="230" y="640"/>
      <point x="79" y="794"/>
    </contour>
    <contour>
      <point x="360" y="1080" type="curve" smooth="yes"/>
      <point x="317" y="876"/>
      <point x="319" y="740"/>
      <point x="467" y="740" type="curve" smooth="yes"/>
      <point x="615" y="740"/>
      <point x="677" y="876"/>
      <point x="720" y="1080" type="curve" smooth="yes"/>
      <point x="763" y="1284"/>
      <point x="760" y="1420"/>
      <point x="612" y="1420" type="curve" smooth="yes"/>
      <point x="464" y="1420"/>
      <point x="403" y="1284"/>
    </contour>
    <contour>
      <point x="1589" y="1500" type="curve" smooth="yes"/>
      <point x="1646" y="1500" type="line" smooth="yes"/>
      <point x="1681" y="1500"/>
      <point x="1677" y="1490"/>
      <point x="1658" y="1468" type="curve" smooth="yes"/>
      <point x="471" y="28" type="line" smooth="yes"/>
      <point x="454" y="7"/>
      <point x="442" y="0"/>
      <point x="407" y="0" type="curve" smooth="yes"/>
      <point x="354" y="0" type="line" smooth="yes"/>
      <point x="315" y="0"/>
      <point x="329" y="23"/>
      <point x="344" y="41" type="curve" smooth="yes"/>
      <point x="1542" y="1478" type="line" smooth="yes"/>
      <point x="1553" y="1492"/>
      <point x="1566" y="1500"/>
    </contour>
    <contour>
      <point x="1059" y="420" type="curve" smooth="yes"/>
      <point x="1120" y="706"/>
      <point x="1307" y="860"/>
      <point x="1533" y="860" type="curve" smooth="yes"/>
      <point x="1759" y="860"/>
      <point x="1920" y="706"/>
      <point x="1859" y="420" type="curve" smooth="yes"/>
      <point x="1798" y="134"/>
      <point x="1572" y="-20"/>
      <point x="1386" y="-20" type="curve" smooth="yes"/>
      <point x="1160" y="-20"/>
      <point x="998" y="134"/>
    </contour>
    <contour>
      <point x="1279" y="420" type="curve" smooth="yes"/>
      <point x="1236" y="216"/>
      <point x="1239" y="80"/>
      <point x="1387" y="80" type="curve" smooth="yes"/>
      <point x="1535" y="80"/>
      <point x="1596" y="216"/>
      <point x="1639" y="420" type="curve" smooth="yes"/>
      <point x="1682" y="624"/>
      <point x="1680" y="760"/>
      <point x="1532" y="760" type="curve" smooth="yes"/>
      <point x="1384" y="760"/>
      <point x="1322" y="624"/>
    </contour>
  </outline>
</glyph>
<glyph name="ampersand" format="2">
  <advance width="1740"/>
  <unicode hex="0026"/>
  <outline>
    <contour>
      <point x="1356" y="728" type="curve" smooth="yes"/>
      <point x="1286" y="728"/>
      <point x="1248" y="776"/>
      <point x="1248" y="852" type="curve" smooth="yes"/>
      <point x="1248" y="912"/>
      <point x="1300" y="978"/>
      <point x="1398" y="978" type="curve" smooth="yes"/>
      <point x="1534" y="978"/>
      <point x="1580" y="892"/>
      <point x="1580" y="770" type="curve" smooth="yes"/>
      <point x="1580" y="607"/>
      <point x="1379" y="365"/>
      <point x="1103" y="192" type="curve" smooth="yes"/>
      <point x="1079" y="177"/>
      <point x="1078" y="175"/>
      <point x="1090" y="147" type="curve" smooth="yes"/>
      <point x="1113" y="93"/>
      <point x="1141" y="64"/>
      <point x="1206" y="64" type="curve" smooth="yes"/>
      <point x="1264" y="64"/>
      <point x="1301" y="96"/>
      <point x="1339" y="158" type="curve" smooth="yes"/>
      <point x="1345" y="169"/>
      <point x="1345" y="170"/>
      <point x="1358" y="165" type="curve" smooth="yes"/>
      <point x="1402" y="147" type="line" smooth="yes"/>
      <point x="1424" y="138"/>
      <point x="1418" y="132"/>
      <point x="1408" y="111" type="curve" smooth="yes"/>
      <point x="1369" y="29"/>
      <point x="1281" y="-60"/>
      <point x="1122" y="-60" type="curve" smooth="yes"/>
      <point x="1024" y="-60"/>
      <point x="956" y="-12"/>
      <point x="906" y="60" type="curve" smooth="yes"/>
      <point x="893" y="79"/>
      <point x="894" y="82"/>
      <point x="870" y="72" type="curve" smooth="yes"/>
      <point x="732" y="15"/>
      <point x="584" y="-20"/>
      <point x="440" y="-20" type="curve" smooth="yes"/>
      <point x="154" y="-20"/>
      <point x="2" y="114"/>
      <point x="2" y="320" type="curve" smooth="yes"/>
      <point x="2" y="628"/>
      <point x="258" y="760"/>
      <point x="523" y="868" type="curve" smooth="yes"/>
      <point x="573" y="888"/>
      <point x="570" y="890"/>
      <point x="550" y="940" type="curve" smooth="yes"/>
      <point x="516" y="1024"/>
      <point x="498" y="1096"/>
      <point x="498" y="1166" type="curve" smooth="yes"/>
      <point x="498" y="1346"/>
      <point x="688" y="1520"/>
      <point x="980" y="1520" type="curve" smooth="yes"/>
      <point x="1154" y="1520"/>
      <point x="1292" y="1470"/>
      <point x="1292" y="1310" type="curve" smooth="yes"/>
      <point x="1292" y="1101"/>
      <point x="1102" y="999"/>
      <point x="882" y="909" type="curve" smooth="yes"/>
      <point x="810" y="880"/>
      <point x="809" y="880"/>
      <point x="837" y="806" type="curve" smooth="yes"/>
      <point x="1029" y="308" type="line" smooth="yes"/>
      <point x="1042" y="273"/>
      <point x="1042" y="271"/>
      <point x="1072" y="290" type="curve" smooth="yes"/>
      <point x="1302" y="434"/>
      <point x="1462" y="627"/>
      <point x="1462" y="718" type="curve" smooth="yes"/>
      <point x="1462" y="750"/>
      <point x="1458" y="760"/>
      <point x="1442" y="760" type="curve" smooth="yes"/>
      <point x="1418" y="760"/>
      <point x="1424" y="728"/>
    </contour>
    <contour>
      <point x="222" y="360" type="curve" smooth="yes"/>
      <point x="222" y="216"/>
      <point x="302" y="110"/>
      <point x="510" y="110" type="curve" smooth="yes"/>
      <point x="615" y="110"/>
      <point x="718" y="131"/>
      <point x="817" y="166" type="curve" smooth="yes"/>
      <point x="847" y="177"/>
      <point x="845" y="178"/>
      <point x="834" y="207" type="curve" smooth="yes"/>
      <point x="623" y="752" type="line" smooth="yes"/>
      <point x="601" y="808"/>
      <point x="589" y="790"/>
      <point x="540" y="766" type="curve" smooth="yes"/>
      <point x="362" y="678"/>
      <point x="222" y="562"/>
    </contour>
    <contour>
      <point x="1104" y="1320" type="curve" smooth="yes"/>
      <point x="1104" y="1394"/>
      <point x="1064" y="1440"/>
      <point x="978" y="1440" type="curve" smooth="yes"/>
      <point x="804" y="1440"/>
      <point x="708" y="1346"/>
      <point x="708" y="1240" type="curve" smooth="yes"/>
      <point x="708" y="1182"/>
      <point x="725" y="1110"/>
      <point x="761" y="1008" type="curve" smooth="yes"/>
      <point x="777" y="964"/>
      <point x="783" y="972"/>
      <point x="822" y="991" type="curve" smooth="yes"/>
      <point x="983" y="1068"/>
      <point x="1104" y="1161"/>
    </contour>
  </outline>
</glyph>
<glyph name="asterisk" format="2">
  <advance width="1270"/>
  <unicode hex="002A"/>
  <outline>
    <contour>
      <point x="754" y="962" type="curve" smooth="yes"/>
      <point x="814" y="922"/>
      <point x="879" y="883"/>
      <point x="955" y="832" type="curve" smooth="yes"/>
      <point x="1037" y="778"/>
      <point x="1063" y="702"/>
      <point x="1027" y="640" type="curve" smooth="yes"/>
      <point x="987" y="570"/>
      <point x="910" y="598"/>
      <point x="869" y="643" type="curve" smooth="yes"/>
      <point x="789" y="724"/>
      <point x="733" y="827"/>
      <point x="671" y="906" type="curve" smooth="yes"/>
      <point x="644" y="941"/>
      <point x="632" y="971"/>
      <point x="627" y="900" type="curve" smooth="yes"/>
      <point x="622" y="827"/>
      <point x="620" y="750"/>
      <point x="614" y="658" type="curve" smooth="yes"/>
      <point x="608" y="560"/>
      <point x="556" y="500"/>
      <point x="484" y="500" type="curve" smooth="yes"/>
      <point x="413" y="500"/>
      <point x="384" y="567"/>
      <point x="408" y="638" type="curve" smooth="yes"/>
      <point x="438" y="746"/>
      <point x="496" y="844"/>
      <point x="534" y="935" type="curve" smooth="yes"/>
      <point x="560" y="998"/>
      <point x="559" y="1001"/>
      <point x="501" y="972" type="curve" smooth="yes"/>
      <point x="438" y="941"/>
      <point x="373" y="905"/>
      <point x="293" y="866" type="curve" smooth="yes"/>
      <point x="205" y="822"/>
      <point x="127" y="838"/>
      <point x="91" y="900" type="curve" smooth="yes"/>
      <point x="54" y="965"/>
      <point x="106" y="1021"/>
      <point x="173" y="1035" type="curve" smooth="yes"/>
      <point x="282" y="1063"/>
      <point x="397" y="1062"/>
      <point x="495" y="1075" type="curve" smooth="yes"/>
      <point x="570" y="1085"/>
      <point x="555" y="1091"/>
      <point x="508" y="1122" type="curve" smooth="yes"/>
      <point x="450" y="1161"/>
      <point x="387" y="1199"/>
      <point x="313" y="1248" type="curve" smooth="yes"/>
      <point x="231" y="1302"/>
      <point x="205" y="1378"/>
      <point x="241" y="1440" type="curve" smooth="yes"/>
      <point x="281" y="1510"/>
      <point x="358" y="1482"/>
      <point x="399" y="1437" type="curve" smooth="yes"/>
      <point x="482" y="1352"/>
      <point x="541" y="1245"/>
      <point x="605" y="1165" type="curve" smooth="yes"/>
      <point x="625" y="1140"/>
      <point x="636" y="1111"/>
      <point x="640" y="1165" type="curve" smooth="yes"/>
      <point x="646" y="1242"/>
      <point x="648" y="1323"/>
      <point x="654" y="1422" type="curve" smooth="yes"/>
      <point x="660" y="1520"/>
      <point x="712" y="1580"/>
      <point x="784" y="1580" type="curve" smooth="yes"/>
      <point x="855" y="1580"/>
      <point x="884" y="1513"/>
      <point x="860" y="1442" type="curve" smooth="yes"/>
      <point x="828" y="1329"/>
      <point x="766" y="1227"/>
      <point x="729" y="1132" type="curve" smooth="yes"/>
      <point x="711" y="1087"/>
      <point x="705" y="1078"/>
      <point x="750" y="1100" type="curve" smooth="yes"/>
      <point x="818" y="1133"/>
      <point x="888" y="1171"/>
      <point x="975" y="1214" type="curve" smooth="yes"/>
      <point x="1063" y="1258"/>
      <point x="1141" y="1242"/>
      <point x="1177" y="1180" type="curve" smooth="yes"/>
      <point x="1214" y="1115"/>
      <point x="1162" y="1059"/>
      <point x="1095" y="1045" type="curve" smooth="yes"/>
      <point x="984" y="1016"/>
      <point x="867" y="1019"/>
      <point x="768" y="1005" type="curve" smooth="yes"/>
      <point x="702" y="996"/>
      <point x="710" y="991"/>
    </contour>
  </outline>
</glyph>
<glyph name="plus" format="2">
  <advance width="1060"/>
  <unicode hex="002B"/>
  <outline>
    <contour>
      <point x="645" y="836" type="curve" smooth="yes"/>
      <point x="913" y="836" type="line" smooth="yes"/>
      <point x="936" y="836"/>
      <point x="947" y="832"/>
      <point x="947" y="808" type="curve" smooth="yes"/>
      <point x="947" y="751" type="line" smooth="yes"/>
      <point x="947" y="734"/>
      <point x="946" y="726"/>
      <point x="929" y="726" type="curve" smooth="yes"/>
      <point x="626" y="726" type="line" smooth="yes"/>
      <point x="594" y="726"/>
      <point x="582" y="722"/>
      <point x="576" y="692" type="curve" smooth="yes"/>
      <point x="512" y="389" type="line" smooth="yes"/>
      <point x="508" y="373"/>
      <point x="505" y="370"/>
      <point x="487" y="370" type="curve" smooth="yes"/>
      <point x="419" y="370" type="line" smooth="yes"/>
      <point x="399" y="370"/>
      <point x="390" y="371"/>
      <point x="394" y="390" type="curve" smooth="yes"/>
      <point x="458" y="685" type="line" smooth="yes"/>
      <point x="465" y="718"/>
      <point x="457" y="726"/>
      <point x="422" y="726" type="curve" smooth="yes"/>
      <point x="156" y="726" type="line" smooth="yes"/>
      <point x="131" y="726"/>
      <point x="127" y="731"/>
      <point x="127" y="755" type="curve" smooth="yes"/>
      <point x="127" y="809" type="line" smooth="yes"/>
      <point x="127" y="831"/>
      <point x="136" y="836"/>
      <point x="157" y="836" type="curve" smooth="yes"/>
      <point x="451" y="836" type="line" smooth="yes"/>
      <point x="478" y="836"/>
      <point x="491" y="842"/>
      <point x="497" y="870" type="curve" smooth="yes"/>
      <point x="558" y="1160" type="line" smooth="yes"/>
      <point x="563" y="1182"/>
      <point x="571" y="1190"/>
      <point x="596" y="1190" type="curve" smooth="yes"/>
      <point x="654" y="1190" type="line" smooth="yes"/>
      <point x="674" y="1190"/>
      <point x="681" y="1183"/>
      <point x="676" y="1161" type="curve" smooth="yes"/>
      <point x="615" y="874" type="line" smooth="yes"/>
      <point x="608" y="843"/>
      <point x="614" y="836"/>
    </contour>
  </outline>
</glyph>
<glyph name="comma" format="2">
  <advance width="508"/>
  <unicode hex="002C"/>
  <outline>
    <contour>
      <point x="-21" y="98" type="curve" smooth="yes"/>
      <point x="-21" y="164"/>
      <point x="37" y="216"/>
      <point x="113" y="216" type="curve" smooth="yes"/>
      <point x="191" y="216"/>
      <point x="253" y="154"/>
      <point x="253" y="28" type="curve" smooth="yes"/>
      <point x="253" y="-146"/>
      <point x="83" y="-296"/>
      <point x="-82" y="-311" type="curve" smooth="yes"/>
      <point x="-97" y="-312"/>
      <point x="-105" y="-313"/>
      <point x="-105" y="-296" type="curve" smooth="yes"/>
      <point x="-105" y="-253" type="line" smooth="yes"/>
      <point x="-105" y="-235"/>
      <point x="-95" y="-232"/>
      <point x="-80" y="-230" type="curve" smooth="yes"/>
      <point x="11" y="-216"/>
      <point x="159" y="-124"/>
      <point x="148" y="-9" type="curve" smooth="yes"/>
      <point x="146" y="7"/>
      <point x="137" y="-1"/>
      <point x="126" y="-8" type="curve" smooth="yes"/>
      <point x="113" y="-16"/>
      <point x="96" y="-20"/>
      <point x="75" y="-20" type="curve" smooth="yes"/>
      <point x="9" y="-20"/>
      <point x="-21" y="32"/>
    </contour>
  </outline>
</glyph>
<glyph name="period" format="2">
  <advance width="400"/>
  <unicode hex="002E"/>
  <outline>
    <contour>
      <point x="-60" y="100" type="curve" smooth="yes"/>
      <point x="-60" y="166"/>
      <point x="-6" y="220"/>
      <point x="60" y="220" type="curve" smooth="yes"/>
      <point x="126" y="220"/>
      <point x="180" y="166"/>
      <point x="180" y="100" type="curve" smooth="yes"/>
      <point x="180" y="34"/>
      <point x="126" y="-20"/>
      <point x="60" y="-20" type="curve" smooth="yes"/>
      <point x="-6" y="-20"/>
      <point x="-60" y="34"/>
    </contour>
  </outline>
</glyph>
<glyph name="three" format="2">
  <advance width="1060"/>
  <unicode hex="0033"/>
  <outline>
    <contour>
      <point x="-70" y="298" type="curve" smooth="yes"/>
      <point x="-70" y="394"/>
      <point x="0" y="430"/>
      <point x="58" y="430" type="curve" smooth="yes"/>
      <point x="112" y="430"/>
      <point x="172" y="388"/>
      <point x="172" y="314" type="curve" smooth="yes"/>
      <point x="172" y="242"/>
      <point x="108" y="232"/>
      <point x="108" y="186" type="curve" smooth="yes"/>
      <point x="108" y="132"/>
      <point x="194" y="64"/>
      <point x="362" y="64" type="curve" smooth="yes"/>
      <point x="580" y="64"/>
      <point x="718" y="272"/>
      <point x="718" y="450" type="curve" smooth="yes"/>
      <point x="718" y="584"/>
      <point x="672" y="685"/>
      <point x="474" y="717" type="curve" smooth="yes"/>
      <point x="428" y="724"/>
      <point x="384" y="703"/>
      <point x="384" y="762" type="curve" smooth="yes"/>
      <point x="384" y="780" type="line" smooth="yes"/>
      <point x="384" y="839"/>
      <point x="429" y="819"/>
      <point x="474" y="826" type="curve" smooth="yes"/>
      <point x="725" y="864"/>
      <point x="838" y="1056"/>
      <point x="838" y="1242" type="curve" smooth="yes"/>
      <point x="838" y="1360"/>
      <point x="730" y="1436"/>
      <point x="582" y="1436" type="curve" smooth="yes"/>
      <point x="454" y="1436"/>
      <point x="388" y="1370"/>
      <point x="388" y="1316" type="curve" smooth="yes"/>
      <point x="388" y="1270"/>
      <point x="452" y="1260"/>
      <point x="452" y="1188" type="curve" smooth="yes"/>
      <point x="452" y="1114"/>
      <point x="392" y="1072"/>
      <point x="338" y="1072" type="curve" smooth="yes"/>
      <point x="280" y="1072"/>
      <point x="210" y="1108"/>
      <point x="210" y="1204" type="curve" smooth="yes"/>
      <point x="210" y="1368"/>
      <point x="338" y="1520"/>
      <point x="622" y="1520" type="curve" smooth="yes"/>
      <point x="854" y="1520"/>
      <point x="1040" y="1422"/>
      <point x="1040" y="1212" type="curve" smooth="yes"/>
      <point x="1040" y="986"/>
      <point x="906" y="896"/>
      <point x="732" y="814" type="curve" smooth="yes"/>
      <point x="657" y="779"/>
      <point x="646" y="792"/>
      <point x="646" y="770" type="curve" smooth="yes"/>
      <point x="646" y="754"/>
      <point x="684" y="759"/>
      <point x="726" y="743" type="curve" smooth="yes"/>
      <point x="854" y="693"/>
      <point x="920" y="604"/>
      <point x="920" y="450" type="curve" smooth="yes"/>
      <point x="920" y="180"/>
      <point x="704" y="-20"/>
      <point x="382" y="-20" type="curve" smooth="yes"/>
      <point x="78" y="-20"/>
      <point x="-70" y="134"/>
    </contour>
  </outline>
</glyph>
<glyph name="five" format="2">
  <advance width="1030"/>
  <unicode hex="0035"/>
  <outline>
    <contour>
      <point x="-50" y="278" type="curve" smooth="yes"/>
      <point x="-50" y="374"/>
      <point x="20" y="410"/>
      <point x="78" y="410" type="curve" smooth="yes"/>
      <point x="132" y="410"/>
      <point x="192" y="368"/>
      <point x="192" y="294" type="curve" smooth="yes"/>
      <point x="192" y="222"/>
      <point x="128" y="212"/>
      <point x="128" y="166" type="curve" smooth="yes"/>
      <point x="128" y="112"/>
      <point x="214" y="64"/>
      <point x="322" y="64" type="curve" smooth="yes"/>
      <point x="520" y="64"/>
      <point x="728" y="322"/>
      <point x="728" y="630" type="curve" smooth="yes"/>
      <point x="728" y="838"/>
      <point x="620" y="902"/>
      <point x="472" y="902" type="curve" smooth="yes"/>
      <point x="379" y="902"/>
      <point x="306" y="869"/>
      <point x="244" y="803" type="curve" smooth="yes"/>
      <point x="227" y="785"/>
      <point x="221" y="774"/>
      <point x="183" y="774" type="curve" smooth="yes"/>
      <point x="141" y="774" type="line" smooth="yes"/>
      <point x="103" y="774"/>
      <point x="100" y="790"/>
      <point x="110" y="818" type="curve" smooth="yes"/>
      <point x="333" y="1462" type="line" smooth="yes"/>
      <point x="343" y="1491"/>
      <point x="354" y="1500"/>
      <point x="388" y="1500" type="curve" smooth="yes"/>
      <point x="624" y="1500" type="line" smooth="yes"/>
      <point x="846" y="1500"/>
      <point x="888" y="1469"/>
      <point x="948" y="1536" type="curve" smooth="yes"/>
      <point x="958" y="1547"/>
      <point x="962" y="1564"/>
      <point x="987" y="1564" type="curve" smooth="yes"/>
      <point x="1044" y="1564" type="line" smooth="yes"/>
      <point x="1058" y="1564"/>
      <point x="1061" y="1562"/>
      <point x="1058" y="1550" type="curve" smooth="yes"/>
      <point x="1046" y="1500" type="line" smooth="yes"/>
      <point x="1010" y="1336"/>
      <point x="943" y="1320"/>
      <point x="469" y="1320" type="curve" smooth="yes"/>
      <point x="425" y="1320" type="line" smooth="yes"/>
      <point x="395" y="1320"/>
      <point x="390" y="1314"/>
      <point x="380" y="1288" type="curve" smooth="yes"/>
      <point x="262" y="966" type="line" smooth="yes"/>
      <point x="246" y="922"/>
      <point x="233" y="894"/>
      <point x="241" y="890" type="curve" smooth="yes"/>
      <point x="254" y="884"/>
      <point x="275" y="907"/>
      <point x="312" y="934" type="curve" smooth="yes"/>
      <point x="368" y="974"/>
      <point x="458" y="1000"/>
      <point x="566" y="1000" type="curve" smooth="yes"/>
      <point x="768" y="1000"/>
      <point x="935" y="880"/>
      <point x="935" y="640" type="curve" smooth="yes"/>
      <point x="935" y="240"/>
      <point x="624" y="-20"/>
      <point x="342" y="-20" type="curve" smooth="yes"/>
      <point x="98" y="-20"/>
      <point x="-50" y="114"/>
    </contour>
  </outline>
</glyph>
<glyph name="six" format="2">
  <advance width="1100"/>
  <unicode hex="0036"/>
  <outline>
    <contour>
      <point x="880" y="1382" type="curve" smooth="yes"/>
      <point x="880" y="1408"/>
      <point x="861" y="1436"/>
      <point x="783" y="1436" type="curve" smooth="yes"/>
      <point x="551" y="1436"/>
      <point x="415" y="1203"/>
      <point x="326" y="860" type="curve" smooth="yes"/>
      <point x="317" y="827"/>
      <point x="310" y="814"/>
      <point x="316" y="810" type="curve" smooth="yes"/>
      <point x="323" y="806"/>
      <point x="330" y="820"/>
      <point x="351" y="839" type="curve" smooth="yes"/>
      <point x="434" y="913"/>
      <point x="544" y="960"/>
      <point x="676" y="960" type="curve" smooth="yes"/>
      <point x="898" y="960"/>
      <point x="1050" y="800"/>
      <point x="980" y="470" type="curve" smooth="yes"/>
      <point x="912" y="150"/>
      <point x="696" y="-20"/>
      <point x="454" y="-20" type="curve" smooth="yes"/>
      <point x="132" y="-20"/>
      <point x="-24" y="170"/>
      <point x="97" y="740" type="curve" smooth="yes"/>
      <point x="199" y="1220"/>
      <point x="469" y="1520"/>
      <point x="791" y="1520" type="curve" smooth="yes"/>
      <point x="955" y="1520"/>
      <point x="1052" y="1416"/>
      <point x="1052" y="1302" type="curve" smooth="yes"/>
      <point x="1052" y="1194"/>
      <point x="984" y="1150"/>
      <point x="926" y="1150" type="curve" smooth="yes"/>
      <point x="862" y="1150"/>
      <point x="807" y="1190"/>
      <point x="807" y="1266" type="curve" smooth="yes"/>
      <point x="807" y="1338"/>
      <point x="880" y="1355"/>
    </contour>
    <contour>
      <point x="780" y="470" type="curve" smooth="yes"/>
      <point x="828" y="698"/>
      <point x="769" y="862"/>
      <point x="611" y="862" type="curve" smooth="yes"/>
      <point x="445" y="862"/>
      <point x="293" y="720"/>
      <point x="259" y="560" type="curve" smooth="yes"/>
      <point x="196" y="262"/>
      <point x="245" y="70"/>
      <point x="443" y="70" type="curve" smooth="yes"/>
      <point x="621" y="70"/>
      <point x="734" y="252"/>
    </contour>
  </outline>
</glyph>
<glyph name="less" format="2">
  <advance width="1120"/>
  <unicode hex="003C"/>
  <outline>
    <contour>
      <point x="296" y="752" type="curve" smooth="yes"/>
      <point x="892" y="505" type="line" smooth="yes"/>
      <point x="919" y="494"/>
      <point x="930" y="487"/>
      <point x="930" y="447" type="curve" smooth="yes"/>
      <point x="930" y="405" type="line" smooth="yes"/>
      <point x="930" y="360"/>
      <point x="912" y="366"/>
      <point x="886" y="377" type="curve" smooth="yes"/>
      <point x="152" y="678" type="line" smooth="yes"/>
      <point x="123" y="690"/>
      <point x="120" y="699"/>
      <point x="120" y="740" type="curve" smooth="yes"/>
      <point x="120" y="820" type="line" smooth="yes"/>
      <point x="120" y="862"/>
      <point x="125" y="863"/>
      <point x="154" y="873" type="curve" smooth="yes"/>
      <point x="1046" y="1187" type="line" smooth="yes"/>
      <point x="1072" y="1196"/>
      <point x="1080" y="1193"/>
      <point x="1080" y="1159" type="curve" smooth="yes"/>
      <point x="1080" y="1113" type="line" smooth="yes"/>
      <point x="1080" y="1076"/>
      <point x="1070" y="1065"/>
      <point x="1044" y="1056" type="curve" smooth="yes"/>
      <point x="298" y="799" type="line" smooth="yes"/>
      <point x="267" y="788"/>
      <point x="250" y="787"/>
      <point x="250" y="776" type="curve" smooth="yes"/>
      <point x="250" y="765"/>
      <point x="263" y="766"/>
    </contour>
  </outline>
</glyph>
<glyph name="B" format="2">
  <advance width="1484"/>
  <unicode hex="0042"/>
  <anchor x="546" y="0" name="Anchor-2"/>
  <anchor x="833" y="1500" name="Anchor-0"/>
  <outline>
    <contour>
      <point x="744" y="0" type="curve" smooth="yes"/>
      <point x="-40" y="0" type="line" smooth="yes"/>
      <point x="-74" y="0"/>
      <point x="-80" y="5"/>
      <point x="-80" y="41" type="curve" smooth="yes"/>
      <point x="-80" y="85" type="line" smooth="yes"/>
      <point x="-80" y="104"/>
      <point x="-74" y="110"/>
      <point x="-56" y="110" type="curve" smooth="yes"/>
      <point x="116" y="110" type="line" smooth="yes"/>
      <point x="156" y="110"/>
      <point x="169" y="115"/>
      <point x="176" y="149" type="curve" smooth="yes"/>
      <point x="433" y="1353" type="line" smooth="yes"/>
      <point x="440" y="1386"/>
      <point x="436" y="1390"/>
      <point x="394" y="1390" type="curve" smooth="yes"/>
      <point x="236" y="1390" type="line" smooth="yes"/>
      <point x="207" y="1390"/>
      <point x="196" y="1393"/>
      <point x="196" y="1425" type="curve" smooth="yes"/>
      <point x="196" y="1479" type="line" smooth="yes"/>
      <point x="196" y="1498"/>
      <point x="204" y="1500"/>
      <point x="224" y="1500" type="curve" smooth="yes"/>
      <point x="1024" y="1500" type="line" smooth="yes"/>
      <point x="1326" y="1500"/>
      <point x="1444" y="1310"/>
      <point x="1444" y="1150" type="curve" smooth="yes"/>
      <point x="1444" y="946"/>
      <point x="1328" y="832"/>
      <point x="1124" y="785" type="curve" smooth="yes"/>
      <point x="1099" y="779"/>
      <point x="1089" y="785"/>
      <point x="1089" y="776" type="curve" smooth="yes"/>
      <point x="1089" y="767"/>
      <point x="1101" y="773"/>
      <point x="1123" y="767" type="curve" smooth="yes"/>
      <point x="1290" y="724"/>
      <point x="1364" y="621"/>
      <point x="1364" y="460" type="curve" smooth="yes"/>
      <point x="1364" y="220"/>
      <point x="1226" y="0"/>
    </contour>
    <contour>
      <point x="724" y="110" type="line" smooth="yes"/>
      <point x="1056" y="110"/>
      <point x="1144" y="322"/>
      <point x="1144" y="460" type="curve" smooth="yes"/>
      <point x="1144" y="618"/>
      <point x="1056" y="720"/>
      <point x="884" y="720" type="curve" smooth="yes"/>
      <point x="534" y="720" type="line" smooth="yes"/>
      <point x="501" y="720"/>
      <point x="496" y="711"/>
      <point x="490" y="683" type="curve" smooth="yes"/>
      <point x="376" y="151" type="line" smooth="yes"/>
      <point x="370" y="124"/>
      <point x="367" y="110"/>
      <point x="404" y="110" type="curve" smooth="yes"/>
    </contour>
    <contour>
      <point x="564" y="830" type="curve" smooth="yes"/>
      <point x="864" y="830" type="line" smooth="yes"/>
      <point x="1016" y="830"/>
      <point x="1244" y="932"/>
      <point x="1244" y="1150" type="curve" smooth="yes"/>
      <point x="1244" y="1288"/>
      <point x="1176" y="1390"/>
      <point x="1024" y="1390" type="curve" smooth="yes"/>
      <point x="674" y="1390" type="line" smooth="yes"/>
      <point x="639" y="1390"/>
      <point x="640" y="1387"/>
      <point x="634" y="1359" type="curve" smooth="yes"/>
      <point x="530" y="871" type="line" smooth="yes"/>
      <point x="523" y="840"/>
      <point x="522" y="830"/>
    </contour>
  </outline>
</glyph>
<glyph name="C" format="2">
  <advance width="1594"/>
  <unicode hex="0043"/>
  <anchor x="707" y="0" name="Anchor-2"/>
  <anchor x="1025" y="1500" name="Anchor-0"/>
  <outline>
    <contour>
      <point x="1432" y="513" type="curve" smooth="yes"/>
      <point x="1311" y="273"/>
      <point x="1085" y="-20"/>
      <point x="690" y="-20" type="curve" smooth="yes"/>
      <point x="344" y="-20"/>
      <point x="90" y="190"/>
      <point x="90" y="610" type="curve" smooth="yes"/>
      <point x="90" y="1032"/>
      <point x="454" y="1520"/>
      <point x="970" y="1520" type="curve" smooth="yes"/>
      <point x="1195" y="1520"/>
      <point x="1336" y="1448"/>
      <point x="1422" y="1346" type="curve" smooth="yes"/>
      <point x="1443" y="1322"/>
      <point x="1440" y="1321"/>
      <point x="1457" y="1350" type="curve" smooth="yes"/>
      <point x="1535" y="1484" type="line" smooth="yes"/>
      <point x="1542" y="1496"/>
      <point x="1552" y="1500"/>
      <point x="1572" y="1500" type="curve" smooth="yes"/>
      <point x="1632" y="1500" type="line" smooth="yes"/>
      <point x="1652" y="1500"/>
      <point x="1655" y="1497"/>
      <point x="1651" y="1479" type="curve" smooth="yes"/>
      <point x="1552" y="1023" type="line" smooth="yes"/>
      <point x="1546" y="995"/>
      <point x="1544" y="990"/>
      <point x="1510" y="990" type="curve" smooth="yes"/>
      <point x="1470" y="990" type="line" smooth="yes"/>
      <point x="1439" y="990"/>
      <point x="1438" y="997"/>
      <point x="1440" y="1022" type="curve" smooth="yes"/>
      <point x="1457" y="1241"/>
      <point x="1259" y="1398"/>
      <point x="986" y="1398" type="curve" smooth="yes"/>
      <point x="564" y="1398"/>
      <point x="320" y="960"/>
      <point x="320" y="610" type="curve" smooth="yes"/>
      <point x="320" y="286"/>
      <point x="448" y="106"/>
      <point x="716" y="106" type="curve" smooth="yes"/>
      <point x="984" y="106"/>
      <point x="1196" y="341"/>
      <point x="1299" y="522" type="curve" smooth="yes"/>
      <point x="1308" y="538"/>
      <point x="1317" y="550"/>
      <point x="1342" y="550" type="curve" smooth="yes"/>
      <point x="1394" y="550" type="line" smooth="yes"/>
      <point x="1440" y="550"/>
      <point x="1446" y="541"/>
    </contour>
  </outline>
</glyph>
<glyph name="F" format="2">
  <advance width="1438"/>
  <unicode hex="0046"/>
  <anchor x="236" y="0" name="Anchor-2"/>
  <anchor x="923" y="1500" name="Anchor-0"/>
  <outline>
    <contour>
      <point x="-80" y="42" type="curve" smooth="yes"/>
      <point x="-80" y="78" type="line" smooth="yes"/>
      <point x="-80" y="107"/>
      <point x="-67" y="110"/>
      <point x="-40" y="110" type="curve" smooth="yes"/>
      <point x="126" y="110" type="line" smooth="yes"/>
      <point x="165" y="110"/>
      <point x="162" y="115"/>
      <point x="169" y="146" type="curve" smooth="yes"/>
      <point x="442" y="1350" type="line" smooth="yes"/>
      <point x="450" y="1385"/>
      <point x="447" y="1390"/>
      <point x="402" y="1390" type="curve" smooth="yes"/>
      <point x="258" y="1390" type="line" smooth="yes"/>
      <point x="217" y="1390"/>
      <point x="208" y="1391"/>
      <point x="208" y="1432" type="curve" smooth="yes"/>
      <point x="208" y="1466" type="line" smooth="yes"/>
      <point x="208" y="1497"/>
      <point x="219" y="1500"/>
      <point x="248" y="1500" type="curve" smooth="yes"/>
      <point x="1482" y="1500" type="line" smooth="yes"/>
      <point x="1539" y="1500"/>
      <point x="1538" y="1496"/>
      <point x="1527" y="1449" type="curve" smooth="yes"/>
      <point x="1440" y="1072" type="line" smooth="yes"/>
      <point x="1432" y="1038"/>
      <point x="1436" y="1030"/>
      <point x="1392" y="1030" type="curve" smooth="yes"/>
      <point x="1364" y="1030" type="line" smooth="yes"/>
      <point x="1330" y="1030"/>
      <point x="1333" y="1044"/>
      <point x="1338" y="1068" type="curve" smooth="yes"/>
      <point x="1385" y="1312"/>
      <point x="1333" y="1390"/>
      <point x="1110" y="1390" type="curve" smooth="yes"/>
      <point x="710" y="1390" type="line" smooth="yes"/>
      <point x="655" y="1390"/>
      <point x="650" y="1386"/>
      <point x="640" y="1341" type="curve" smooth="yes"/>
      <point x="522" y="820" type="line" smooth="yes"/>
      <point x="517" y="799"/>
      <point x="523" y="796"/>
      <point x="550" y="796" type="curve" smooth="yes"/>
      <point x="666" y="796" type="line" smooth="yes"/>
      <point x="822" y="796"/>
      <point x="916" y="873"/>
      <point x="962" y="986" type="curve" smooth="yes"/>
      <point x="970" y="1006"/>
      <point x="967" y="1026"/>
      <point x="996" y="1026" type="curve" smooth="yes"/>
      <point x="1036" y="1026" type="line" smooth="yes"/>
      <point x="1061" y="1026"/>
      <point x="1065" y="1021"/>
      <point x="1061" y="1002" type="curve" smooth="yes"/>
      <point x="941" y="478" type="line" smooth="yes"/>
      <point x="937" y="459"/>
      <point x="931" y="456"/>
      <point x="907" y="456" type="curve" smooth="yes"/>
      <point x="884" y="456" type="line" smooth="yes"/>
      <point x="845" y="456"/>
      <point x="851" y="471"/>
      <point x="854" y="500" type="curve" smooth="yes"/>
      <point x="867" y="612"/>
      <point x="820" y="696"/>
      <point x="666" y="696" type="curve" smooth="yes"/>
      <point x="524" y="696" type="line" smooth="yes"/>
      <point x="505" y="696"/>
      <point x="494" y="696"/>
      <point x="490" y="680" type="curve" smooth="yes"/>
      <point x="369" y="146" type="line" smooth="yes"/>
      <point x="363" y="117"/>
      <point x="364" y="110"/>
      <point x="402" y="110" type="curve" smooth="yes"/>
      <point x="568" y="110" type="line" smooth="yes"/>
      <point x="593" y="110"/>
      <point x="594" y="101"/>
      <point x="594" y="76" type="curve" smooth="yes"/>
      <point x="594" y="34" type="line" smooth="yes"/>
      <point x="594" y="3"/>
      <point x="583" y="0"/>
      <point x="554" y="0" type="curve" smooth="yes"/>
      <point x="-46" y="0" type="line" smooth="yes"/>
      <point x="-79" y="0"/>
      <point x="-80" y="9"/>
    </contour>
  </outline>
</glyph>
<glyph name="I" format="2">
  <advance width="796"/>
  <unicode hex="0049"/>
  <anchor x="242" y="0" name="Anchor-3"/>
  <anchor x="242" y="0" name="Anchor-2"/>
  <anchor x="565" y="1500" name="Anchor-0"/>
  <outline>
    <contour>
      <point x="-80" y="34" type="curve" smooth="yes"/>
      <point x="-80" y="82" type="line" smooth="yes"/>
      <point x="-80" y="105"/>
      <point x="-72" y="110"/>
      <point x="-50" y="110" type="curve" smooth="yes"/>
      <point x="114" y="110" type="line" smooth="yes"/>
      <point x="160" y="110"/>
      <point x="166" y="112"/>
      <point x="175" y="151" type="curve" smooth="yes"/>
      <point x="440" y="1348" type="line" smooth="yes"/>
      <point x="449" y="1387"/>
      <point x="444" y="1390"/>
      <point x="394" y="1390" type="curve" smooth="yes"/>
      <point x="242" y="1390" type="line" smooth="yes"/>
      <point x="216" y="1390"/>
      <point x="216" y="1395"/>
      <point x="216" y="1421" type="curve" smooth="yes"/>
      <point x="216" y="1464" type="line" smooth="yes"/>
      <point x="216" y="1494"/>
      <point x="221" y="1500"/>
      <point x="250" y="1500" type="curve" smooth="yes"/>
      <point x="840" y="1500" type="line" smooth="yes"/>
      <point x="868" y="1500"/>
      <point x="876" y="1496"/>
      <point x="876" y="1466" type="curve" smooth="yes"/>
      <point x="876" y="1422" type="line" smooth="yes"/>
      <point x="876" y="1393"/>
      <point x="868" y="1390"/>
      <point x="838" y="1390" type="curve" smooth="yes"/>
      <point x="684" y="1390" type="line" smooth="yes"/>
      <point x="642" y="1390"/>
      <point x="647" y="1379"/>
      <point x="640" y="1346" type="curve" smooth="yes"/>
      <point x="377" y="150" type="line" smooth="yes"/>
      <point x="368" y="111"/>
      <point x="376" y="110"/>
      <point x="424" y="110" type="curve" smooth="yes"/>
      <point x="556" y="110" type="line" smooth="yes"/>
      <point x="598" y="110"/>
      <point x="600" y="102"/>
      <point x="600" y="60" type="curve" smooth="yes"/>
      <point x="600" y="38" type="line" smooth="yes"/>
      <point x="600" y="8"/>
      <point x="597" y="0"/>
      <point x="568" y="0" type="curve" smooth="yes"/>
      <point x="-42" y="0" type="line" smooth="yes"/>
      <point x="-73" y="0"/>
      <point x="-80" y="4"/>
    </contour>
  </outline>
</glyph>
<glyph name="J" format="2">
  <advance width="1192"/>
  <unicode hex="004A"/>
  <anchor x="288" y="0" name="Anchor-2"/>
  <anchor x="895" y="1500" name="Anchor-0"/>
  <outline>
    <contour>
      <point x="-60" y="290" type="curve" smooth="yes"/>
      <point x="-60" y="414"/>
      <point x="18" y="480"/>
      <point x="98" y="480" type="curve" smooth="yes"/>
      <point x="168" y="480"/>
      <point x="226" y="434"/>
      <point x="226" y="362" type="curve" smooth="yes"/>
      <point x="226" y="244"/>
      <point x="138" y="276"/>
      <point x="138" y="192" type="curve" smooth="yes"/>
      <point x="138" y="158"/>
      <point x="168" y="90"/>
      <point x="292" y="90" type="curve" smooth="yes"/>
      <point x="434" y="90"/>
      <point x="589" y="214"/>
      <point x="652" y="480" type="curve" smooth="yes"/>
      <point x="851" y="1362" type="line" smooth="yes"/>
      <point x="857" y="1389"/>
      <point x="849" y="1390"/>
      <point x="816" y="1390" type="curve" smooth="yes"/>
      <point x="644" y="1390" type="line" smooth="yes"/>
      <point x="611" y="1390"/>
      <point x="602" y="1391"/>
      <point x="602" y="1424" type="curve" smooth="yes"/>
      <point x="602" y="1460" type="line" smooth="yes"/>
      <point x="602" y="1496"/>
      <point x="610" y="1500"/>
      <point x="644" y="1500" type="curve" smooth="yes"/>
      <point x="1276" y="1500" type="line" smooth="yes"/>
      <point x="1295" y="1500"/>
      <point x="1312" y="1497"/>
      <point x="1312" y="1476" type="curve" smooth="yes"/>
      <point x="1312" y="1428" type="line" smooth="yes"/>
      <point x="1312" y="1395"/>
      <point x="1306" y="1390"/>
      <point x="1272" y="1390" type="curve" smooth="yes"/>
      <point x="1088" y="1390" type="line" smooth="yes"/>
      <point x="1050" y="1390"/>
      <point x="1054" y="1381"/>
      <point x="1047" y="1352" type="curve" smooth="yes"/>
      <point x="852" y="540" type="line" smooth="yes"/>
      <point x="772" y="220"/>
      <point x="574" y="-20"/>
      <point x="292" y="-20" type="curve" smooth="yes"/>
      <point x="18" y="-20"/>
      <point x="-60" y="150"/>
    </contour>
  </outline>
</glyph>
<glyph name="M" format="2">
  <advance width="2046"/>
  <unicode hex="004D"/>
  <anchor x="816" y="0" name="Anchor-2"/>
  <anchor x="1155" y="1500" name="Anchor-0"/>
  <outline>
    <contour>
      <point x="1573" y="1220" type="curve" smooth="yes"/>
      <point x="910" y="6" type="line" smooth="yes"/>
      <point x="898" y="-16"/>
      <point x="887" y="-20"/>
      <point x="852" y="-20" type="curve" smooth="yes"/>
      <point x="788" y="-20" type="line" smooth="yes"/>
      <point x="760" y="-20"/>
      <point x="756" y="-5"/>
      <point x="753" y="18" type="curve" smooth="yes"/>
      <point x="590" y="1298" type="line" smooth="yes"/>
      <point x="586" y="1329"/>
      <point x="592" y="1354"/>
      <point x="581" y="1354" type="curve" smooth="yes"/>
      <point x="573" y="1354"/>
      <point x="571" y="1336"/>
      <point x="564" y="1306" type="curve" smooth="yes"/>
      <point x="278" y="146" type="line" smooth="yes"/>
      <point x="269" y="111"/>
      <point x="276" y="110"/>
      <point x="320" y="110" type="curve" smooth="yes"/>
      <point x="470" y="110" type="line" smooth="yes"/>
      <point x="491" y="110"/>
      <point x="500" y="105"/>
      <point x="500" y="82" type="curve" smooth="yes"/>
      <point x="500" y="28" type="line" smooth="yes"/>
      <point x="500" y="1"/>
      <point x="491" y="0"/>
      <point x="464" y="0" type="curve" smooth="yes"/>
      <point x="-62" y="0" type="line" smooth="yes"/>
      <point x="-91" y="0"/>
      <point x="-100" y="1"/>
      <point x="-100" y="30" type="curve" smooth="yes"/>
      <point x="-100" y="74" type="line" smooth="yes"/>
      <point x="-100" y="103"/>
      <point x="-96" y="110"/>
      <point x="-68" y="110" type="curve" smooth="yes"/>
      <point x="74" y="110" type="line" smooth="yes"/>
      <point x="131" y="110"/>
      <point x="134" y="111"/>
      <point x="146" y="156" type="curve" smooth="yes"/>
      <point x="447" y="1346" type="line" smooth="yes"/>
      <point x="457" y="1387"/>
      <point x="453" y="1390"/>
      <point x="400" y="1390" type="curve" smooth="yes"/>
      <point x="272" y="1390" type="line" smooth="yes"/>
      <point x="242" y="1390"/>
      <point x="234" y="1393"/>
      <point x="234" y="1422" type="curve" smooth="yes"/>
      <point x="234" y="1462" type="line" smooth="yes"/>
      <point x="234" y="1499"/>
      <point x="249" y="1500"/>
      <point x="282" y="1500" type="curve" smooth="yes"/>
      <point x="668" y="1500" type="line" smooth="yes"/>
      <point x="735" y="1500"/>
      <point x="745" y="1496"/>
      <point x="752" y="1434" type="curve" smooth="yes"/>
      <point x="877" y="360" type="line" smooth="yes"/>
      <point x="886" y="285"/>
      <point x="877" y="255"/>
      <point x="897" y="255" type="curve" smooth="yes"/>
      <point x="915" y="255"/>
      <point x="932" y="302"/>
      <point x="963" y="360" type="curve" smooth="yes"/>
      <point x="1561" y="1468" type="line" smooth="yes"/>
      <point x="1575" y="1494"/>
      <point x="1585" y="1500"/>
      <point x="1626" y="1500" type="curve" smooth="yes"/>
      <point x="2032" y="1500" type="line" smooth="yes"/>
      <point x="2056" y="1500"/>
      <point x="2066" y="1496"/>
      <point x="2066" y="1470" type="curve" smooth="yes"/>
      <point x="2066" y="1428" type="line" smooth="yes"/>
      <point x="2066" y="1393"/>
      <point x="2058" y="1390"/>
      <point x="2022" y="1390" type="curve" smooth="yes"/>
      <point x="1866" y="1390" type="line" smooth="yes"/>
      <point x="1837" y="1390"/>
      <point x="1826" y="1389"/>
      <point x="1822" y="1364" type="curve" smooth="yes"/>
      <point x="1612" y="148" type="line" smooth="yes"/>
      <point x="1606" y="115"/>
      <point x="1610" y="110"/>
      <point x="1650" y="110" type="curve" smooth="yes"/>
      <point x="1824" y="110" type="line" smooth="yes"/>
      <point x="1861" y="110"/>
      <point x="1862" y="102"/>
      <point x="1862" y="65" type="curve" smooth="yes"/>
      <point x="1862" y="38" type="line" smooth="yes"/>
      <point x="1862" y="1"/>
      <point x="1853" y="0"/>
      <point x="1816" y="0" type="curve" smooth="yes"/>
      <point x="1216" y="0" type="line" smooth="yes"/>
      <point x="1187" y="0"/>
      <point x="1182" y="6"/>
      <point x="1182" y="36" type="curve" smooth="yes"/>
      <point x="1182" y="68" type="line" smooth="yes"/>
      <point x="1182" y="103"/>
      <point x="1187" y="110"/>
      <point x="1224" y="110" type="curve" smooth="yes"/>
      <point x="1390" y="110" type="line" smooth="yes"/>
      <point x="1432" y="110"/>
      <point x="1427" y="118"/>
      <point x="1433" y="152" type="curve" smooth="yes"/>
      <point x="1622" y="1200" type="line" smooth="yes"/>
      <point x="1639" y="1292"/>
      <point x="1654" y="1331"/>
      <point x="1638" y="1331" type="curve" smooth="yes"/>
      <point x="1621" y="1331"/>
      <point x="1610" y="1288"/>
    </contour>
  </outline>
</glyph>
<glyph name="N" format="2">
  <advance width="1796"/>
  <unicode hex="004E"/>
  <anchor x="816" y="0" name="Anchor-2"/>
  <anchor x="1055" y="1500" name="Anchor-0"/>
  <outline>
    <contour>
      <point x="374" y="1390" type="curve" smooth="yes"/>
      <point x="277" y="1390" type="line" smooth="yes"/>
      <point x="248" y="1390"/>
      <point x="240" y="1393"/>
      <point x="240" y="1421" type="curve" smooth="yes"/>
      <point x="240" y="1471" type="line" smooth="yes"/>
      <point x="240" y="1495"/>
      <point x="248" y="1500"/>
      <point x="270" y="1500" type="curve" smooth="yes"/>
      <point x="618" y="1500" type="line" smooth="yes"/>
      <point x="660" y="1500"/>
      <point x="670" y="1493"/>
      <point x="684" y="1467" type="curve" smooth="yes"/>
      <point x="1256" y="407" type="line" smooth="yes"/>
      <point x="1271" y="380"/>
      <point x="1273" y="360"/>
      <point x="1284" y="360" type="curve" smooth="yes"/>
      <point x="1294" y="360"/>
      <point x="1294" y="374"/>
      <point x="1301" y="409" type="curve" smooth="yes"/>
      <point x="1502" y="1355" type="line" smooth="yes"/>
      <point x="1508" y="1383"/>
      <point x="1494" y="1390"/>
      <point x="1462" y="1390" type="curve" smooth="yes"/>
      <point x="1324" y="1390" type="line" smooth="yes"/>
      <point x="1289" y="1390"/>
      <point x="1286" y="1397"/>
      <point x="1286" y="1433" type="curve" smooth="yes"/>
      <point x="1286" y="1467" type="line" smooth="yes"/>
      <point x="1286" y="1496"/>
      <point x="1295" y="1500"/>
      <point x="1322" y="1500" type="curve" smooth="yes"/>
      <point x="1844" y="1500" type="line" smooth="yes"/>
      <point x="1873" y="1500"/>
      <point x="1876" y="1493"/>
      <point x="1876" y="1463" type="curve" smooth="yes"/>
      <point x="1876" y="1423" type="line" smooth="yes"/>
      <point x="1876" y="1396"/>
      <point x="1871" y="1390"/>
      <point x="1842" y="1390" type="curve" smooth="yes"/>
      <point x="1670" y="1390" type="line" smooth="yes"/>
      <point x="1635" y="1390"/>
      <point x="1636" y="1387"/>
      <point x="1630" y="1359" type="curve" smooth="yes"/>
      <point x="1344" y="1" type="line" smooth="yes"/>
      <point x="1341" y="-14"/>
      <point x="1339" y="-20"/>
      <point x="1319" y="-20" type="curve" smooth="yes"/>
      <point x="1308" y="-20" type="line" smooth="yes"/>
      <point x="1285" y="-20"/>
      <point x="1276" y="-13"/>
      <point x="1268" y="1" type="curve" smooth="yes"/>
      <point x="563" y="1247" type="line" smooth="yes"/>
      <point x="548" y="1273"/>
      <point x="544" y="1288"/>
      <point x="536" y="1288" type="curve" smooth="yes"/>
      <point x="526" y="1288"/>
      <point x="528" y="1273"/>
      <point x="521" y="1241" type="curve" smooth="yes"/>
      <point x="286" y="141" type="line" smooth="yes"/>
      <point x="279" y="106"/>
      <point x="284" y="110"/>
      <point x="324" y="110" type="curve" smooth="yes"/>
      <point x="482" y="110" type="line" smooth="yes"/>
      <point x="506" y="110"/>
      <point x="520" y="107"/>
      <point x="520" y="81" type="curve" smooth="yes"/>
      <point x="520" y="41" type="line" smooth="yes"/>
      <point x="520" y="2"/>
      <point x="508" y="0"/>
      <point x="472" y="0" type="curve" smooth="yes"/>
      <point x="-48" y="0" type="line" smooth="yes"/>
      <point x="-73" y="0"/>
      <point x="-80" y="3"/>
      <point x="-80" y="27" type="curve" smooth="yes"/>
      <point x="-80" y="75" type="line" smooth="yes"/>
      <point x="-80" y="103"/>
      <point x="-77" y="110"/>
      <point x="-50" y="110" type="curve" smooth="yes"/>
      <point x="124" y="110" type="line" smooth="yes"/>
      <point x="157" y="110"/>
      <point x="154" y="115"/>
      <point x="160" y="141" type="curve" smooth="yes"/>
      <point x="417" y="1343" type="line" smooth="yes"/>
      <point x="425" y="1382"/>
      <point x="425" y="1390"/>
    </contour>
  </outline>
</glyph>
<glyph name="O" format="2">
  <advance width="1660"/>
  <unicode hex="004F"/>
  <anchor x="666" y="0" name="Anchor-2"/>
  <anchor x="985" y="1500" name="Anchor-0"/>
  <outline>
    <contour>
      <point x="970" y="1520" type="line"/>
      <point x="1356" y="1520"/>
      <point x="1570" y="1286"/>
      <point x="1570" y="900" type="curve" smooth="yes"/>
      <point x="1570" y="434"/>
      <point x="1176" y="-20"/>
      <point x="690" y="-20" type="curve"/>
      <point x="690" y="80" type="line"/>
      <point x="1078" y="80"/>
      <point x="1340" y="546"/>
      <point x="1340" y="890" type="curve" smooth="yes"/>
      <point x="1340" y="1194"/>
      <point x="1258" y="1420"/>
      <point x="970" y="1420" type="curve"/>
    </contour>
    <contour>
      <point x="690" y="-20" type="line"/>
      <point x="304" y="-20"/>
      <point x="90" y="214"/>
      <point x="90" y="600" type="curve" smooth="yes"/>
      <point x="90" y="1066"/>
      <point x="484" y="1520"/>
      <point x="970" y="1520" type="curve"/>
      <point x="970" y="1420" type="line"/>
      <point x="582" y="1420"/>
      <point x="320" y="954"/>
      <point x="320" y="610" type="curve" smooth="yes"/>
      <point x="320" y="306"/>
      <point x="402" y="80"/>
      <point x="690" y="80" type="curve"/>
    </contour>
  </outline>
</glyph>
<glyph name="S" format="2">
  <advance width="1298"/>
  <unicode hex="0053"/>
  <anchor x="595" y="0" name="Anchor-2"/>
  <anchor x="835" y="1500" name="Anchor-0"/>
  <outline>
    <contour>
      <point x="424" y="1140" type="curve" smooth="yes"/>
      <point x="424" y="818"/>
      <point x="1184" y="950"/>
      <point x="1184" y="450" type="curve" smooth="yes"/>
      <point x="1184" y="150"/>
      <point x="946" y="-30"/>
      <point x="584" y="-30" type="curve" smooth="yes"/>
      <point x="365" y="-30"/>
      <point x="237" y="28"/>
      <point x="171" y="118" type="curve" smooth="yes"/>
      <point x="154" y="142"/>
      <point x="152" y="140"/>
      <point x="134" y="111" type="curve" smooth="yes"/>
      <point x="77" y="18" type="line" smooth="yes"/>
      <point x="66" y="0"/>
      <point x="57" y="-10"/>
      <point x="26" y="-10" type="curve" smooth="yes"/>
      <point x="-23" y="-10" type="line" smooth="yes"/>
      <point x="-54" y="-10"/>
      <point x="-59" y="-7"/>
      <point x="-53" y="17" type="curve" smooth="yes"/>
      <point x="64" y="487" type="line" smooth="yes"/>
      <point x="68" y="504"/>
      <point x="76" y="510"/>
      <point x="98" y="510" type="curve" smooth="yes"/>
      <point x="160" y="510" type="line" smooth="yes"/>
      <point x="171" y="510"/>
      <point x="181" y="505"/>
      <point x="178" y="494" type="curve" smooth="yes"/>
      <point x="103" y="162"/>
      <point x="358" y="78"/>
      <point x="584" y="78" type="curve" smooth="yes"/>
      <point x="934" y="78"/>
      <point x="984" y="282"/>
      <point x="984" y="400" type="curve" smooth="yes"/>
      <point x="984" y="802"/>
      <point x="230" y="656"/>
      <point x="230" y="1096" type="curve" smooth="yes"/>
      <point x="230" y="1396"/>
      <point x="556" y="1530"/>
      <point x="784" y="1530" type="curve" smooth="yes"/>
      <point x="931" y="1530"/>
      <point x="1044" y="1486"/>
      <point x="1124" y="1405" type="curve" smooth="yes"/>
      <point x="1154" y="1374"/>
      <point x="1163" y="1368"/>
      <point x="1190" y="1409" type="curve" smooth="yes"/>
      <point x="1230" y="1473" type="line" smooth="yes"/>
      <point x="1242" y="1491"/>
      <point x="1242" y="1500"/>
      <point x="1273" y="1500" type="curve" smooth="yes"/>
      <point x="1311" y="1500" type="line" smooth="yes"/>
      <point x="1353" y="1500"/>
      <point x="1357" y="1495"/>
      <point x="1350" y="1462" type="curve" smooth="yes"/>
      <point x="1260" y="1039" type="line" smooth="yes"/>
      <point x="1254" y="1012"/>
      <point x="1245" y="1010"/>
      <point x="1212" y="1010" type="curve" smooth="yes"/>
      <point x="1176" y="1010" type="line" smooth="yes"/>
      <point x="1135" y="1010"/>
      <point x="1137" y="1020"/>
      <point x="1141" y="1052" type="curve" smooth="yes"/>
      <point x="1166" y="1263"/>
      <point x="1028" y="1418"/>
      <point x="776" y="1418" type="curve" smooth="yes"/>
      <point x="578" y="1418"/>
      <point x="424" y="1304"/>
    </contour>
  </outline>
</glyph>
<glyph name="U" format="2">
  <advance width="1664"/>
  <unicode hex="0055"/>
  <anchor x="821" y="0" name="Anchor-3"/>
  <anchor x="696" y="0" name="Anchor-2"/>
  <anchor x="985" y="1500" name="Anchor-0"/>
  <outline>
    <contour>
      <point x="596" y="1356" type="curve" smooth="yes"/>
      <point x="412" y="620" type="line" smooth="yes"/>
      <point x="390" y="534"/>
      <point x="376" y="452"/>
      <point x="376" y="380" type="curve" smooth="yes"/>
      <point x="376" y="210"/>
      <point x="452" y="90"/>
      <point x="682" y="90" type="curve" smooth="yes"/>
      <point x="990" y="90"/>
      <point x="1148" y="256"/>
      <point x="1232" y="600" type="curve" smooth="yes"/>
      <point x="1415" y="1350" type="line" smooth="yes"/>
      <point x="1423" y="1382"/>
      <point x="1423" y="1390"/>
      <point x="1379" y="1390" type="curve" smooth="yes"/>
      <point x="1225" y="1390" type="line" smooth="yes"/>
      <point x="1196" y="1390"/>
      <point x="1194" y="1398"/>
      <point x="1194" y="1428" type="curve" smooth="yes"/>
      <point x="1194" y="1470" type="line" smooth="yes"/>
      <point x="1194" y="1490"/>
      <point x="1195" y="1500"/>
      <point x="1215" y="1500" type="curve" smooth="yes"/>
      <point x="1715" y="1500" type="line" smooth="yes"/>
      <point x="1751" y="1500"/>
      <point x="1764" y="1498"/>
      <point x="1764" y="1460" type="curve" smooth="yes"/>
      <point x="1764" y="1424" type="line" smooth="yes"/>
      <point x="1764" y="1394"/>
      <point x="1755" y="1390"/>
      <point x="1727" y="1390" type="curve" smooth="yes"/>
      <point x="1589" y="1390" type="line" smooth="yes"/>
      <point x="1543" y="1390"/>
      <point x="1544" y="1386"/>
      <point x="1535" y="1350" type="curve" smooth="yes"/>
      <point x="1352" y="600" type="line" smooth="yes"/>
      <point x="1252" y="194"/>
      <point x="1048" y="-30"/>
      <point x="652" y="-30" type="curve" smooth="yes"/>
      <point x="298" y="-30"/>
      <point x="180" y="134"/>
      <point x="180" y="364" type="curve" smooth="yes"/>
      <point x="180" y="438"/>
      <point x="192" y="517"/>
      <point x="212" y="600" type="curve" smooth="yes"/>
      <point x="395" y="1346" type="line" smooth="yes"/>
      <point x="404" y="1381"/>
      <point x="405" y="1390"/>
      <point x="361" y="1390" type="curve" smooth="yes"/>
      <point x="231" y="1390" type="line" smooth="yes"/>
      <point x="198" y="1390"/>
      <point x="194" y="1399"/>
      <point x="194" y="1430" type="curve" smooth="yes"/>
      <point x="194" y="1468" type="line" smooth="yes"/>
      <point x="194" y="1497"/>
      <point x="201" y="1500"/>
      <point x="231" y="1500" type="curve" smooth="yes"/>
      <point x="795" y="1500" type="line" smooth="yes"/>
      <point x="829" y="1500"/>
      <point x="834" y="1494"/>
      <point x="834" y="1458" type="curve" smooth="yes"/>
      <point x="834" y="1420" type="line" smooth="yes"/>
      <point x="834" y="1396"/>
      <point x="828" y="1390"/>
      <point x="803" y="1390" type="curve" smooth="yes"/>
      <point x="635" y="1390" type="line" smooth="yes"/>
      <point x="600" y="1390"/>
      <point x="603" y="1383"/>
    </contour>
  </outline>
</glyph>
<glyph name="X" format="2">
  <advance width="1740"/>
  <unicode hex="0058"/>
  <anchor x="686" y="0" name="Anchor-2"/>
  <anchor x="1055" y="1500" name="Anchor-0"/>
  <outline>
    <contour>
      <point x="415" y="1390" type="curve" smooth="yes"/>
      <point x="309" y="1390" type="line" smooth="yes"/>
      <point x="276" y="1390"/>
      <point x="270" y="1396"/>
      <point x="270" y="1428" type="curve" smooth="yes"/>
      <point x="270" y="1462" type="line" smooth="yes"/>
      <point x="270" y="1494"/>
      <point x="276" y="1500"/>
      <point x="307" y="1500" type="curve" smooth="yes"/>
      <point x="893" y="1500" type="line" smooth="yes"/>
      <point x="919" y="1500"/>
      <point x="930" y="1497"/>
      <point x="930" y="1468" type="curve" smooth="yes"/>
      <point x="930" y="1428" type="line" smooth="yes"/>
      <point x="930" y="1396"/>
      <point x="924" y="1390"/>
      <point x="893" y="1390" type="curve" smooth="yes"/>
      <point x="753" y="1390" type="line" smooth="yes"/>
      <point x="703" y="1390"/>
      <point x="693" y="1377"/>
      <point x="708" y="1350" type="curve" smooth="yes"/>
      <point x="911" y="974" type="line" smooth="yes"/>
      <point x="931" y="938"/>
      <point x="933" y="920"/>
      <point x="956" y="920" type="curve" smooth="yes"/>
      <point x="974" y="920"/>
      <point x="992" y="945"/>
      <point x="1029" y="981" type="curve" smooth="yes"/>
      <point x="1407" y="1353" type="line" smooth="yes"/>
      <point x="1433" y="1378"/>
      <point x="1454" y="1390"/>
      <point x="1389" y="1390" type="curve" smooth="yes"/>
      <point x="1271" y="1390" type="line" smooth="yes"/>
      <point x="1236" y="1390"/>
      <point x="1230" y="1394"/>
      <point x="1230" y="1428" type="curve" smooth="yes"/>
      <point x="1230" y="1466" type="line" smooth="yes"/>
      <point x="1230" y="1497"/>
      <point x="1237" y="1500"/>
      <point x="1269" y="1500" type="curve" smooth="yes"/>
      <point x="1795" y="1500" type="line" smooth="yes"/>
      <point x="1828" y="1500"/>
      <point x="1830" y="1492"/>
      <point x="1830" y="1458" type="curve" smooth="yes"/>
      <point x="1830" y="1420" type="line" smooth="yes"/>
      <point x="1830" y="1391"/>
      <point x="1821" y="1390"/>
      <point x="1791" y="1390" type="curve" smooth="yes"/>
      <point x="1649" y="1390" type="line" smooth="yes"/>
      <point x="1591" y="1390"/>
      <point x="1584" y="1380"/>
      <point x="1557" y="1353" type="curve" smooth="yes"/>
      <point x="1071" y="878" type="line" smooth="yes"/>
      <point x="1033" y="841"/>
      <point x="1008" y="818"/>
      <point x="1008" y="794" type="curve" smooth="yes"/>
      <point x="1008" y="766"/>
      <point x="1039" y="737"/>
      <point x="1068" y="684" type="curve" smooth="yes"/>
      <point x="1349" y="162" type="line" smooth="yes"/>
      <point x="1366" y="130"/>
      <point x="1375" y="110"/>
      <point x="1427" y="110" type="curve" smooth="yes"/>
      <point x="1547" y="110" type="line" smooth="yes"/>
      <point x="1578" y="110"/>
      <point x="1580" y="102"/>
      <point x="1580" y="70" type="curve" smooth="yes"/>
      <point x="1580" y="50" type="line" smooth="yes"/>
      <point x="1580" y="5"/>
      <point x="1574" y="0"/>
      <point x="1531" y="0" type="curve" smooth="yes"/>
      <point x="963" y="0" type="line" smooth="yes"/>
      <point x="930" y="0"/>
      <point x="920" y="1"/>
      <point x="920" y="34" type="curve" smooth="yes"/>
      <point x="920" y="70" type="line" smooth="yes"/>
      <point x="920" y="104"/>
      <point x="926" y="110"/>
      <point x="959" y="110" type="curve" smooth="yes"/>
      <point x="1081" y="110" type="line" smooth="yes"/>
      <point x="1140" y="110"/>
      <point x="1139" y="122"/>
      <point x="1121" y="156" type="curve" smooth="yes"/>
      <point x="892" y="586" type="line" smooth="yes"/>
      <point x="867" y="634"/>
      <point x="866" y="664"/>
      <point x="850" y="664" type="curve" smooth="yes"/>
      <point x="836" y="664"/>
      <point x="809" y="635"/>
      <point x="777" y="603" type="curve" smooth="yes"/>
      <point x="313" y="144" type="line" smooth="yes"/>
      <point x="281" y="112"/>
      <point x="279" y="110"/>
      <point x="347" y="110" type="curve" smooth="yes"/>
      <point x="435" y="110" type="line" smooth="yes"/>
      <point x="470" y="110"/>
      <point x="480" y="107"/>
      <point x="480" y="70" type="curve" smooth="yes"/>
      <point x="480" y="34" type="line" smooth="yes"/>
      <point x="480" y="7"/>
      <point x="477" y="0"/>
      <point x="451" y="0" type="curve" smooth="yes"/>
      <point x="-83" y="0" type="line" smooth="yes"/>
      <point x="-114" y="0"/>
      <point x="-120" y="4"/>
      <point x="-120" y="34" type="curve" smooth="yes"/>
      <point x="-120" y="84" type="line" smooth="yes"/>
      <point x="-120" y="108"/>
      <point x="-112" y="110"/>
      <point x="-87" y="110" type="curve" smooth="yes"/>
      <point x="65" y="110" type="line" smooth="yes"/>
      <point x="128" y="110"/>
      <point x="135" y="123"/>
      <point x="165" y="153" type="curve" smooth="yes"/>
      <point x="713" y="698" type="line" smooth="yes"/>
      <point x="755" y="740"/>
      <point x="782" y="763"/>
      <point x="782" y="790" type="curve" smooth="yes"/>
      <point x="782" y="817"/>
      <point x="753" y="847"/>
      <point x="724" y="902" type="curve" smooth="yes"/>
      <point x="479" y="1362" type="line" smooth="yes"/>
      <point x="466" y="1387"/>
      <point x="454" y="1390"/>
    </contour>
  </outline>
</glyph>
<glyph name="Z" format="2">
  <advance width="1470"/>
  <unicode hex="005A"/>
  <anchor x="616" y="0" name="Anchor-2"/>
  <anchor x="895" y="1500" name="Anchor-0"/>
  <outline>
    <contour>
      <point x="-90" y="36" type="curve" smooth="yes"/>
      <point x="-90" y="78" type="line" smooth="yes"/>
      <point x="-90" y="121"/>
      <point x="-74" y="125"/>
      <point x="-54" y="145" type="curve" smooth="yes"/>
      <point x="1138" y="1319" type="line" smooth="yes"/>
      <point x="1168" y="1349"/>
      <point x="1193" y="1357"/>
      <point x="1193" y="1378" type="curve" smooth="yes"/>
      <point x="1193" y="1397"/>
      <point x="1168" y="1390"/>
      <point x="1108" y="1390" type="curve" smooth="yes"/>
      <point x="710" y="1390" type="line" smooth="yes"/>
      <point x="452" y="1390"/>
      <point x="352" y="1314"/>
      <point x="283" y="1076" type="curve" smooth="yes"/>
      <point x="274" y="1045"/>
      <point x="269" y="1030"/>
      <point x="235" y="1030" type="curve" smooth="yes"/>
      <point x="210" y="1030" type="line" smooth="yes"/>
      <point x="171" y="1030"/>
      <point x="172" y="1041"/>
      <point x="179" y="1070" type="curve" smooth="yes"/>
      <point x="270" y="1457" type="line" smooth="yes"/>
      <point x="278" y="1490"/>
      <point x="283" y="1500"/>
      <point x="326" y="1500" type="curve" smooth="yes"/>
      <point x="1418" y="1500" type="line" smooth="yes"/>
      <point x="1451" y="1500"/>
      <point x="1470" y="1500"/>
      <point x="1470" y="1463" type="curve" smooth="yes"/>
      <point x="1470" y="1433" type="line" smooth="yes"/>
      <point x="1470" y="1380"/>
      <point x="1454" y="1375"/>
      <point x="1429" y="1350" type="curve" smooth="yes"/>
      <point x="240" y="179" type="line" smooth="yes"/>
      <point x="210" y="149"/>
      <point x="188" y="142"/>
      <point x="188" y="126" type="curve" smooth="yes"/>
      <point x="188" y="110"/>
      <point x="214" y="110"/>
      <point x="278" y="110" type="curve" smooth="yes"/>
      <point x="790" y="110" type="line" smooth="yes"/>
      <point x="1045" y="110"/>
      <point x="1155" y="184"/>
      <point x="1233" y="448" type="curve" smooth="yes"/>
      <point x="1243" y="481"/>
      <point x="1236" y="510"/>
      <point x="1283" y="510" type="curve" smooth="yes"/>
      <point x="1305" y="510" type="line" smooth="yes"/>
      <point x="1351" y="510"/>
      <point x="1347" y="497"/>
      <point x="1339" y="464" type="curve" smooth="yes"/>
      <point x="1240" y="44" type="line" smooth="yes"/>
      <point x="1231" y="4"/>
      <point x="1232" y="0"/>
      <point x="1181" y="0" type="curve" smooth="yes"/>
      <point x="-46" y="0" type="line" smooth="yes"/>
      <point x="-81" y="0"/>
      <point x="-90" y="1"/>
    </contour>
  </outline>
</glyph>
<glyph name="bracketleft" format="2">
  <advance width="650"/>
  <unicode hex="005B"/>
  <outline>
    <contour>
      <point x="365" y="1560" type="curve" smooth="yes"/>
      <point x="731" y="1560" type="line" smooth="yes"/>
      <point x="769" y="1560"/>
      <point x="770" y="1551"/>
      <point x="770" y="1512" type="curve" smooth="yes"/>
      <point x="770" y="1484" type="line" smooth="yes"/>
      <point x="770" y="1453"/>
      <point x="758" y="1450"/>
      <point x="729" y="1450" type="curve" smooth="yes"/>
      <point x="497" y="1450" type="line" smooth="yes"/>
      <point x="448" y="1450"/>
      <point x="444" y="1438"/>
      <point x="436" y="1400" type="curve" smooth="yes"/>
      <point x="108" y="-122" type="line" smooth="yes"/>
      <point x="96" y="-177"/>
      <point x="90" y="-190"/>
      <point x="163" y="-190" type="curve" smooth="yes"/>
      <point x="355" y="-190" type="line" smooth="yes"/>
      <point x="388" y="-190"/>
      <point x="390" y="-198"/>
      <point x="390" y="-232" type="curve" smooth="yes"/>
      <point x="390" y="-262" type="line" smooth="yes"/>
      <point x="390" y="-300"/>
      <point x="372" y="-300"/>
      <point x="337" y="-300" type="curve" smooth="yes"/>
      <point x="-49" y="-300" type="line" smooth="yes"/>
      <point x="-105" y="-300"/>
      <point x="-110" y="-297"/>
      <point x="-100" y="-252" type="curve" smooth="yes"/>
      <point x="278" y="1506" type="line" smooth="yes"/>
      <point x="289" y="1558"/>
      <point x="301" y="1560"/>
    </contour>
  </outline>
</glyph>
<glyph name="backslash" format="2">
  <advance width="1040"/>
  <unicode hex="005C"/>
  <outline>
    <contour>
      <point x="379" y="1522" type="curve" smooth="yes"/>
      <point x="829" y="-258" type="line" smooth="yes"/>
      <point x="837" y="-290"/>
      <point x="839" y="-300"/>
      <point x="795" y="-300" type="curve" smooth="yes"/>
      <point x="729" y="-300" type="line" smooth="yes"/>
      <point x="697" y="-300"/>
      <point x="700" y="-293"/>
      <point x="694" y="-268" type="curve" smooth="yes"/>
      <point x="251" y="1524" type="line" smooth="yes"/>
      <point x="244" y="1553"/>
      <point x="253" y="1560"/>
      <point x="287" y="1560" type="curve" smooth="yes"/>
      <point x="337" y="1560" type="line" smooth="yes"/>
      <point x="369" y="1560"/>
      <point x="373" y="1547"/>
    </contour>
  </outline>
</glyph>
<glyph name="asciicircum" format="2">
  <advance width="1090"/>
  <unicode hex="005E"/>
  <outline>
    <contour>
      <point x="645" y="1399" type="curve" smooth="yes"/>
      <point x="274" y="1138" type="line" smooth="yes"/>
      <point x="251" y="1122"/>
      <point x="247" y="1121"/>
      <point x="226" y="1134" type="curve" smooth="yes"/>
      <point x="204" y="1147" type="line" smooth="yes"/>
      <point x="186" y="1159"/>
      <point x="193" y="1165"/>
      <point x="211" y="1180" type="curve" smooth="yes"/>
      <point x="623" y="1520" type="line" smooth="yes"/>
      <point x="638" y="1532"/>
      <point x="646" y="1540"/>
      <point x="671" y="1540" type="curve" smooth="yes"/>
      <point x="747" y="1540" type="line" smooth="yes"/>
      <point x="776" y="1540"/>
      <point x="784" y="1532"/>
      <point x="795" y="1518" type="curve" smooth="yes"/>
      <point x="1061" y="1180" type="line" smooth="yes"/>
      <point x="1073" y="1165"/>
      <point x="1076" y="1159"/>
      <point x="1051" y="1147" type="curve" smooth="yes"/>
      <point x="1028" y="1136" type="line" smooth="yes"/>
      <point x="1001" y="1122"/>
      <point x="996" y="1121"/>
      <point x="980" y="1138" type="curve" smooth="yes"/>
      <point x="722" y="1397" type="line" smooth="yes"/>
      <point x="691" y="1428"/>
      <point x="690" y="1430"/>
    </contour>
  </outline>
</glyph>
<glyph name="a" format="2">
  <advance width="1272"/>
  <unicode hex="0061"/>
  <anchor x="633" y="1040" name="Anchor-0"/>
  <anchor x="435" y="0" name="Anchor-2"/>
  <anchor x="917" y="20" name="Anchor-3"/>
  <outline>
    <contour>
      <point x="816" y="640" type="curve" smooth="yes"/>
      <point x="816" y="808"/>
      <point x="782" y="956"/>
      <point x="620" y="956" type="curve" smooth="yes"/>
      <point x="452" y="956"/>
      <point x="240" y="648"/>
      <point x="240" y="360" type="curve" smooth="yes"/>
      <point x="240" y="192"/>
      <point x="312" y="84"/>
      <point x="440" y="84" type="curve" smooth="yes"/>
      <point x="622" y="84"/>
      <point x="816" y="412"/>
    </contour>
    <contour>
      <point x="1205" y="308" type="curve" smooth="yes"/>
      <point x="1128" y="117"/>
      <point x="994" y="-20"/>
      <point x="856" y="-20" type="curve" smooth="yes"/>
      <point x="762" y="-20"/>
      <point x="714" y="36"/>
      <point x="714" y="106" type="curve" smooth="yes"/>
      <point x="714" y="135"/>
      <point x="716" y="148"/>
      <point x="719" y="159" type="curve" smooth="yes"/>
      <point x="722" y="173"/>
      <point x="715" y="173"/>
      <point x="704" y="159" type="curve" smooth="yes"/>
      <point x="618" y="54"/>
      <point x="507" y="-20"/>
      <point x="384" y="-20" type="curve" smooth="yes"/>
      <point x="206" y="-20"/>
      <point x="40" y="80"/>
      <point x="40" y="360" type="curve" smooth="yes"/>
      <point x="40" y="760"/>
      <point x="386" y="1058"/>
      <point x="604" y="1058" type="curve" smooth="yes"/>
      <point x="738" y="1058"/>
      <point x="812" y="995"/>
      <point x="850" y="891" type="curve" smooth="yes"/>
      <point x="871" y="834"/>
      <point x="872" y="845"/>
      <point x="882" y="888" type="curve" smooth="yes"/>
      <point x="910" y="1014" type="line" smooth="yes"/>
      <point x="914" y="1032"/>
      <point x="920" y="1040"/>
      <point x="944" y="1040" type="curve" smooth="yes"/>
      <point x="1054" y="1040" type="line" smooth="yes"/>
      <point x="1096" y="1040"/>
      <point x="1099" y="1034"/>
      <point x="1091" y="1002" type="curve" smooth="yes"/>
      <point x="894" y="178" type="line" smooth="yes"/>
      <point x="891" y="167"/>
      <point x="890" y="152"/>
      <point x="890" y="142" type="curve" smooth="yes"/>
      <point x="890" y="120"/>
      <point x="900" y="104"/>
      <point x="926" y="104" type="curve" smooth="yes"/>
      <point x="990" y="104"/>
      <point x="1080" y="208"/>
      <point x="1128" y="331" type="curve" smooth="yes"/>
      <point x="1135" y="349"/>
      <point x="1134" y="353"/>
      <point x="1153" y="346" type="curve" smooth="yes"/>
      <point x="1194" y="332" type="line" smooth="yes"/>
      <point x="1212" y="326"/>
      <point x="1212" y="326"/>
    </contour>
  </outline>
</glyph>
<glyph name="b" format="2">
  <advance width="1148"/>
  <unicode hex="0062"/>
  <anchor x="793" y="1040" name="Anchor-0"/>
  <anchor x="435" y="0" name="Anchor-2"/>
  <outline>
    <contour>
      <point x="231" y="240" type="curve" smooth="yes"/>
      <point x="244" y="151"/>
      <point x="301" y="84"/>
      <point x="408" y="84" type="curve" smooth="yes"/>
      <point x="656" y="84"/>
      <point x="848" y="392"/>
      <point x="848" y="660" type="curve" smooth="yes"/>
      <point x="848" y="828"/>
      <point x="816" y="956"/>
      <point x="708" y="956" type="curve" smooth="yes"/>
      <point x="534" y="956"/>
      <point x="341" y="770"/>
      <point x="290" y="552" type="curve" smooth="yes"/>
      <point x="234" y="304" type="line" smooth="yes"/>
      <point x="229" y="284"/>
      <point x="228" y="263"/>
    </contour>
    <contour>
      <point x="52" y="292" type="curve" smooth="yes"/>
      <point x="309" y="1416" type="line" smooth="yes"/>
      <point x="317" y="1449"/>
      <point x="319" y="1450"/>
      <point x="278" y="1450" type="curve" smooth="yes"/>
      <point x="192" y="1450" type="line" smooth="yes"/>
      <point x="164" y="1450"/>
      <point x="162" y="1467"/>
      <point x="162" y="1492" type="curve" smooth="yes"/>
      <point x="162" y="1528" type="line" smooth="yes"/>
      <point x="162" y="1552"/>
      <point x="165" y="1560"/>
      <point x="188" y="1560" type="curve" smooth="yes"/>
      <point x="484" y="1560" type="line" smooth="yes"/>
      <point x="517" y="1560"/>
      <point x="521" y="1556"/>
      <point x="515" y="1530" type="curve" smooth="yes"/>
      <point x="371" y="902" type="line" smooth="yes"/>
      <point x="359" y="851"/>
      <point x="364" y="844"/>
      <point x="403" y="888" type="curve" smooth="yes"/>
      <point x="498" y="996"/>
      <point x="613" y="1058"/>
      <point x="734" y="1058" type="curve" smooth="yes"/>
      <point x="912" y="1058"/>
      <point x="1048" y="940"/>
      <point x="1048" y="660" type="curve" smooth="yes"/>
      <point x="1048" y="280"/>
      <point x="742" y="-20"/>
      <point x="404" y="-20" type="curve" smooth="yes"/>
      <point x="203" y="-20"/>
      <point x="117" y="74"/>
      <point x="58" y="199" type="curve" smooth="yes"/>
      <point x="42" y="233"/>
      <point x="43" y="250"/>
    </contour>
  </outline>
</glyph>
<glyph name="c" format="2">
  <advance width="1080"/>
  <unicode hex="0063"/>
  <anchor x="652" y="1040" name="Anchor-0"/>
  <anchor x="429" y="0" name="Anchor-2"/>
  <outline>
    <contour>
      <point x="980" y="784" type="curve" smooth="yes"/>
      <point x="980" y="668"/>
      <point x="902" y="630"/>
      <point x="834" y="630" type="curve" smooth="yes"/>
      <point x="778" y="630"/>
      <point x="724" y="662"/>
      <point x="724" y="736" type="curve" smooth="yes"/>
      <point x="724" y="808"/>
      <point x="788" y="828"/>
      <point x="788" y="874" type="curve" smooth="yes"/>
      <point x="788" y="928"/>
      <point x="762" y="966"/>
      <point x="674" y="966" type="curve" smooth="yes"/>
      <point x="436" y="966"/>
      <point x="244" y="668"/>
      <point x="244" y="340" type="curve" smooth="yes"/>
      <point x="244" y="192"/>
      <point x="276" y="78"/>
      <point x="414" y="78" type="curve" smooth="yes"/>
      <point x="570" y="78"/>
      <point x="706" y="208"/>
      <point x="780" y="323" type="curve" smooth="yes"/>
      <point x="791" y="340"/>
      <point x="795" y="346"/>
      <point x="825" y="346" type="curve" smooth="yes"/>
      <point x="846" y="346" type="line" smooth="yes"/>
      <point x="886" y="346"/>
      <point x="899" y="340"/>
      <point x="885" y="314" type="curve" smooth="yes"/>
      <point x="797" y="148"/>
      <point x="619" y="-20"/>
      <point x="390" y="-20" type="curve" smooth="yes"/>
      <point x="168" y="-20"/>
      <point x="40" y="80"/>
      <point x="40" y="340" type="curve" smooth="yes"/>
      <point x="40" y="740"/>
      <point x="352" y="1060"/>
      <point x="674" y="1060" type="curve" smooth="yes"/>
      <point x="898" y="1060"/>
      <point x="980" y="948"/>
    </contour>
  </outline>
</glyph>
<glyph name="d" format="2">
  <advance width="1296"/>
  <unicode hex="0064"/>
  <anchor x="622" y="1040" name="Anchor-0"/>
  <anchor x="1360" y="1040" name="Anchor-1"/>
  <anchor x="582" y="0" name="Anchor-2"/>
  <outline>
    <contour>
      <point x="836" y="640" type="curve" smooth="yes"/>
      <point x="836" y="808"/>
      <point x="822" y="956"/>
      <point x="640" y="956" type="curve" smooth="yes"/>
      <point x="472" y="956"/>
      <point x="240" y="648"/>
      <point x="240" y="360" type="curve" smooth="yes"/>
      <point x="240" y="192"/>
      <point x="292" y="84"/>
      <point x="420" y="84" type="curve" smooth="yes"/>
      <point x="602" y="84"/>
      <point x="836" y="412"/>
    </contour>
    <contour>
      <point x="1223" y="303" type="curve" smooth="yes"/>
      <point x="1145" y="115"/>
      <point x="1013" y="-20"/>
      <point x="876" y="-20" type="curve" smooth="yes"/>
      <point x="782" y="-20"/>
      <point x="729" y="26"/>
      <point x="729" y="106" type="curve" smooth="yes"/>
      <point x="729" y="136"/>
      <point x="739" y="158"/>
      <point x="743" y="170" type="curve" smooth="yes"/>
      <point x="756" y="211"/>
      <point x="747" y="213"/>
      <point x="718" y="179" type="curve" smooth="yes"/>
      <point x="621" y="63"/>
      <point x="495" y="-20"/>
      <point x="364" y="-20" type="curve" smooth="yes"/>
      <point x="186" y="-20"/>
      <point x="40" y="80"/>
      <point x="40" y="360" type="curve" smooth="yes"/>
      <point x="40" y="760"/>
      <point x="406" y="1058"/>
      <point x="624" y="1058" type="curve" smooth="yes"/>
      <point x="769" y="1058"/>
      <point x="834" y="993"/>
      <point x="875" y="893" type="curve" smooth="yes"/>
      <point x="890" y="855"/>
      <point x="894" y="857"/>
      <point x="902" y="891" type="curve" smooth="yes"/>
      <point x="1018" y="1407" type="line" smooth="yes"/>
      <point x="1023" y="1430"/>
      <point x="1029" y="1450"/>
      <point x="995" y="1450" type="curve" smooth="yes"/>
      <point x="880" y="1450" type="line" smooth="yes"/>
      <point x="859" y="1450"/>
      <point x="856" y="1458"/>
      <point x="856" y="1480" type="curve" smooth="yes"/>
      <point x="856" y="1524" type="line" smooth="yes"/>
      <point x="856" y="1550"/>
      <point x="857" y="1560"/>
      <point x="883" y="1560" type="curve" smooth="yes"/>
      <point x="1185" y="1560" type="line" smooth="yes"/>
      <point x="1228" y="1560"/>
      <point x="1236" y="1559"/>
      <point x="1228" y="1524" type="curve" smooth="yes"/>
      <point x="914" y="178" type="line" smooth="yes"/>
      <point x="911" y="167"/>
      <point x="910" y="152"/>
      <point x="910" y="142" type="curve" smooth="yes"/>
      <point x="910" y="120"/>
      <point x="920" y="104"/>
      <point x="946" y="104" type="curve" smooth="yes"/>
      <point x="1012" y="104"/>
      <point x="1101" y="209"/>
      <point x="1149" y="335" type="curve" smooth="yes"/>
      <point x="1154" y="348"/>
      <point x="1155" y="353"/>
      <point x="1169" y="348" type="curve" smooth="yes"/>
      <point x="1213" y="332" type="line" smooth="yes"/>
      <point x="1227" y="327"/>
      <point x="1231" y="323"/>
    </contour>
  </outline>
</glyph>
<glyph name="e" format="2">
  <advance width="1060"/>
  <unicode hex="0065"/>
  <anchor x="626" y="1040" name="Anchor-0"/>
  <anchor x="427" y="0" name="Anchor-2"/>
  <anchor x="680" y="102" name="Anchor-3"/>
  <outline>
    <contour>
      <point x="40" y="340" type="curve" smooth="yes"/>
      <point x="40" y="740"/>
      <point x="372" y="1060"/>
      <point x="674" y="1060" type="curve" smooth="yes"/>
      <point x="898" y="1060"/>
      <point x="1000" y="988"/>
      <point x="1000" y="824" type="curve" smooth="yes"/>
      <point x="1000" y="510"/>
      <point x="562" y="445"/>
      <point x="303" y="427" type="curve" smooth="yes"/>
      <point x="256" y="424"/>
      <point x="244" y="404"/>
      <point x="244" y="340" type="curve" smooth="yes"/>
      <point x="244" y="192"/>
      <point x="296" y="78"/>
      <point x="434" y="78" type="curve" smooth="yes"/>
      <point x="592" y="78"/>
      <point x="711" y="212"/>
      <point x="783" y="328" type="curve" smooth="yes"/>
      <point x="794" y="345"/>
      <point x="801" y="346"/>
      <point x="830" y="346" type="curve" smooth="yes"/>
      <point x="859" y="346" type="line" smooth="yes"/>
      <point x="897" y="346"/>
      <point x="902" y="343"/>
      <point x="885" y="312" type="curve" smooth="yes"/>
      <point x="798" y="148"/>
      <point x="636" y="-20"/>
      <point x="410" y="-20" type="curve" smooth="yes"/>
      <point x="188" y="-20"/>
      <point x="40" y="80"/>
    </contour>
    <contour>
      <point x="319" y="518" type="curve" smooth="yes"/>
      <point x="521" y="543"/>
      <point x="808" y="606"/>
      <point x="808" y="824" type="curve" smooth="yes"/>
      <point x="808" y="938"/>
      <point x="762" y="966"/>
      <point x="674" y="966" type="curve" smooth="yes"/>
      <point x="513" y="966"/>
      <point x="355" y="803"/>
      <point x="284" y="586" type="curve" smooth="yes"/>
      <point x="267" y="534"/>
      <point x="267" y="511"/>
    </contour>
  </outline>
</glyph>
<glyph name="f" format="2">
  <advance width="750"/>
  <unicode hex="0066"/>
  <anchor x="919" y="1692" name="Anchor-0"/>
  <anchor x="181" y="0" name="Anchor-2"/>
  <outline>
    <contour>
      <point x="17" y="-266" type="curve" smooth="yes"/>
      <point x="251" y="900" type="line" smooth="yes"/>
      <point x="257" y="929"/>
      <point x="249" y="930"/>
      <point x="214" y="930" type="curve" smooth="yes"/>
      <point x="134" y="930" type="line" smooth="yes"/>
      <point x="108" y="930"/>
      <point x="100" y="933"/>
      <point x="100" y="958" type="curve" smooth="yes"/>
      <point x="100" y="1004" type="line" smooth="yes"/>
      <point x="100" y="1036"/>
      <point x="108" y="1040"/>
      <point x="138" y="1040" type="curve" smooth="yes"/>
      <point x="256" y="1040" type="line" smooth="yes"/>
      <point x="280" y="1040"/>
      <point x="279" y="1042"/>
      <point x="283" y="1062" type="curve" smooth="yes"/>
      <point x="300" y="1144" type="line" smooth="yes"/>
      <point x="353" y="1407"/>
      <point x="514" y="1580"/>
      <point x="774" y="1580" type="curve" smooth="yes"/>
      <point x="976" y="1580"/>
      <point x="1110" y="1472"/>
      <point x="1110" y="1358" type="curve" smooth="yes"/>
      <point x="1110" y="1272"/>
      <point x="1062" y="1226"/>
      <point x="992" y="1226" type="curve" smooth="yes"/>
      <point x="922" y="1226"/>
      <point x="876" y="1266"/>
      <point x="876" y="1322" type="curve" smooth="yes"/>
      <point x="876" y="1382"/>
      <point x="918" y="1396"/>
      <point x="918" y="1436" type="curve" smooth="yes"/>
      <point x="918" y="1460"/>
      <point x="882" y="1490"/>
      <point x="778" y="1490" type="curve" smooth="yes"/>
      <point x="618" y="1490"/>
      <point x="531" y="1356"/>
      <point x="480" y="1100" type="curve" smooth="yes"/>
      <point x="472" y="1062" type="line" smooth="yes"/>
      <point x="469" y="1046"/>
      <point x="473" y="1040"/>
      <point x="494" y="1040" type="curve" smooth="yes"/>
      <point x="710" y="1040" type="line" smooth="yes"/>
      <point x="733" y="1040"/>
      <point x="740" y="1035"/>
      <point x="740" y="1010" type="curve" smooth="yes"/>
      <point x="740" y="962" type="line" smooth="yes"/>
      <point x="740" y="936"/>
      <point x="735" y="930"/>
      <point x="710" y="930" type="curve" smooth="yes"/>
      <point x="470" y="930" type="line" smooth="yes"/>
      <point x="446" y="930"/>
      <point x="445" y="930"/>
      <point x="441" y="910" type="curve" smooth="yes"/>
      <point x="196" y="-272" type="line" smooth="yes"/>
      <point x="191" y="-296"/>
      <point x="182" y="-300"/>
      <point x="152" y="-300" type="curve" smooth="yes"/>
      <point x="46" y="-300" type="line" smooth="yes"/>
      <point x="13" y="-300"/>
      <point x="12" y="-291"/>
    </contour>
  </outline>
</glyph>
<glyph name="h" format="2">
  <advance width="1236"/>
  <unicode hex="0068"/>
  <anchor x="888" y="1035" name="Anchor-0"/>
  <anchor x="509" y="0" name="Anchor-2"/>
  <outline>
    <contour>
      <point x="1164" y="296" type="curve" smooth="yes"/>
      <point x="1086" y="112"/>
      <point x="955" y="-20"/>
      <point x="820" y="-20" type="curve" smooth="yes"/>
      <point x="726" y="-20"/>
      <point x="678" y="26"/>
      <point x="678" y="126" type="curve" smooth="yes"/>
      <point x="678" y="136"/>
      <point x="681" y="167"/>
      <point x="686" y="184" type="curve" smooth="yes"/>
      <point x="814" y="660" type="line" smooth="yes"/>
      <point x="860" y="829"/>
      <point x="884" y="952"/>
      <point x="756" y="952" type="curve" smooth="yes"/>
      <point x="600" y="952"/>
      <point x="348" y="729"/>
      <point x="291" y="481" type="curve" smooth="yes"/>
      <point x="187" y="31" type="line" smooth="yes"/>
      <point x="181" y="3"/>
      <point x="182" y="0"/>
      <point x="146" y="0" type="curve" smooth="yes"/>
      <point x="48" y="0" type="line" smooth="yes"/>
      <point x="2" y="0"/>
      <point x="2" y="11"/>
      <point x="10" y="45" type="curve" smooth="yes"/>
      <point x="326" y="1411" type="line" smooth="yes"/>
      <point x="334" y="1446"/>
      <point x="330" y="1450"/>
      <point x="284" y="1450" type="curve" smooth="yes"/>
      <point x="208" y="1450" type="line" smooth="yes"/>
      <point x="175" y="1450"/>
      <point x="170" y="1456"/>
      <point x="170" y="1491" type="curve" smooth="yes"/>
      <point x="170" y="1523" type="line" smooth="yes"/>
      <point x="170" y="1552"/>
      <point x="172" y="1560"/>
      <point x="200" y="1560" type="curve" smooth="yes"/>
      <point x="488" y="1560" type="line" smooth="yes"/>
      <point x="528" y="1560"/>
      <point x="536" y="1552"/>
      <point x="528" y="1519" type="curve" smooth="yes"/>
      <point x="374" y="841" type="line" smooth="yes"/>
      <point x="364" y="798"/>
      <point x="369" y="786"/>
      <point x="402" y="826" type="curve" smooth="yes"/>
      <point x="520" y="968"/>
      <point x="647" y="1058"/>
      <point x="782" y="1058" type="curve" smooth="yes"/>
      <point x="960" y="1058"/>
      <point x="1069" y="961"/>
      <point x="994" y="682" type="curve" smooth="yes"/>
      <point x="862" y="192" type="line" smooth="yes"/>
      <point x="857" y="173"/>
      <point x="854" y="152"/>
      <point x="854" y="142" type="curve" smooth="yes"/>
      <point x="854" y="120"/>
      <point x="864" y="104"/>
      <point x="890" y="104" type="curve" smooth="yes"/>
      <point x="953" y="104"/>
      <point x="1039" y="202"/>
      <point x="1088" y="321" type="curve" smooth="yes"/>
      <point x="1100" y="349"/>
      <point x="1097" y="352"/>
      <point x="1128" y="342" type="curve" smooth="yes"/>
      <point x="1160" y="331" type="line" smooth="yes"/>
      <point x="1182" y="323"/>
      <point x="1172" y="315"/>
    </contour>
  </outline>
</glyph>
<glyph name="i" format="2">
  <advance width="618"/>
  <unicode hex="0069"/>
  <anchor x="200" y="12" name="Anchor-3"/>
  <anchor x="187" y="0" name="Anchor-2"/>
  <outline>
    <contour>
      <point x="431" y="990" type="curve" smooth="yes"/>
      <point x="240" y="178" type="line" smooth="yes"/>
      <point x="237" y="167"/>
      <point x="236" y="152"/>
      <point x="236" y="142" type="curve" smooth="yes"/>
      <point x="236" y="120"/>
      <point x="246" y="104"/>
      <point x="272" y="104" type="curve" smooth="yes"/>
      <point x="335" y="104"/>
      <point x="422" y="204"/>
      <point x="471" y="324" type="curve" smooth="yes"/>
      <point x="479" y="344"/>
      <point x="487" y="351"/>
      <point x="510" y="343" type="curve" smooth="yes"/>
      <point x="534" y="334" type="line" smooth="yes"/>
      <point x="552" y="327"/>
      <point x="557" y="321"/>
      <point x="546" y="296" type="curve" smooth="yes"/>
      <point x="468" y="112"/>
      <point x="337" y="-20"/>
      <point x="202" y="-20" type="curve" smooth="yes"/>
      <point x="108" y="-20"/>
      <point x="60" y="26"/>
      <point x="60" y="126" type="curve" smooth="yes"/>
      <point x="60" y="136"/>
      <point x="62" y="158"/>
      <point x="64" y="170" type="curve" smooth="yes"/>
      <point x="230" y="896" type="line" smooth="yes"/>
      <point x="237" y="925"/>
      <point x="231" y="930"/>
      <point x="198" y="930" type="curve" smooth="yes"/>
      <point x="106" y="930" type="line" smooth="yes"/>
      <point x="72" y="930"/>
      <point x="66" y="935"/>
      <point x="66" y="968" type="curve" smooth="yes"/>
      <point x="66" y="1008" type="line" smooth="yes"/>
      <point x="66" y="1036"/>
      <point x="76" y="1040"/>
      <point x="102" y="1040" type="curve" smooth="yes"/>
      <point x="388" y="1040" type="line" smooth="yes"/>
      <point x="441" y="1040"/>
      <point x="442" y="1035"/>
    </contour>
    <contour>
      <point x="292" y="1400" type="curve" smooth="yes"/>
      <point x="292" y="1466"/>
      <point x="346" y="1520"/>
      <point x="412" y="1520" type="curve" smooth="yes"/>
      <point x="478" y="1520"/>
      <point x="532" y="1466"/>
      <point x="532" y="1400" type="curve" smooth="yes"/>
      <point x="532" y="1334"/>
      <point x="478" y="1280"/>
      <point x="412" y="1280" type="curve" smooth="yes"/>
      <point x="346" y="1280"/>
      <point x="292" y="1334"/>
    </contour>
  </outline>
</glyph>
<glyph name="l" format="2">
  <advance width="598"/>
  <unicode hex="006C"/>
  <anchor x="513" y="1696" name="Anchor-0"/>
  <anchor x="617" y="1040" name="Anchor-1"/>
  <anchor x="160" y="0" name="Anchor-2"/>
  <outline>
    <contour>
      <point x="511" y="1494" type="curve" smooth="yes"/>
      <point x="220" y="178" type="line" smooth="yes"/>
      <point x="217" y="167"/>
      <point x="216" y="152"/>
      <point x="216" y="142" type="curve" smooth="yes"/>
      <point x="216" y="120"/>
      <point x="226" y="104"/>
      <point x="252" y="104" type="curve" smooth="yes"/>
      <point x="315" y="104"/>
      <point x="402" y="203"/>
      <point x="451" y="322" type="curve" smooth="yes"/>
      <point x="462" y="348"/>
      <point x="464" y="351"/>
      <point x="493" y="341" type="curve" smooth="yes"/>
      <point x="513" y="334" type="line" smooth="yes"/>
      <point x="538" y="325"/>
      <point x="537" y="321"/>
      <point x="527" y="298" type="curve" smooth="yes"/>
      <point x="449" y="113"/>
      <point x="317" y="-20"/>
      <point x="182" y="-20" type="curve" smooth="yes"/>
      <point x="88" y="-20"/>
      <point x="40" y="26"/>
      <point x="40" y="126" type="curve" smooth="yes"/>
      <point x="40" y="136"/>
      <point x="41" y="158"/>
      <point x="44" y="170" type="curve" smooth="yes"/>
      <point x="310" y="1414" type="line" smooth="yes"/>
      <point x="318" y="1450"/>
      <point x="309" y="1450"/>
      <point x="266" y="1450" type="curve" smooth="yes"/>
      <point x="174" y="1450" type="line" smooth="yes"/>
      <point x="151" y="1450"/>
      <point x="146" y="1457"/>
      <point x="146" y="1478" type="curve" smooth="yes"/>
      <point x="146" y="1522" type="line" smooth="yes"/>
      <point x="146" y="1554"/>
      <point x="151" y="1560"/>
      <point x="182" y="1560" type="curve" smooth="yes"/>
      <point x="450" y="1560" type="line" smooth="yes"/>
      <point x="525" y="1560"/>
      <point x="524" y="1553"/>
    </contour>
  </outline>
</glyph>
<glyph name="m" format="2">
  <advance width="1760"/>
  <unicode hex="006D"/>
  <anchor x="1060" y="1040" name="Anchor-0"/>
  <anchor x="780" y="0" name="Anchor-2"/>
  <outline>
    <contour>
      <point x="138" y="1040" type="curve" smooth="yes"/>
      <point x="424" y="1040" type="line" smooth="yes"/>
      <point x="467" y="1040"/>
      <point x="470" y="1043"/>
      <point x="462" y="1007" type="curve" smooth="yes"/>
      <point x="422" y="831" type="line" smooth="yes"/>
      <point x="407" y="767"/>
      <point x="401" y="741"/>
      <point x="455" y="821" type="curve" smooth="yes"/>
      <point x="549" y="961"/>
      <point x="664" y="1058"/>
      <point x="782" y="1058" type="curve" smooth="yes"/>
      <point x="935" y="1058"/>
      <point x="983" y="989"/>
      <point x="987" y="827" type="curve" smooth="yes"/>
      <point x="988" y="777"/>
      <point x="994" y="776"/>
      <point x="1026" y="826" type="curve" smooth="yes"/>
      <point x="1115" y="965"/>
      <point x="1217" y="1058"/>
      <point x="1338" y="1058" type="curve" smooth="yes"/>
      <point x="1556" y="1058"/>
      <point x="1593" y="961"/>
      <point x="1518" y="682" type="curve" smooth="yes"/>
      <point x="1386" y="192" type="line" smooth="yes"/>
      <point x="1381" y="173"/>
      <point x="1378" y="152"/>
      <point x="1378" y="142" type="curve" smooth="yes"/>
      <point x="1378" y="120"/>
      <point x="1388" y="104"/>
      <point x="1414" y="104" type="curve" smooth="yes"/>
      <point x="1476" y="104"/>
      <point x="1562" y="201"/>
      <point x="1611" y="319" type="curve" smooth="yes"/>
      <point x="1622" y="344"/>
      <point x="1629" y="350"/>
      <point x="1657" y="340" type="curve" smooth="yes"/>
      <point x="1669" y="337" type="line" smooth="yes"/>
      <point x="1696" y="329"/>
      <point x="1698" y="320"/>
      <point x="1684" y="287" type="curve" smooth="yes"/>
      <point x="1606" y="107"/>
      <point x="1477" y="-20"/>
      <point x="1344" y="-20" type="curve" smooth="yes"/>
      <point x="1250" y="-20"/>
      <point x="1202" y="26"/>
      <point x="1202" y="126" type="curve" smooth="yes"/>
      <point x="1202" y="136"/>
      <point x="1205" y="167"/>
      <point x="1210" y="184" type="curve" smooth="yes"/>
      <point x="1338" y="660" type="line" smooth="yes"/>
      <point x="1383" y="827"/>
      <point x="1448" y="956"/>
      <point x="1320" y="956" type="curve" smooth="yes"/>
      <point x="1138" y="956"/>
      <point x="959" y="587"/>
      <point x="888" y="306" type="curve" smooth="yes"/>
      <point x="821" y="41" type="line" smooth="yes"/>
      <point x="812" y="6"/>
      <point x="808" y="0"/>
      <point x="764" y="0" type="curve" smooth="yes"/>
      <point x="688" y="0" type="line" smooth="yes"/>
      <point x="627" y="0"/>
      <point x="635" y="5"/>
      <point x="647" y="52" type="curve" smooth="yes"/>
      <point x="798" y="660" type="line" smooth="yes"/>
      <point x="839" y="826"/>
      <point x="868" y="956"/>
      <point x="756" y="956" type="curve" smooth="yes"/>
      <point x="579" y="956"/>
      <point x="372" y="615"/>
      <point x="307" y="332" type="curve" smooth="yes"/>
      <point x="240" y="42" type="line" smooth="yes"/>
      <point x="231" y="5"/>
      <point x="233" y="0"/>
      <point x="186" y="0" type="curve" smooth="yes"/>
      <point x="102" y="0" type="line" smooth="yes"/>
      <point x="42" y="0"/>
      <point x="51" y="7"/>
      <point x="62" y="54" type="curve" smooth="yes"/>
      <point x="255" y="885" type="line" smooth="yes"/>
      <point x="264" y="925"/>
      <point x="261" y="930"/>
      <point x="210" y="930" type="curve" smooth="yes"/>
      <point x="144" y="930" type="line" smooth="yes"/>
      <point x="109" y="930"/>
      <point x="100" y="932"/>
      <point x="100" y="967" type="curve" smooth="yes"/>
      <point x="100" y="995" type="line" smooth="yes"/>
      <point x="100" y="1031"/>
      <point x="102" y="1040"/>
    </contour>
  </outline>
</glyph>
<glyph name="n" format="2">
  <advance width="1266"/>
  <unicode hex="006E"/>
  <anchor x="746" y="1040" name="Anchor-0"/>
  <anchor x="514" y="0" name="Anchor-2"/>
  <outline>
    <contour>
      <point x="136" y="1040" type="curve" smooth="yes"/>
      <point x="416" y="1040" type="line" smooth="yes"/>
      <point x="466" y="1040"/>
      <point x="469" y="1036"/>
      <point x="460" y="997" type="curve" smooth="yes"/>
      <point x="417" y="809" type="line" smooth="yes"/>
      <point x="402" y="744"/>
      <point x="405" y="736"/>
      <point x="454" y="809" type="curve" smooth="yes"/>
      <point x="558" y="963"/>
      <point x="682" y="1058"/>
      <point x="812" y="1058" type="curve" smooth="yes"/>
      <point x="990" y="1058"/>
      <point x="1099" y="961"/>
      <point x="1024" y="682" type="curve" smooth="yes"/>
      <point x="892" y="192" type="line" smooth="yes"/>
      <point x="887" y="173"/>
      <point x="884" y="152"/>
      <point x="884" y="142" type="curve" smooth="yes"/>
      <point x="884" y="120"/>
      <point x="894" y="104"/>
      <point x="920" y="104" type="curve" smooth="yes"/>
      <point x="981" y="104"/>
      <point x="1065" y="198"/>
      <point x="1115" y="313" type="curve" smooth="yes"/>
      <point x="1127" y="342"/>
      <point x="1132" y="351"/>
      <point x="1156" y="343" type="curve" smooth="yes"/>
      <point x="1180" y="335" type="line" smooth="yes"/>
      <point x="1200" y="328"/>
      <point x="1205" y="323"/>
      <point x="1194" y="296" type="curve" smooth="yes"/>
      <point x="1116" y="112"/>
      <point x="985" y="-20"/>
      <point x="850" y="-20" type="curve" smooth="yes"/>
      <point x="756" y="-20"/>
      <point x="708" y="26"/>
      <point x="708" y="126" type="curve" smooth="yes"/>
      <point x="708" y="136"/>
      <point x="711" y="167"/>
      <point x="716" y="184" type="curve" smooth="yes"/>
      <point x="844" y="660" type="line" smooth="yes"/>
      <point x="890" y="829"/>
      <point x="914" y="952"/>
      <point x="786" y="952" type="curve" smooth="yes"/>
      <point x="611" y="952"/>
      <point x="369" y="603"/>
      <point x="307" y="335" type="curve" smooth="yes"/>
      <point x="241" y="49" type="line" smooth="yes"/>
      <point x="234" y="18"/>
      <point x="231" y="0"/>
      <point x="190" y="0" type="curve" smooth="yes"/>
      <point x="112" y="0" type="line" smooth="yes"/>
      <point x="55" y="0"/>
      <point x="51" y="4"/>
      <point x="61" y="49" type="curve" smooth="yes"/>
      <point x="257" y="895" type="line" smooth="yes"/>
      <point x="265" y="929"/>
      <point x="258" y="930"/>
      <point x="216" y="930" type="curve" smooth="yes"/>
      <point x="134" y="930" type="line" smooth="yes"/>
      <point x="101" y="930"/>
      <point x="100" y="939"/>
      <point x="100" y="973" type="curve" smooth="yes"/>
      <point x="100" y="1001" type="line" smooth="yes"/>
      <point x="100" y="1034"/>
      <point x="104" y="1040"/>
    </contour>
  </outline>
</glyph>
<glyph name="o" format="2">
  <advance width="1136"/>
  <unicode hex="006F"/>
  <anchor x="629" y="1040" name="Anchor-0"/>
  <anchor x="405" y="0" name="Anchor-2"/>
  <outline>
    <contour>
      <point x="40" y="360" type="curve" smooth="yes"/>
      <point x="40" y="740"/>
      <point x="316" y="1060"/>
      <point x="638" y="1060" type="curve" smooth="yes"/>
      <point x="880" y="1060"/>
      <point x="1036" y="900"/>
      <point x="1036" y="680" type="curve" smooth="yes"/>
      <point x="1036" y="300"/>
      <point x="760" y="-20"/>
      <point x="438" y="-20" type="curve" smooth="yes"/>
      <point x="196" y="-20"/>
      <point x="40" y="140"/>
    </contour>
    <contour>
      <point x="250" y="360" type="curve" smooth="yes"/>
      <point x="250" y="212"/>
      <point x="300" y="70"/>
      <point x="438" y="70" type="curve" smooth="yes"/>
      <point x="656" y="70"/>
      <point x="826" y="372"/>
      <point x="826" y="680" type="curve" smooth="yes"/>
      <point x="826" y="828"/>
      <point x="776" y="970"/>
      <point x="638" y="970" type="curve" smooth="yes"/>
      <point x="420" y="970"/>
      <point x="250" y="668"/>
    </contour>
  </outline>
</glyph>
<glyph name="p" format="2">
  <advance width="1200"/>
  <unicode hex="0070"/>
  <anchor x="859" y="1040" name="Anchor-0"/>
  <anchor x="717" y="0" name="Anchor-2"/>
  <outline>
    <contour>
      <point x="142" y="1040" type="curve" smooth="yes"/>
      <point x="400" y="1040" type="line" smooth="yes"/>
      <point x="451" y="1040"/>
      <point x="453" y="1037"/>
      <point x="443" y="994" type="curve" smooth="yes"/>
      <point x="423" y="911" type="line" smooth="yes"/>
      <point x="410" y="855"/>
      <point x="411" y="841"/>
      <point x="464" y="899" type="curve" smooth="yes"/>
      <point x="551" y="995"/>
      <point x="660" y="1060"/>
      <point x="776" y="1060" type="curve" smooth="yes"/>
      <point x="954" y="1060"/>
      <point x="1100" y="960"/>
      <point x="1100" y="680" type="curve" smooth="yes"/>
      <point x="1100" y="280"/>
      <point x="772" y="-18"/>
      <point x="536" y="-18" type="curve" smooth="yes"/>
      <point x="411" y="-18"/>
      <point x="342" y="39"/>
      <point x="298" y="129" type="curve" smooth="yes"/>
      <point x="268" y="191"/>
      <point x="261" y="194"/>
      <point x="245" y="124" type="curve" smooth="yes"/>
      <point x="114" y="-454" type="line" smooth="yes"/>
      <point x="107" y="-485"/>
      <point x="103" y="-500"/>
      <point x="63" y="-500" type="curve" smooth="yes"/>
      <point x="-42" y="-500" type="line" smooth="yes"/>
      <point x="-78" y="-500"/>
      <point x="-78" y="-491"/>
      <point x="-72" y="-464" type="curve" smooth="yes"/>
      <point x="239" y="878" type="line" smooth="yes"/>
      <point x="247" y="914"/>
      <point x="254" y="930"/>
      <point x="204" y="930" type="curve" smooth="yes"/>
      <point x="128" y="930" type="line" smooth="yes"/>
      <point x="97" y="930"/>
      <point x="96" y="939"/>
      <point x="96" y="970" type="curve" smooth="yes"/>
      <point x="96" y="999" type="line" smooth="yes"/>
      <point x="96" y="1037"/>
      <point x="106" y="1040"/>
    </contour>
    <contour>
      <point x="324" y="400" type="curve" smooth="yes"/>
      <point x="324" y="232"/>
      <point x="358" y="84"/>
      <point x="520" y="84" type="curve" smooth="yes"/>
      <point x="688" y="84"/>
      <point x="900" y="392"/>
      <point x="900" y="680" type="curve" smooth="yes"/>
      <point x="900" y="848"/>
      <point x="848" y="956"/>
      <point x="720" y="956" type="curve" smooth="yes"/>
      <point x="538" y="956"/>
      <point x="324" y="628"/>
    </contour>
  </outline>
</glyph>
<glyph name="q" format="2">
  <advance width="1148"/>
  <unicode hex="0071"/>
  <anchor x="667" y="1040" name="Anchor-0"/>
  <anchor x="355" y="0" name="Anchor-2"/>
  <outline>
    <contour>
      <point x="40" y="360" type="curve" smooth="yes"/>
      <point x="40" y="760"/>
      <point x="386" y="1058"/>
      <point x="604" y="1058" type="curve" smooth="yes"/>
      <point x="735" y="1058"/>
      <point x="803" y="995"/>
      <point x="847" y="898" type="curve" smooth="yes"/>
      <point x="862" y="865"/>
      <point x="872" y="869"/>
      <point x="879" y="900" type="curve" smooth="yes"/>
      <point x="906" y="1014" type="line" smooth="yes"/>
      <point x="911" y="1036"/>
      <point x="920" y="1040"/>
      <point x="948" y="1040" type="curve" smooth="yes"/>
      <point x="1048" y="1040" type="line" smooth="yes"/>
      <point x="1079" y="1040"/>
      <point x="1086" y="1031"/>
      <point x="1081" y="1007" type="curve" smooth="yes"/>
      <point x="772" y="-359" type="line" smooth="yes"/>
      <point x="767" y="-382"/>
      <point x="776" y="-390"/>
      <point x="816" y="-390" type="curve" smooth="yes"/>
      <point x="888" y="-390" type="line" smooth="yes"/>
      <point x="913" y="-390"/>
      <point x="920" y="-394"/>
      <point x="920" y="-418" type="curve" smooth="yes"/>
      <point x="920" y="-458" type="line" smooth="yes"/>
      <point x="920" y="-491"/>
      <point x="919" y="-500"/>
      <point x="886" y="-500" type="curve" smooth="yes"/>
      <point x="614" y="-500" type="line" smooth="yes"/>
      <point x="569" y="-500"/>
      <point x="556" y="-498"/>
      <point x="563" y="-468" type="curve" smooth="yes"/>
      <point x="697" y="108" type="line" smooth="yes"/>
      <point x="705" y="142"/>
      <point x="705" y="157"/>
      <point x="669" y="119" type="curve" smooth="yes"/>
      <point x="589" y="36"/>
      <point x="491" y="-20"/>
      <point x="384" y="-20" type="curve" smooth="yes"/>
      <point x="206" y="-20"/>
      <point x="40" y="80"/>
    </contour>
    <contour>
      <point x="816" y="640" type="curve" smooth="yes"/>
      <point x="816" y="808"/>
      <point x="782" y="956"/>
      <point x="620" y="956" type="curve" smooth="yes"/>
      <point x="452" y="956"/>
      <point x="240" y="648"/>
      <point x="240" y="360" type="curve" smooth="yes"/>
      <point x="240" y="192"/>
      <point x="312" y="84"/>
      <point x="440" y="84" type="curve" smooth="yes"/>
      <point x="622" y="84"/>
      <point x="816" y="412"/>
    </contour>
  </outline>
</glyph>
<glyph name="r" format="2">
  <advance width="946"/>
  <unicode hex="0072"/>
  <anchor x="576" y="1040" name="Anchor-0"/>
  <anchor x="197" y="0" name="Anchor-2"/>
  <outline>
    <contour>
      <point x="147" y="1040" type="curve" smooth="yes"/>
      <point x="409" y="1040" type="line" smooth="yes"/>
      <point x="456" y="1040"/>
      <point x="469" y="1035"/>
      <point x="460" y="998" type="curve" smooth="yes"/>
      <point x="428" y="858" type="line" smooth="yes"/>
      <point x="415" y="802"/>
      <point x="415" y="795"/>
      <point x="455" y="856" type="curve" smooth="yes"/>
      <point x="532" y="973"/>
      <point x="631" y="1060"/>
      <point x="748" y="1060" type="curve" smooth="yes"/>
      <point x="866" y="1060"/>
      <point x="946" y="988"/>
      <point x="946" y="872" type="curve" smooth="yes"/>
      <point x="946" y="788"/>
      <point x="892" y="720"/>
      <point x="822" y="720" type="curve" smooth="yes"/>
      <point x="754" y="720"/>
      <point x="700" y="760"/>
      <point x="700" y="822" type="curve" smooth="yes"/>
      <point x="700" y="910"/>
      <point x="752" y="918"/>
      <point x="752" y="942" type="curve" smooth="yes"/>
      <point x="752" y="956"/>
      <point x="740" y="966"/>
      <point x="718" y="966" type="curve" smooth="yes"/>
      <point x="574" y="966"/>
      <point x="376" y="634"/>
      <point x="326" y="417" type="curve" smooth="yes"/>
      <point x="238" y="34" type="line" smooth="yes"/>
      <point x="231" y="3"/>
      <point x="232" y="0"/>
      <point x="193" y="0" type="curve" smooth="yes"/>
      <point x="91" y="0" type="line" smooth="yes"/>
      <point x="50" y="0"/>
      <point x="53" y="12"/>
      <point x="60" y="42" type="curve" smooth="yes"/>
      <point x="256" y="885" type="line" smooth="yes"/>
      <point x="265" y="926"/>
      <point x="265" y="930"/>
      <point x="215" y="930" type="curve" smooth="yes"/>
      <point x="143" y="930" type="line" smooth="yes"/>
      <point x="111" y="930"/>
      <point x="110" y="939"/>
      <point x="110" y="972" type="curve" smooth="yes"/>
      <point x="110" y="1008" type="line" smooth="yes"/>
      <point x="110" y="1037"/>
      <point x="121" y="1040"/>
    </contour>
  </outline>
</glyph>
<glyph name="s" format="2">
  <advance width="962"/>
  <unicode hex="0073"/>
  <anchor x="591" y="1040" name="Anchor-0"/>
  <anchor x="380" y="0" name="Anchor-2"/>
  <outline>
    <contour>
      <point x="682" y="266" type="curve" smooth="yes"/>
      <point x="682" y="500"/>
      <point x="166" y="468"/>
      <point x="166" y="760" type="curve" smooth="yes"/>
      <point x="166" y="978"/>
      <point x="426" y="1064"/>
      <point x="592" y="1064" type="curve" smooth="yes"/>
      <point x="788" y="1064"/>
      <point x="922" y="974"/>
      <point x="922" y="822" type="curve" smooth="yes"/>
      <point x="922" y="742"/>
      <point x="878" y="694"/>
      <point x="814" y="694" type="curve" smooth="yes"/>
      <point x="750" y="694"/>
      <point x="708" y="730"/>
      <point x="708" y="780" type="curve" smooth="yes"/>
      <point x="708" y="858"/>
      <point x="768" y="852"/>
      <point x="768" y="892" type="curve" smooth="yes"/>
      <point x="768" y="954"/>
      <point x="676" y="974"/>
      <point x="592" y="974" type="curve" smooth="yes"/>
      <point x="466" y="974"/>
      <point x="338" y="924"/>
      <point x="338" y="812" type="curve" smooth="yes"/>
      <point x="338" y="612"/>
      <point x="848" y="650"/>
      <point x="848" y="304" type="curve" smooth="yes"/>
      <point x="848" y="96"/>
      <point x="628" y="-24"/>
      <point x="374" y="-24" type="curve" smooth="yes"/>
      <point x="156" y="-24"/>
      <point x="0" y="92"/>
      <point x="0" y="252" type="curve" smooth="yes"/>
      <point x="0" y="338"/>
      <point x="58" y="406"/>
      <point x="128" y="406" type="curve" smooth="yes"/>
      <point x="188" y="406"/>
      <point x="232" y="368"/>
      <point x="232" y="304" type="curve" smooth="yes"/>
      <point x="232" y="218"/>
      <point x="144" y="230"/>
      <point x="144" y="190" type="curve" smooth="yes"/>
      <point x="144" y="114"/>
      <point x="260" y="68"/>
      <point x="374" y="68" type="curve" smooth="yes"/>
      <point x="574" y="68"/>
      <point x="682" y="164"/>
    </contour>
  </outline>
</glyph>
<glyph name="t" format="2">
  <advance width="730"/>
  <unicode hex="0074"/>
  <anchor x="423" y="1277" name="Anchor-0"/>
  <anchor x="587" y="1153" name="Anchor-1"/>
  <anchor x="265" y="0" name="Anchor-2"/>
  <outline>
    <contour>
      <point x="93" y="1040" type="curve" smooth="yes"/>
      <point x="253" y="1040" type="line" smooth="yes"/>
      <point x="276" y="1040"/>
      <point x="273" y="1045"/>
      <point x="277" y="1063" type="curve" smooth="yes"/>
      <point x="308" y="1196" type="line" smooth="yes"/>
      <point x="314" y="1223"/>
      <point x="316" y="1219"/>
      <point x="344" y="1225" type="curve" smooth="yes"/>
      <point x="384" y="1232"/>
      <point x="424" y="1250"/>
      <point x="448" y="1263" type="curve" smooth="yes"/>
      <point x="467" y="1273"/>
      <point x="471" y="1276"/>
      <point x="488" y="1276" type="curve" smooth="yes"/>
      <point x="505" y="1276"/>
      <point x="506" y="1273"/>
      <point x="502" y="1257" type="curve" smooth="yes"/>
      <point x="457" y="1060" type="line" smooth="yes"/>
      <point x="453" y="1042"/>
      <point x="450" y="1040"/>
      <point x="473" y="1040" type="curve" smooth="yes"/>
      <point x="650" y="1040" type="line" smooth="yes"/>
      <point x="679" y="1040"/>
      <point x="680" y="1037"/>
      <point x="680" y="1007" type="curve" smooth="yes"/>
      <point x="680" y="958" type="line" smooth="yes"/>
      <point x="680" y="930"/>
      <point x="680" y="930"/>
      <point x="652" y="930" type="curve" smooth="yes"/>
      <point x="446" y="930" type="line" smooth="yes"/>
      <point x="426" y="930"/>
      <point x="428" y="927"/>
      <point x="424" y="911" type="curve" smooth="yes"/>
      <point x="266" y="214" type="line" smooth="yes"/>
      <point x="254" y="164"/>
      <point x="230" y="100"/>
      <point x="294" y="100" type="curve" smooth="yes"/>
      <point x="347" y="100"/>
      <point x="408" y="141"/>
      <point x="460" y="208" type="curve" smooth="yes"/>
      <point x="473" y="225"/>
      <point x="482" y="243"/>
      <point x="500" y="236" type="curve" smooth="yes"/>
      <point x="535" y="223" type="line" smooth="yes"/>
      <point x="554" y="216"/>
      <point x="559" y="210"/>
      <point x="546" y="185" type="curve" smooth="yes"/>
      <point x="485" y="70"/>
      <point x="378" y="-24"/>
      <point x="228" y="-24" type="curve" smooth="yes"/>
      <point x="88" y="-24"/>
      <point x="42" y="62"/>
      <point x="66" y="172" type="curve" smooth="yes"/>
      <point x="242" y="907" type="line" smooth="yes"/>
      <point x="247" y="927"/>
      <point x="244" y="930"/>
      <point x="220" y="930" type="curve" smooth="yes"/>
      <point x="89" y="930" type="line" smooth="yes"/>
      <point x="71" y="930"/>
      <point x="70" y="939"/>
      <point x="70" y="958" type="curve" smooth="yes"/>
      <point x="70" y="1010" type="line" smooth="yes"/>
      <point x="70" y="1032"/>
      <point x="72" y="1040"/>
    </contour>
  </outline>
</glyph>
<glyph name="u" format="2">
  <advance width="1370"/>
  <unicode hex="0075"/>
  <anchor x="711" y="1040" name="Anchor-0"/>
  <anchor x="502" y="0" name="Anchor-2"/>
  <anchor x="1032" y="30" name="Anchor-3"/>
  <outline>
    <contour>
      <point x="53" y="746" type="curve" smooth="yes"/>
      <point x="131" y="929"/>
      <point x="262" y="1060"/>
      <point x="396" y="1060" type="curve" smooth="yes"/>
      <point x="508" y="1060"/>
      <point x="563" y="977"/>
      <point x="530" y="856" type="curve" smooth="yes"/>
      <point x="402" y="380" type="line"/>
      <point x="352" y="212"/>
      <point x="332" y="88"/>
      <point x="460" y="88" type="curve" smooth="yes"/>
      <point x="632" y="88"/>
      <point x="872" y="420"/>
      <point x="934" y="687" type="curve" smooth="yes"/>
      <point x="1011" y="1025" type="line" smooth="yes"/>
      <point x="1014" y="1037"/>
      <point x="1020" y="1040"/>
      <point x="1036" y="1040" type="curve" smooth="yes"/>
      <point x="1177" y="1040" type="line" smooth="yes"/>
      <point x="1197" y="1040"/>
      <point x="1198" y="1039"/>
      <point x="1194" y="1023" type="curve" smooth="yes"/>
      <point x="992" y="178" type="line" smooth="yes"/>
      <point x="984" y="143"/>
      <point x="984" y="104"/>
      <point x="1024" y="104" type="curve" smooth="yes"/>
      <point x="1086" y="104"/>
      <point x="1170" y="200"/>
      <point x="1220" y="316" type="curve" smooth="yes"/>
      <point x="1233" y="346"/>
      <point x="1229" y="353"/>
      <point x="1262" y="342" type="curve" smooth="yes"/>
      <point x="1283" y="335" type="line" smooth="yes"/>
      <point x="1319" y="323"/>
      <point x="1304" y="311"/>
      <point x="1291" y="281" type="curve" smooth="yes"/>
      <point x="1212" y="104"/>
      <point x="1085" y="-20"/>
      <point x="954" y="-20" type="curve" smooth="yes"/>
      <point x="845" y="-20"/>
      <point x="786" y="52"/>
      <point x="816" y="170" type="curve" smooth="yes"/>
      <point x="844" y="280" type="line" smooth="yes"/>
      <point x="852" y="310"/>
      <point x="842" y="312"/>
      <point x="832" y="293" type="curve" smooth="yes"/>
      <point x="728" y="99"/>
      <point x="582" y="-18"/>
      <point x="434" y="-18" type="curve" smooth="yes"/>
      <point x="256" y="-18"/>
      <point x="152" y="78"/>
      <point x="222" y="358" type="curve"/>
      <point x="354" y="848" type="line" smooth="yes"/>
      <point x="364" y="887"/>
      <point x="373" y="936"/>
      <point x="326" y="936" type="curve" smooth="yes"/>
      <point x="264" y="936"/>
      <point x="180" y="841"/>
      <point x="130" y="725" type="curve" smooth="yes"/>
      <point x="120" y="701"/>
      <point x="118" y="687"/>
      <point x="90" y="697" type="curve" smooth="yes"/>
      <point x="62" y="706" type="line" smooth="yes"/>
      <point x="35" y="715"/>
      <point x="43" y="722"/>
    </contour>
  </outline>
</glyph>
<glyph name="v" format="2">
  <advance width="1022"/>
  <unicode hex="0076"/>
  <anchor x="595" y="1040" name="Anchor-0"/>
  <anchor x="347" y="0" name="Anchor-2"/>
  <outline>
    <contour>
      <point x="730" y="846" type="curve" smooth="yes"/>
      <point x="680" y="846"/>
      <point x="642" y="890"/>
      <point x="642" y="946" type="curve" smooth="yes"/>
      <point x="642" y="1006"/>
      <point x="700" y="1058"/>
      <point x="768" y="1058" type="curve" smooth="yes"/>
      <point x="888" y="1058"/>
      <point x="982" y="950"/>
      <point x="982" y="768" type="curve" smooth="yes"/>
      <point x="982" y="475"/>
      <point x="609" y="162"/>
      <point x="247" y="-12" type="curve" smooth="yes"/>
      <point x="224" y="-23"/>
      <point x="220" y="-23"/>
      <point x="198" y="-11" type="curve" smooth="yes"/>
      <point x="148" y="17" type="line" smooth="yes"/>
      <point x="133" y="25"/>
      <point x="136" y="31"/>
      <point x="140" y="52" type="curve" smooth="yes"/>
      <point x="150" y="104"/>
      <point x="174" y="187"/>
      <point x="174" y="220" type="curve" smooth="yes"/>
      <point x="174" y="414"/>
      <point x="40" y="578"/>
      <point x="40" y="766" type="curve" smooth="yes"/>
      <point x="40" y="912"/>
      <point x="181" y="1004"/>
      <point x="282" y="1056" type="curve" smooth="yes"/>
      <point x="309" y="1070"/>
      <point x="309" y="1071"/>
      <point x="324" y="1046" type="curve" smooth="yes"/>
      <point x="334" y="1030" type="line" smooth="yes"/>
      <point x="346" y="1010"/>
      <point x="354" y="1006"/>
      <point x="333" y="992" type="curve" smooth="yes"/>
      <point x="291" y="964"/>
      <point x="240" y="911"/>
      <point x="240" y="826" type="curve" smooth="yes"/>
      <point x="240" y="640"/>
      <point x="358" y="562"/>
      <point x="358" y="274" type="curve" smooth="yes"/>
      <point x="358" y="252"/>
      <point x="357" y="215"/>
      <point x="351" y="181" type="curve" smooth="yes"/>
      <point x="347" y="158"/>
      <point x="356" y="153"/>
      <point x="380" y="169" type="curve" smooth="yes"/>
      <point x="668" y="360"/>
      <point x="878" y="580"/>
      <point x="878" y="766" type="curve" smooth="yes"/>
      <point x="878" y="870"/>
      <point x="862" y="886"/>
      <point x="842" y="886" type="curve" smooth="yes"/>
      <point x="810" y="886"/>
      <point x="794" y="846"/>
    </contour>
  </outline>
</glyph>
<glyph name="w" format="2">
  <advance width="1764"/>
  <unicode hex="0077"/>
  <anchor x="1088" y="1040" name="Anchor-0"/>
  <anchor x="717" y="0" name="Anchor-2"/>
  <outline>
    <contour>
      <point x="78" y="758" type="curve" smooth="yes"/>
      <point x="157" y="935"/>
      <point x="285" y="1060"/>
      <point x="416" y="1060" type="curve" smooth="yes"/>
      <point x="510" y="1060"/>
      <point x="558" y="1014"/>
      <point x="558" y="914" type="curve" smooth="yes"/>
      <point x="558" y="904"/>
      <point x="555" y="873"/>
      <point x="550" y="856" type="curve" smooth="yes"/>
      <point x="422" y="380" type="line" smooth="yes"/>
      <point x="376" y="211"/>
      <point x="392" y="84"/>
      <point x="520" y="84" type="curve" smooth="yes"/>
      <point x="688" y="84"/>
      <point x="824" y="304"/>
      <point x="874" y="520" type="curve" smooth="yes"/>
      <point x="986" y="1007" type="line" smooth="yes"/>
      <point x="993" y="1038"/>
      <point x="1003" y="1040"/>
      <point x="1042" y="1040" type="curve" smooth="yes"/>
      <point x="1124" y="1040" type="line" smooth="yes"/>
      <point x="1173" y="1040"/>
      <point x="1174" y="1036"/>
      <point x="1165" y="995" type="curve" smooth="yes"/>
      <point x="1022" y="378" type="line" smooth="yes"/>
      <point x="982" y="210"/>
      <point x="1008" y="86"/>
      <point x="1136" y="86" type="curve" smooth="yes"/>
      <point x="1420" y="86"/>
      <point x="1594" y="590"/>
      <point x="1594" y="766" type="curve" smooth="yes"/>
      <point x="1594" y="810"/>
      <point x="1592" y="838"/>
      <point x="1572" y="838" type="curve" smooth="yes"/>
      <point x="1558" y="838"/>
      <point x="1574" y="826"/>
      <point x="1506" y="826" type="curve" smooth="yes"/>
      <point x="1452" y="826"/>
      <point x="1408" y="870"/>
      <point x="1408" y="940" type="curve" smooth="yes"/>
      <point x="1408" y="1012"/>
      <point x="1460" y="1058"/>
      <point x="1542" y="1058" type="curve" smooth="yes"/>
      <point x="1638" y="1058"/>
      <point x="1708" y="988"/>
      <point x="1708" y="786" type="curve" smooth="yes"/>
      <point x="1708" y="566"/>
      <point x="1528" y="-20"/>
      <point x="1118" y="-20" type="curve" smooth="yes"/>
      <point x="990" y="-20"/>
      <point x="899" y="30"/>
      <point x="858" y="163" type="curve" smooth="yes"/>
      <point x="843" y="213"/>
      <point x="831" y="212"/>
      <point x="798" y="165" type="curve" smooth="yes"/>
      <point x="717" y="49"/>
      <point x="611" y="-18"/>
      <point x="494" y="-18" type="curve" smooth="yes"/>
      <point x="316" y="-18"/>
      <point x="167" y="79"/>
      <point x="242" y="358" type="curve" smooth="yes"/>
      <point x="374" y="848" type="line" smooth="yes"/>
      <point x="379" y="867"/>
      <point x="382" y="888"/>
      <point x="382" y="898" type="curve" smooth="yes"/>
      <point x="382" y="920"/>
      <point x="372" y="936"/>
      <point x="346" y="936" type="curve" smooth="yes"/>
      <point x="284" y="936"/>
      <point x="200" y="841"/>
      <point x="150" y="725" type="curve" smooth="yes"/>
      <point x="137" y="695"/>
      <point x="139" y="687"/>
      <point x="105" y="698" type="curve" smooth="yes"/>
      <point x="81" y="707" type="line" smooth="yes"/>
      <point x="56" y="715"/>
      <point x="69" y="738"/>
    </contour>
  </outline>
</glyph>
<glyph name="x" format="2">
  <advance width="1148"/>
  <unicode hex="0078"/>
  <anchor x="656" y="1040" name="Anchor-0"/>
  <anchor x="407" y="0" name="Anchor-2"/>
  <outline>
    <contour>
      <point x="-120" y="162" type="curve" smooth="yes"/>
      <point x="-120" y="230"/>
      <point x="-74" y="272"/>
      <point x="-14" y="272" type="curve" smooth="yes"/>
      <point x="42" y="272"/>
      <point x="82" y="234"/>
      <point x="82" y="184" type="curve" smooth="yes"/>
      <point x="82" y="120"/>
      <point x="44" y="116"/>
      <point x="44" y="84" type="curve" smooth="yes"/>
      <point x="44" y="64"/>
      <point x="58" y="60"/>
      <point x="82" y="60" type="curve" smooth="yes"/>
      <point x="180" y="60"/>
      <point x="326" y="308"/>
      <point x="439" y="498" type="curve" smooth="yes"/>
      <point x="468" y="547"/>
      <point x="459" y="573"/>
      <point x="443" y="634" type="curve" smooth="yes"/>
      <point x="414" y="744"/>
      <point x="386" y="843"/>
      <point x="366" y="899" type="curve" smooth="yes"/>
      <point x="358" y="920"/>
      <point x="349" y="946"/>
      <point x="312" y="946" type="curve" smooth="yes"/>
      <point x="273" y="946"/>
      <point x="222" y="908"/>
      <point x="185" y="814" type="curve" smooth="yes"/>
      <point x="176" y="791"/>
      <point x="177" y="790"/>
      <point x="153" y="799" type="curve" smooth="yes"/>
      <point x="124" y="811" type="line" smooth="yes"/>
      <point x="101" y="820"/>
      <point x="109" y="827"/>
      <point x="118" y="848" type="curve" smooth="yes"/>
      <point x="181" y="1005"/>
      <point x="255" y="1064"/>
      <point x="372" y="1064" type="curve" smooth="yes"/>
      <point x="487" y="1064"/>
      <point x="540" y="993"/>
      <point x="566" y="897" type="curve" smooth="yes"/>
      <point x="574" y="869"/>
      <point x="582" y="836"/>
      <point x="591" y="800" type="curve" smooth="yes"/>
      <point x="609" y="725"/>
      <point x="609" y="743"/>
      <point x="642" y="796" type="curve" smooth="yes"/>
      <point x="729" y="938"/>
      <point x="822" y="1060"/>
      <point x="950" y="1060" type="curve" smooth="yes"/>
      <point x="1092" y="1060"/>
      <point x="1148" y="982"/>
      <point x="1148" y="878" type="curve" smooth="yes"/>
      <point x="1148" y="810"/>
      <point x="1102" y="768"/>
      <point x="1042" y="768" type="curve" smooth="yes"/>
      <point x="986" y="768"/>
      <point x="946" y="806"/>
      <point x="946" y="856" type="curve" smooth="yes"/>
      <point x="946" y="920"/>
      <point x="984" y="924"/>
      <point x="984" y="956" type="curve" smooth="yes"/>
      <point x="984" y="976"/>
      <point x="970" y="980"/>
      <point x="946" y="980" type="curve" smooth="yes"/>
      <point x="849" y="980"/>
      <point x="760" y="824"/>
      <point x="663" y="660" type="curve" smooth="yes"/>
      <point x="641" y="623"/>
      <point x="637" y="611"/>
      <point x="649" y="562" type="curve" smooth="yes"/>
      <point x="687" y="409"/>
      <point x="727" y="251"/>
      <point x="766" y="145" type="curve" smooth="yes"/>
      <point x="774" y="124"/>
      <point x="799" y="98"/>
      <point x="826" y="98" type="curve" smooth="yes"/>
      <point x="851" y="98"/>
      <point x="904" y="132"/>
      <point x="942" y="218" type="curve" smooth="yes"/>
      <point x="953" y="242"/>
      <point x="949" y="257"/>
      <point x="976" y="244" type="curve" smooth="yes"/>
      <point x="999" y="232" type="line" smooth="yes"/>
      <point x="1028" y="217"/>
      <point x="1028" y="216"/>
      <point x="1015" y="185" type="curve" smooth="yes"/>
      <point x="950" y="31"/>
      <point x="865" y="-20"/>
      <point x="768" y="-20" type="curve" smooth="yes"/>
      <point x="653" y="-20"/>
      <point x="592" y="51"/>
      <point x="566" y="147" type="curve" smooth="yes"/>
      <point x="552" y="200"/>
      <point x="533" y="278"/>
      <point x="511" y="364" type="curve" smooth="yes"/>
      <point x="494" y="431"/>
      <point x="494" y="420"/>
      <point x="465" y="370" type="curve" smooth="yes"/>
      <point x="356" y="185"/>
      <point x="220" y="-20"/>
      <point x="58" y="-20" type="curve" smooth="yes"/>
      <point x="-64" y="-20"/>
      <point x="-120" y="58"/>
    </contour>
  </outline>
</glyph>
<glyph name="y" format="2">
  <advance width="1350"/>
  <unicode hex="0079"/>
  <anchor x="735" y="1040" name="Anchor-0"/>
  <anchor x="66" y="-565" name="Anchor-2"/>
  <outline>
    <contour>
      <point x="1066" y="828" type="curve" smooth="yes"/>
      <point x="996" y="828"/>
      <point x="958" y="866"/>
      <point x="958" y="942" type="curve" smooth="yes"/>
      <point x="958" y="1002"/>
      <point x="1000" y="1078"/>
      <point x="1108" y="1078" type="curve" smooth="yes"/>
      <point x="1244" y="1078"/>
      <point x="1290" y="992"/>
      <point x="1290" y="870" type="curve" smooth="yes"/>
      <point x="1290" y="530"/>
      <point x="590" y="-520"/>
      <point x="100" y="-520" type="curve" smooth="yes"/>
      <point x="-74" y="-520"/>
      <point x="-160" y="-416"/>
      <point x="-160" y="-282" type="curve" smooth="yes"/>
      <point x="-160" y="-190"/>
      <point x="-102" y="-116"/>
      <point x="-24" y="-116" type="curve" smooth="yes"/>
      <point x="36" y="-116"/>
      <point x="76" y="-152"/>
      <point x="76" y="-214" type="curve" smooth="yes"/>
      <point x="76" y="-290"/>
      <point x="-8" y="-280"/>
      <point x="-8" y="-332" type="curve" smooth="yes"/>
      <point x="-8" y="-378"/>
      <point x="14" y="-410"/>
      <point x="100" y="-410" type="curve" smooth="yes"/>
      <point x="224" y="-410"/>
      <point x="368" y="-323"/>
      <point x="509" y="-195" type="curve" smooth="yes"/>
      <point x="551" y="-157"/>
      <point x="550" y="-154"/>
      <point x="531" y="-92" type="curve" smooth="yes"/>
      <point x="444" y="191"/>
      <point x="366" y="777"/>
      <point x="320" y="899" type="curve" smooth="yes"/>
      <point x="312" y="920"/>
      <point x="305" y="944"/>
      <point x="270" y="944" type="curve" smooth="yes"/>
      <point x="245" y="944"/>
      <point x="191" y="909"/>
      <point x="153" y="822" type="curve" smooth="yes"/>
      <point x="143" y="798"/>
      <point x="146" y="786"/>
      <point x="119" y="796" type="curve" smooth="yes"/>
      <point x="91" y="807" type="line" smooth="yes"/>
      <point x="58" y="820"/>
      <point x="64" y="825"/>
      <point x="77" y="856" type="curve" smooth="yes"/>
      <point x="140" y="1007"/>
      <point x="217" y="1064"/>
      <point x="332" y="1064" type="curve" smooth="yes"/>
      <point x="447" y="1064"/>
      <point x="499" y="1010"/>
      <point x="528" y="915" type="curve" smooth="yes"/>
      <point x="572" y="768"/>
      <point x="599" y="332"/>
      <point x="678" y="70" type="curve" smooth="yes"/>
      <point x="701" y="-8"/>
      <point x="706" y="11"/>
      <point x="747" y="62" type="curve" smooth="yes"/>
      <point x="985" y="357"/>
      <point x="1172" y="703"/>
      <point x="1172" y="818" type="curve" smooth="yes"/>
      <point x="1172" y="850"/>
      <point x="1168" y="860"/>
      <point x="1152" y="860" type="curve" smooth="yes"/>
      <point x="1128" y="860"/>
      <point x="1134" y="828"/>
    </contour>
  </outline>
</glyph>
<glyph name="z" format="2">
  <advance width="1040"/>
  <unicode hex="007A"/>
  <anchor x="599" y="1040" name="Anchor-0"/>
  <anchor x="389" y="0" name="Anchor-2"/>
  <outline>
    <contour>
      <point x="106" y="832" type="curve" smooth="yes"/>
      <point x="179" y="941"/>
      <point x="302" y="1060"/>
      <point x="444" y="1060" type="curve" smooth="yes"/>
      <point x="632" y="1060"/>
      <point x="644" y="942"/>
      <point x="756" y="942" type="curve" smooth="yes"/>
      <point x="840" y="942"/>
      <point x="956" y="999"/>
      <point x="1026" y="1043" type="curve" smooth="yes"/>
      <point x="1047" y="1056"/>
      <point x="1049" y="1064"/>
      <point x="1065" y="1044" type="curve" smooth="yes"/>
      <point x="1085" y="1019" type="line" smooth="yes"/>
      <point x="1100" y="1001"/>
      <point x="1100" y="1000"/>
      <point x="1083" y="984" type="curve" smooth="yes"/>
      <point x="275" y="227" type="line" smooth="yes"/>
      <point x="247" y="201"/>
      <point x="222" y="179"/>
      <point x="229" y="172" type="curve" smooth="yes"/>
      <point x="237" y="165"/>
      <point x="247" y="182"/>
      <point x="295" y="195" type="curve" smooth="yes"/>
      <point x="356" y="212"/>
      <point x="406" y="220"/>
      <point x="444" y="220" type="curve" smooth="yes"/>
      <point x="552" y="220"/>
      <point x="624" y="154"/>
      <point x="696" y="154" type="curve" smooth="yes"/>
      <point x="770" y="154"/>
      <point x="842" y="214"/>
      <point x="890" y="279" type="curve" smooth="yes"/>
      <point x="902" y="296"/>
      <point x="903" y="310"/>
      <point x="921" y="296" type="curve" smooth="yes"/>
      <point x="955" y="269" type="line" smooth="yes"/>
      <point x="977" y="252"/>
      <point x="982" y="252"/>
      <point x="966" y="227" type="curve" smooth="yes"/>
      <point x="892" y="113"/>
      <point x="746" y="-20"/>
      <point x="596" y="-20" type="curve" smooth="yes"/>
      <point x="448" y="-20"/>
      <point x="356" y="78"/>
      <point x="264" y="78" type="curve" smooth="yes"/>
      <point x="176" y="78"/>
      <point x="39" y="33"/>
      <point x="-33" y="-8" type="curve" smooth="yes"/>
      <point x="-54" y="-20"/>
      <point x="-53" y="-18"/>
      <point x="-68" y="0" type="curve" smooth="yes"/>
      <point x="-88" y="25" type="line" smooth="yes"/>
      <point x="-103" y="44"/>
      <point x="-94" y="46"/>
      <point x="-77" y="62" type="curve" smooth="yes"/>
      <point x="719" y="808" type="line" smooth="yes"/>
      <point x="740" y="828"/>
      <point x="759" y="839"/>
      <point x="755" y="846" type="curve" smooth="yes"/>
      <point x="751" y="852"/>
      <point x="737" y="836"/>
      <point x="703" y="825" type="curve" smooth="yes"/>
      <point x="674" y="815"/>
      <point x="646" y="810"/>
      <point x="616" y="810" type="curve" smooth="yes"/>
      <point x="488" y="810"/>
      <point x="458" y="896"/>
      <point x="346" y="896" type="curve" smooth="yes"/>
      <point x="283" y="896"/>
      <point x="225" y="843"/>
      <point x="182" y="784" type="curve" smooth="yes"/>
      <point x="159" y="753"/>
      <point x="162" y="746"/>
      <point x="126" y="765" type="curve" smooth="yes"/>
      <point x="98" y="780" type="line" smooth="yes"/>
      <point x="71" y="794"/>
      <point x="91" y="809"/>
    </contour>
  </outline>
</glyph>
<glyph name="braceleft" format="2">
  <advance width="544"/>
  <unicode hex="007B"/>
  <outline>
    <contour>
      <point x="272" y="-300" type="curve" smooth="yes"/>
      <point x="8" y="-294"/>
      <point x="-70" y="-211"/>
      <point x="-70" y="-20" type="curve" smooth="yes"/>
      <point x="-70" y="214"/>
      <point x="170" y="344"/>
      <point x="170" y="470" type="curve" smooth="yes"/>
      <point x="170" y="543"/>
      <point x="154" y="558"/>
      <point x="108" y="574" type="curve" smooth="yes"/>
      <point x="90" y="580"/>
      <point x="90" y="593"/>
      <point x="90" y="617" type="curve" smooth="yes"/>
      <point x="90" y="661" type="line" smooth="yes"/>
      <point x="90" y="686"/>
      <point x="98" y="683"/>
      <point x="116" y="689" type="curve" smooth="yes"/>
      <point x="178" y="709"/>
      <point x="262" y="741"/>
      <point x="262" y="812" type="curve" smooth="yes"/>
      <point x="262" y="938"/>
      <point x="210" y="988"/>
      <point x="210" y="1202" type="curve" smooth="yes"/>
      <point x="210" y="1375"/>
      <point x="309" y="1551"/>
      <point x="618" y="1560" type="curve" smooth="yes"/>
      <point x="637" y="1561"/>
      <point x="644" y="1554"/>
      <point x="644" y="1533" type="curve" smooth="yes"/>
      <point x="644" y="1496" type="line" smooth="yes"/>
      <point x="644" y="1470"/>
      <point x="647" y="1467"/>
      <point x="622" y="1465" type="curve" smooth="yes"/>
      <point x="506" y="1458"/>
      <point x="396" y="1394"/>
      <point x="396" y="1294" type="curve" smooth="yes"/>
      <point x="396" y="1162"/>
      <point x="444" y="1142"/>
      <point x="444" y="942" type="curve" smooth="yes"/>
      <point x="444" y="793"/>
      <point x="389" y="700"/>
      <point x="286" y="643" type="curve" smooth="yes"/>
      <point x="236" y="615"/>
      <point x="256" y="609"/>
      <point x="271" y="585" type="curve" smooth="yes"/>
      <point x="292" y="551"/>
      <point x="304" y="507"/>
      <point x="304" y="440" type="curve" smooth="yes"/>
      <point x="304" y="240"/>
      <point x="116" y="100"/>
      <point x="116" y="-32" type="curve" smooth="yes"/>
      <point x="116" y="-150"/>
      <point x="172" y="-199"/>
      <point x="280" y="-205" type="curve" smooth="yes"/>
      <point x="302" y="-206"/>
      <point x="304" y="-207"/>
      <point x="304" y="-231" type="curve" smooth="yes"/>
      <point x="304" y="-272" type="line" smooth="yes"/>
      <point x="304" y="-299"/>
      <point x="297" y="-301"/>
    </contour>
  </outline>
</glyph>
<glyph name="bar" format="2">
  <advance width="600"/>
  <unicode hex="007C"/>
  <outline>
    <contour>
      <point x="429" y="1560" type="curve" smooth="yes"/>
      <point x="511" y="1560" type="line" smooth="yes"/>
      <point x="556" y="1560"/>
      <point x="560" y="1555"/>
      <point x="551" y="1512" type="curve" smooth="yes"/>
      <point x="133" y="-454" type="line" smooth="yes"/>
      <point x="126" y="-486"/>
      <point x="122" y="-500"/>
      <point x="87" y="-500" type="curve" smooth="yes"/>
      <point x="-9" y="-500" type="line" smooth="yes"/>
      <point x="-50" y="-500"/>
      <point x="-55" y="-495"/>
      <point x="-47" y="-456" type="curve" smooth="yes"/>
      <point x="370" y="1506" type="line" smooth="yes"/>
      <point x="380" y="1551"/>
      <point x="384" y="1560"/>
    </contour>
  </outline>
</glyph>
<glyph name="cent" format="2">
  <advance width="1096"/>
  <unicode hex="00A2"/>
  <outline>
    <contour>
      <point x="735" y="1230" type="curve" smooth="yes"/>
      <point x="795" y="1230" type="line" smooth="yes"/>
      <point x="816" y="1230"/>
      <point x="823" y="1224"/>
      <point x="816" y="1205" type="curve" smooth="yes"/>
      <point x="333" y="-146" type="line" smooth="yes"/>
      <point x="327" y="-163"/>
      <point x="322" y="-170"/>
      <point x="303" y="-170" type="curve" smooth="yes"/>
      <point x="249" y="-170" type="line" smooth="yes"/>
      <point x="227" y="-170"/>
      <point x="219" y="-163"/>
      <point x="225" y="-147" type="curve" smooth="yes"/>
      <point x="708" y="1216" type="line" smooth="yes"/>
      <point x="712" y="1228"/>
      <point x="720" y="1230"/>
    </contour>
    <component base="c"/>
  </outline>
</glyph>
<glyph name="sterling" format="2">
  <advance width="1270"/>
  <unicode hex="00A3"/>
  <outline>
    <contour>
      <point x="-50" y="-7" type="curve" smooth="yes"/>
      <point x="-7" y="251"/>
      <point x="293" y="399"/>
      <point x="319" y="522" type="curve" smooth="yes"/>
      <point x="335" y="598"/>
      <point x="329" y="660"/>
      <point x="283" y="660" type="curve" smooth="yes"/>
      <point x="26" y="660" type="line" smooth="yes"/>
      <point x="0" y="660"/>
      <point x="-4" y="669"/>
      <point x="-3" y="696" type="curve" smooth="yes"/>
      <point x="-3" y="740" type="line" smooth="yes"/>
      <point x="-2" y="765"/>
      <point x="12" y="770"/>
      <point x="36" y="770" type="curve" smooth="yes"/>
      <point x="273" y="770" type="line" smooth="yes"/>
      <point x="323" y="770"/>
      <point x="307" y="784"/>
      <point x="299" y="813" type="curve" smooth="yes"/>
      <point x="277" y="899"/>
      <point x="256" y="986"/>
      <point x="280" y="1100" type="curve" smooth="yes"/>
      <point x="340" y="1380"/>
      <point x="579" y="1520"/>
      <point x="901" y="1520" type="curve" smooth="yes"/>
      <point x="1205" y="1520"/>
      <point x="1323" y="1376"/>
      <point x="1288" y="1212" type="curve" smooth="yes"/>
      <point x="1268" y="1116"/>
      <point x="1190" y="1080"/>
      <point x="1132" y="1080" type="curve" smooth="yes"/>
      <point x="1078" y="1080"/>
      <point x="1026" y="1122"/>
      <point x="1042" y="1196" type="curve" smooth="yes"/>
      <point x="1057" y="1268"/>
      <point x="1123" y="1278"/>
      <point x="1133" y="1324" type="curve" smooth="yes"/>
      <point x="1144" y="1378"/>
      <point x="1031" y="1436"/>
      <point x="883" y="1436" type="curve" smooth="yes"/>
      <point x="645" y="1436"/>
      <point x="537" y="1268"/>
      <point x="506" y="1120" type="curve" smooth="yes"/>
      <point x="480" y="998"/>
      <point x="502" y="901"/>
      <point x="515" y="809" type="curve" smooth="yes"/>
      <point x="520" y="772"/>
      <point x="521" y="770"/>
      <point x="571" y="770" type="curve" smooth="yes"/>
      <point x="853" y="770" type="line" smooth="yes"/>
      <point x="880" y="770"/>
      <point x="884" y="770"/>
      <point x="884" y="743" type="curve" smooth="yes"/>
      <point x="885" y="682" type="line" smooth="yes"/>
      <point x="885" y="666"/>
      <point x="874" y="660"/>
      <point x="856" y="660" type="curve" smooth="yes"/>
      <point x="551" y="660" type="line" smooth="yes"/>
      <point x="524" y="660"/>
      <point x="519" y="654"/>
      <point x="514" y="629" type="curve" smooth="yes"/>
      <point x="465" y="402"/>
      <point x="319" y="341"/>
      <point x="194" y="223" type="curve" smooth="yes"/>
      <point x="164" y="195"/>
      <point x="109" y="155"/>
      <point x="125" y="143" type="curve" smooth="yes"/>
      <point x="132" y="138"/>
      <point x="154" y="171"/>
      <point x="205" y="184" type="curve" smooth="yes"/>
      <point x="231" y="191"/>
      <point x="261" y="194"/>
      <point x="295" y="194" type="curve" smooth="yes"/>
      <point x="495" y="194"/>
      <point x="561" y="126"/>
      <point x="713" y="126" type="curve" smooth="yes"/>
      <point x="832" y="126"/>
      <point x="946" y="183"/>
      <point x="981" y="294" type="curve" smooth="yes"/>
      <point x="987" y="314"/>
      <point x="986" y="314"/>
      <point x="1008" y="314" type="curve" smooth="yes"/>
      <point x="1059" y="314" type="line" smooth="yes"/>
      <point x="1083" y="314"/>
      <point x="1078" y="300"/>
      <point x="1073" y="280" type="curve" smooth="yes"/>
      <point x="1005" y="17"/>
      <point x="832" y="-60"/>
      <point x="661" y="-60" type="curve" smooth="yes"/>
      <point x="387" y="-60"/>
      <point x="323" y="60"/>
      <point x="197" y="60" type="curve" smooth="yes"/>
      <point x="127" y="60"/>
      <point x="89" y="31"/>
      <point x="59" y="-15" type="curve" smooth="yes"/>
      <point x="50" y="-28"/>
      <point x="49" y="-40"/>
      <point x="29" y="-40" type="curve" smooth="yes"/>
      <point x="-37" y="-40" type="line" smooth="yes"/>
      <point x="-61" y="-40"/>
      <point x="-53" y="-27"/>
    </contour>
  </outline>
</glyph>
<glyph name="currency" format="2">
  <advance width="1140"/>
  <unicode hex="00A4"/>
  <outline>
    <contour>
      <point x="14" y="248" type="line"/>
      <point x="-44" y="321" type="line"/>
      <point x="148" y="479" type="line"/>
      <point x="97" y="563"/>
      <point x="91" y="653"/>
      <point x="116" y="770" type="curve" smooth="yes"/>
      <point x="141" y="887"/>
      <point x="185" y="977"/>
      <point x="272" y="1061" type="curve"/>
      <point x="147" y="1219" type="line"/>
      <point x="236" y="1292" type="line"/>
      <point x="360" y="1134" type="line"/>
      <point x="445" y="1196"/>
      <point x="542" y="1229"/>
      <point x="672" y="1229" type="curve" smooth="yes"/>
      <point x="802" y="1229"/>
      <point x="883" y="1196"/>
      <point x="943" y="1135" type="curve"/>
      <point x="1134" y="1292" type="line"/>
      <point x="1191" y="1219" type="line"/>
      <point x="1000" y="1061" type="line"/>
      <point x="1051" y="977"/>
      <point x="1057" y="887"/>
      <point x="1032" y="770" type="curve" smooth="yes"/>
      <point x="1007" y="654"/>
      <point x="964" y="563"/>
      <point x="877" y="478" type="curve"/>
      <point x="1000" y="321" type="line"/>
      <point x="912" y="248" type="line"/>
      <point x="788" y="405" type="line"/>
      <point x="703" y="344"/>
      <point x="606" y="310"/>
      <point x="477" y="310" type="curve" smooth="yes"/>
      <point x="347" y="310"/>
      <point x="263" y="344"/>
      <point x="204" y="405" type="curve"/>
    </contour>
    <contour>
      <point x="503" y="433" type="curve" smooth="yes"/>
      <point x="706" y="433"/>
      <point x="860" y="571"/>
      <point x="902" y="770" type="curve" smooth="yes"/>
      <point x="944" y="969"/>
      <point x="848" y="1107"/>
      <point x="646" y="1107" type="curve" smooth="yes"/>
      <point x="443" y="1107"/>
      <point x="288" y="969"/>
      <point x="246" y="770" type="curve" smooth="yes"/>
      <point x="204" y="571"/>
      <point x="301" y="433"/>
    </contour>
  </outline>
</glyph>
<glyph name="section" format="2">
  <advance width="1068"/>
  <unicode hex="00A7"/>
  <outline>
    <contour>
      <point x="834" y="1316" type="curve" smooth="yes"/>
      <point x="848" y="1382"/>
      <point x="731" y="1418"/>
      <point x="627" y="1418" type="curve" smooth="yes"/>
      <point x="501" y="1418"/>
      <point x="380" y="1362"/>
      <point x="360" y="1268" type="curve" smooth="yes"/>
      <point x="311" y="1036"/>
      <point x="1004" y="1076"/>
      <point x="935" y="750" type="curve" smooth="yes"/>
      <point x="914" y="653"/>
      <point x="854" y="564"/>
      <point x="745" y="494" type="curve"/>
      <point x="806" y="447"/>
      <point x="841" y="382"/>
      <point x="820" y="284" type="curve" smooth="yes"/>
      <point x="776" y="76"/>
      <point x="536" y="-20"/>
      <point x="326" y="-20" type="curve" smooth="yes"/>
      <point x="110" y="-20"/>
      <point x="-104" y="64"/>
      <point x="-55" y="296" type="curve" smooth="yes"/>
      <point x="-35" y="392"/>
      <point x="47" y="448"/>
      <point x="105" y="448" type="curve" smooth="yes"/>
      <point x="159" y="448"/>
      <point x="211" y="406"/>
      <point x="195" y="332" type="curve" smooth="yes"/>
      <point x="180" y="260"/>
      <point x="113" y="250"/>
      <point x="103" y="204" type="curve" smooth="yes"/>
      <point x="89" y="138"/>
      <point x="241" y="82"/>
      <point x="345" y="82" type="curve" smooth="yes"/>
      <point x="471" y="82"/>
      <point x="633" y="138"/>
      <point x="653" y="232" type="curve" smooth="yes"/>
      <point x="702" y="464"/>
      <point x="-12" y="424"/>
      <point x="57" y="750" type="curve" smooth="yes"/>
      <point x="86" y="885"/>
      <point x="157" y="940"/>
      <point x="267" y="1006" type="curve"/>
      <point x="206" y="1053"/>
      <point x="171" y="1118"/>
      <point x="192" y="1216" type="curve" smooth="yes"/>
      <point x="236" y="1424"/>
      <point x="437" y="1520"/>
      <point x="627" y="1520" type="curve" smooth="yes"/>
      <point x="843" y="1520"/>
      <point x="1037" y="1436"/>
      <point x="992" y="1224" type="curve" smooth="yes"/>
      <point x="972" y="1128"/>
      <point x="890" y="1072"/>
      <point x="832" y="1072" type="curve" smooth="yes"/>
      <point x="778" y="1072"/>
      <point x="727" y="1114"/>
      <point x="743" y="1188" type="curve" smooth="yes"/>
      <point x="758" y="1260"/>
      <point x="824" y="1270"/>
    </contour>
    <contour>
      <point x="339" y="963" type="curve"/>
      <point x="317" y="932"/>
      <point x="277" y="879"/>
      <point x="263" y="814" type="curve" smooth="yes"/>
      <point x="228" y="649"/>
      <point x="488" y="626"/>
      <point x="667" y="541" type="curve"/>
      <point x="711" y="583"/>
      <point x="739" y="635"/>
      <point x="750" y="686" type="curve" smooth="yes"/>
      <point x="785" y="853"/>
      <point x="517" y="875"/>
    </contour>
  </outline>
</glyph>
<glyph name="dieresis" format="2">
  <advance width="1000"/>
  <unicode hex="00A8"/>
  <anchor x="660" y="1500" name="_Anchor-0"/>
  <outline>
    <contour>
      <point x="880" y="1690" type="curve" smooth="yes"/>
      <point x="827" y="1690"/>
      <point x="784" y="1733"/>
      <point x="784" y="1786" type="curve" smooth="yes"/>
      <point x="784" y="1839"/>
      <point x="827" y="1883"/>
      <point x="880" y="1883" type="curve" smooth="yes"/>
      <point x="933" y="1883"/>
      <point x="976" y="1839"/>
      <point x="976" y="1786" type="curve" smooth="yes"/>
      <point x="976" y="1733"/>
      <point x="933" y="1690"/>
    </contour>
    <contour>
      <point x="560" y="1690" type="curve" smooth="yes"/>
      <point x="507" y="1690"/>
      <point x="464" y="1733"/>
      <point x="464" y="1786" type="curve" smooth="yes"/>
      <point x="464" y="1839"/>
      <point x="507" y="1883"/>
      <point x="560" y="1883" type="curve" smooth="yes"/>
      <point x="613" y="1883"/>
      <point x="656" y="1839"/>
      <point x="656" y="1786" type="curve" smooth="yes"/>
      <point x="656" y="1733"/>
      <point x="613" y="1690"/>
    </contour>
  </outline>
</glyph>
<glyph name="uni00AD" format="2">
  <advance width="920"/>
  <unicode hex="00AD"/>
  <outline>
    <contour>
      <point x="164" y="830" type="curve" smooth="yes"/>
      <point x="790" y="830" type="line" smooth="yes"/>
      <point x="813" y="830"/>
      <point x="815" y="826"/>
      <point x="810" y="802" type="curve" smooth="yes"/>
      <point x="800" y="753" type="line" smooth="yes"/>
      <point x="795" y="729"/>
      <point x="791" y="720"/>
      <point x="765" y="720" type="curve" smooth="yes"/>
      <point x="139" y="720" type="line" smooth="yes"/>
      <point x="114" y="720"/>
      <point x="113" y="724"/>
      <point x="119" y="750" type="curve" smooth="yes"/>
      <point x="130" y="802" type="line" smooth="yes"/>
      <point x="135" y="825"/>
      <point x="143" y="830"/>
    </contour>
  </outline>
</glyph>
<glyph name="registered" format="2">
  <advance width="1739"/>
  <unicode hex="00AE"/>
  <outline>
    <contour>
      <point x="726" y="73" type="curve" smooth="yes"/>
      <point x="1109" y="73"/>
      <point x="1460" y="349"/>
      <point x="1545" y="750" type="curve" smooth="yes"/>
      <point x="1630" y="1151"/>
      <point x="1394" y="1427"/>
      <point x="1013" y="1427" type="curve" smooth="yes"/>
      <point x="630" y="1427"/>
      <point x="278" y="1151"/>
      <point x="193" y="750" type="curve" smooth="yes"/>
      <point x="107" y="347"/>
      <point x="345" y="73"/>
    </contour>
    <contour>
      <point x="1033" y="1520" type="curve" smooth="yes"/>
      <point x="1477" y="1520"/>
      <point x="1734" y="1192"/>
      <point x="1640" y="750" type="curve" smooth="yes"/>
      <point x="1546" y="306"/>
      <point x="1148" y="-20"/>
      <point x="706" y="-20" type="curve" smooth="yes"/>
      <point x="262" y="-20"/>
      <point x="5" y="308"/>
      <point x="99" y="750" type="curve" smooth="yes"/>
      <point x="193" y="1193"/>
      <point x="591" y="1520"/>
    </contour>
    <component base="R" xScale="0.6" yScale="0.6" xOffset="403" yOffset="306"/>
  </outline>
</glyph>
<glyph name="macron" format="2">
  <advance width="1000"/>
  <unicode hex="00AF"/>
  <outline>
    <contour>
      <point x="469" y="1712" type="curve" smooth="yes"/>
      <point x="469" y="1745" type="line" smooth="yes"/>
      <point x="469" y="1764"/>
      <point x="471" y="1772"/>
      <point x="489" y="1772" type="curve" smooth="yes"/>
      <point x="915" y="1772" type="line" smooth="yes"/>
      <point x="940" y="1772"/>
      <point x="949" y="1768"/>
      <point x="949" y="1741" type="curve" smooth="yes"/>
      <point x="949" y="1710" type="line" smooth="yes"/>
      <point x="949" y="1689"/>
      <point x="948" y="1680"/>
      <point x="927" y="1680" type="curve" smooth="yes"/>
      <point x="504" y="1680" type="line" smooth="yes"/>
      <point x="478" y="1680"/>
      <point x="469" y="1684"/>
    </contour>
  </outline>
</glyph>
<glyph name="mu" format="2">
  <advance width="1233"/>
  <unicode hex="00B5"/>
  <outline>
    <contour>
      <point x="468" y="847" type="line"/>
      <point x="166" y="-242" type="line" smooth="yes"/>
      <point x="130" y="-413"/>
      <point x="221" y="-423"/>
      <point x="231" y="-415" type="curve" smooth="yes"/>
      <point x="240" y="-407"/>
      <point x="231" y="-407"/>
      <point x="231" y="-352" type="curve" smooth="yes"/>
      <point x="231" y="-287"/>
      <point x="282" y="-246"/>
      <point x="357" y="-246" type="curve" smooth="yes"/>
      <point x="427" y="-246"/>
      <point x="471" y="-288"/>
      <point x="471" y="-360" type="curve" smooth="yes"/>
      <point x="471" y="-453"/>
      <point x="374" y="-520"/>
      <point x="274" y="-520" type="curve" smooth="yes"/>
      <point x="112" y="-520"/>
      <point x="19" y="-409"/>
      <point x="54" y="-242" type="curve" smooth="yes"/>
      <point x="356" y="847" type="line"/>
    </contour>
    <component base="u"/>
  </outline>
</glyph>
<glyph name="cedilla" format="2">
  <advance width="1000"/>
  <unicode hex="00B8"/>
  <anchor x="368" y="0" name="_Anchor-2"/>
  <outline>
    <contour>
      <point x="83" y="-480" type="curve" smooth="yes"/>
      <point x="87" y="-463" type="line" smooth="yes"/>
      <point x="92" y="-441"/>
      <point x="103" y="-437"/>
      <point x="123" y="-436" type="curve" smooth="yes"/>
      <point x="205" y="-430"/>
      <point x="296" y="-402"/>
      <point x="310" y="-336" type="curve" smooth="yes"/>
      <point x="327" y="-256"/>
      <point x="244" y="-237"/>
      <point x="156" y="-229" type="curve" smooth="yes"/>
      <point x="118" y="-225"/>
      <point x="118" y="-218"/>
      <point x="135" y="-200" type="curve" smooth="yes"/>
      <point x="329" y="2" type="line" smooth="yes"/>
      <point x="337" y="11"/>
      <point x="345" y="12"/>
      <point x="361" y="12" type="curve" smooth="yes"/>
      <point x="386" y="12" type="line" smooth="yes"/>
      <point x="416" y="12"/>
      <point x="423" y="7"/>
      <point x="409" y="-8" type="curve" smooth="yes"/>
      <point x="295" y="-126" type="line" smooth="yes"/>
      <point x="273" y="-149"/>
      <point x="274" y="-147"/>
      <point x="309" y="-150" type="curve" smooth="yes"/>
      <point x="416" y="-160"/>
      <point x="481" y="-198"/>
      <point x="457" y="-310" type="curve" smooth="yes"/>
      <point x="426" y="-455"/>
      <point x="259" y="-505"/>
      <point x="102" y="-509" type="curve" smooth="yes"/>
      <point x="81" y="-510"/>
      <point x="78" y="-502"/>
    </contour>
  </outline>
</glyph>
<glyph name="guillemotright" format="2">
  <advance width="1390"/>
  <unicode hex="00BB"/>
  <outline>
    <contour>
      <point x="533" y="775" type="line"/>
      <point x="149" y="1170" type="line"/>
      <point x="228" y="1260" type="line"/>
      <point x="790" y="800" type="line"/>
      <point x="779" y="750" type="line"/>
      <point x="22" y="290" type="line"/>
      <point x="-19" y="380" type="line"/>
    </contour>
    <contour>
      <point x="1093" y="775" type="line"/>
      <point x="709" y="1170" type="line"/>
      <point x="788" y="1260" type="line"/>
      <point x="1350" y="800" type="line"/>
      <point x="1339" y="750" type="line"/>
      <point x="582" y="290" type="line"/>
      <point x="541" y="380" type="line"/>
    </contour>
  </outline>
</glyph>
<glyph name="onehalf" format="2">
  <advance width="2000"/>
  <unicode hex="00BD"/>
  <outline>
    <contour>
      <point x="1502" y="1450" type="line"/>
      <point x="1630" y="1450" type="line"/>
      <point x="508" y="-50" type="line"/>
      <point x="370" y="-50" type="line"/>
    </contour>
    <component base="two" xScale="0.6" yScale="0.6" xOffset="1152" yOffset="-16"/>
    <component base="one" xScale="0.6" yScale="0.6" xOffset="214" yOffset="622"/>
  </outline>
</glyph>
<glyph name="AE" format="2">
  <advance width="2538"/>
  <unicode hex="00C6"/>
  <outline>
    <contour>
      <point x="1405" y="1390" type="line"/>
      <point x="1365" y="1390"/>
      <point x="1346" y="1374"/>
      <point x="1307" y="1328" type="curve" smooth="yes"/>
      <point x="683" y="598" type="line" smooth="yes"/>
      <point x="659" y="570"/>
      <point x="635" y="550"/>
      <point x="698" y="550" type="curve" smooth="yes"/>
      <point x="1356" y="550" type="line"/>
      <point x="1366" y="440" type="line"/>
      <point x="592" y="440" type="line" smooth="yes"/>
      <point x="559" y="440"/>
      <point x="543" y="440"/>
      <point x="531" y="420" type="curve" smooth="yes"/>
      <point x="298" y="144" type="line" smooth="yes"/>
      <point x="282" y="125"/>
      <point x="284" y="110"/>
      <point x="326" y="110" type="curve" smooth="yes"/>
      <point x="426" y="110" type="line" smooth="yes"/>
      <point x="448" y="110"/>
      <point x="460" y="106"/>
      <point x="460" y="82" type="curve" smooth="yes"/>
      <point x="460" y="38" type="line" smooth="yes"/>
      <point x="460" y="5"/>
      <point x="454" y="0"/>
      <point x="420" y="0" type="curve" smooth="yes"/>
      <point x="-72" y="0" type="line" smooth="yes"/>
      <point x="-103" y="0"/>
      <point x="-100" y="4"/>
      <point x="-100" y="34" type="curve" smooth="yes"/>
      <point x="-100" y="72" type="line" smooth="yes"/>
      <point x="-100" y="101"/>
      <point x="-99" y="110"/>
      <point x="-70" y="110" type="curve" smooth="yes"/>
      <point x="68" y="110" type="line" smooth="yes"/>
      <point x="105" y="110"/>
      <point x="112" y="124"/>
      <point x="129" y="144" type="curve" smooth="yes"/>
      <point x="1272" y="1472" type="line" smooth="yes"/>
      <point x="1287" y="1489"/>
      <point x="1289" y="1500"/>
      <point x="1323" y="1500" type="curve" smooth="yes"/>
      <point x="1388" y="1500" type="line"/>
    </contour>
    <component base="E" xOffset="1080"/>
  </outline>
</glyph>
<glyph name="ae" format="2">
  <advance width="1746"/>
  <unicode hex="00E6"/>
  <outline>
    <contour>
      <point x="936" y="518" type="curve" smooth="yes"/>
      <point x="1138" y="543"/>
      <point x="1409" y="606"/>
      <point x="1409" y="824" type="curve" smooth="yes"/>
      <point x="1409" y="938"/>
      <point x="1363" y="966"/>
      <point x="1275" y="966" type="curve" smooth="yes"/>
      <point x="1028" y="966"/>
      <point x="926" y="760"/>
      <point x="894" y="526" type="curve" smooth="yes"/>
      <point x="892" y="509"/>
      <point x="913" y="515"/>
    </contour>
    <contour>
      <point x="677" y="447" type="line" smooth="yes"/>
      <point x="687" y="494"/>
      <point x="692" y="522"/>
      <point x="663" y="522" type="curve" smooth="yes"/>
      <point x="569" y="522" type="line" smooth="yes"/>
      <point x="337" y="522"/>
      <point x="216" y="430"/>
      <point x="203" y="276" type="curve" smooth="yes"/>
      <point x="191" y="140"/>
      <point x="260" y="92"/>
      <point x="360" y="92" type="curve" smooth="yes"/>
      <point x="496" y="92"/>
      <point x="624" y="200"/>
      <point x="663" y="382" type="curve" smooth="yes"/>
    </contour>
    <contour>
      <point x="-8" y="246" type="curve" smooth="yes"/>
      <point x="12" y="434"/>
      <point x="241" y="598"/>
      <point x="585" y="598" type="curve" smooth="yes"/>
      <point x="683" y="598" type="line" smooth="yes"/>
      <point x="706" y="598"/>
      <point x="710" y="600"/>
      <point x="715" y="624" type="curve" smooth="yes"/>
      <point x="738" y="734" type="line" smooth="yes"/>
      <point x="766" y="868"/>
      <point x="752" y="968"/>
      <point x="592" y="968" type="curve" smooth="yes"/>
      <point x="484" y="968"/>
      <point x="361" y="930"/>
      <point x="361" y="890" type="curve" smooth="yes"/>
      <point x="361" y="853"/>
      <point x="395" y="870"/>
      <point x="395" y="786" type="curve" smooth="yes"/>
      <point x="395" y="717"/>
      <point x="348" y="670"/>
      <point x="280" y="670" type="curve" smooth="yes"/>
      <point x="218" y="670"/>
      <point x="167" y="696"/>
      <point x="167" y="786" type="curve" smooth="yes"/>
      <point x="167" y="958"/>
      <point x="419" y="1060"/>
      <point x="621" y="1060" type="curve" smooth="yes"/>
      <point x="763" y="1060"/>
      <point x="869" y="1020"/>
      <point x="905" y="960" type="curve" smooth="yes"/>
      <point x="920" y="933"/>
      <point x="914" y="924"/>
      <point x="946" y="948" type="curve" smooth="yes"/>
      <point x="1038" y="1019"/>
      <point x="1141" y="1060"/>
      <point x="1275" y="1060" type="curve" smooth="yes"/>
      <point x="1499" y="1060"/>
      <point x="1601" y="988"/>
      <point x="1601" y="824" type="curve" smooth="yes"/>
      <point x="1601" y="510"/>
      <point x="1179" y="445"/>
      <point x="920" y="427" type="curve" smooth="yes"/>
      <point x="897" y="425"/>
      <point x="877" y="426"/>
      <point x="873" y="406" type="curve" smooth="yes"/>
      <point x="840" y="250"/>
      <point x="908" y="78"/>
      <point x="1087" y="78" type="curve" smooth="yes"/>
      <point x="1245" y="78"/>
      <point x="1370" y="175"/>
      <point x="1454" y="322" type="curve" smooth="yes"/>
      <point x="1462" y="336"/>
      <point x="1467" y="346"/>
      <point x="1487" y="346" type="curve" smooth="yes"/>
      <point x="1545" y="346" type="line" smooth="yes"/>
      <point x="1565" y="346"/>
      <point x="1567" y="340"/>
      <point x="1560" y="325" type="curve" smooth="yes"/>
      <point x="1462" y="125"/>
      <point x="1299" y="-20"/>
      <point x="1053" y="-20" type="curve" smooth="yes"/>
      <point x="889" y="-20"/>
      <point x="777" y="94"/>
      <point x="746" y="134" type="curve" smooth="yes"/>
      <point x="733" y="151"/>
      <point x="714" y="156"/>
      <point x="688" y="133" type="curve" smooth="yes"/>
      <point x="636" y="88"/>
      <point x="517" y="-20"/>
      <point x="306" y="-20" type="curve" smooth="yes"/>
      <point x="98" y="-20"/>
      <point x="-26" y="75"/>
    </contour>
  </outline>
</glyph>
<glyph name="thorn" format="2">
  <advance width="1200"/>
  <unicode hex="00FE"/>
  <outline>
    <contour>
      <point x="262" y="1560" type="curve" smooth="yes"/>
      <point x="520" y="1560" type="line" smooth="yes"/>
      <point x="571" y="1560"/>
      <point x="573" y="1557"/>
      <point x="563" y="1514" type="curve" smooth="yes"/>
      <point x="423" y="911" type="line" smooth="yes"/>
      <point x="410" y="855"/>
      <point x="411" y="841"/>
      <point x="464" y="899" type="curve" smooth="yes"/>
      <point x="551" y="995"/>
      <point x="660" y="1060"/>
      <point x="776" y="1060" type="curve" smooth="yes"/>
      <point x="954" y="1060"/>
      <point x="1100" y="960"/>
      <point x="1100" y="680" type="curve" smooth="yes"/>
      <point x="1100" y="280"/>
      <point x="772" y="-18"/>
      <point x="536" y="-18" type="curve" smooth="yes"/>
      <point x="411" y="-18"/>
      <point x="342" y="39"/>
      <point x="298" y="129" type="curve" smooth="yes"/>
      <point x="268" y="191"/>
      <point x="261" y="194"/>
      <point x="245" y="124" type="curve" smooth="yes"/>
      <point x="114" y="-454" type="line" smooth="yes"/>
      <point x="107" y="-485"/>
      <point x="103" y="-500"/>
      <point x="63" y="-500" type="curve" smooth="yes"/>
      <point x="-42" y="-500" type="line" smooth="yes"/>
      <point x="-78" y="-500"/>
      <point x="-78" y="-491"/>
      <point x="-72" y="-464" type="curve" smooth="yes"/>
      <point x="359" y="1398" type="line" smooth="yes"/>
      <point x="367" y="1434"/>
      <point x="374" y="1450"/>
      <point x="324" y="1450" type="curve" smooth="yes"/>
      <point x="248" y="1450" type="line" smooth="yes"/>
      <point x="217" y="1450"/>
      <point x="216" y="1459"/>
      <point x="216" y="1490" type="curve" smooth="yes"/>
      <point x="216" y="1519" type="line" smooth="yes"/>
      <point x="216" y="1557"/>
      <point x="226" y="1560"/>
    </contour>
    <contour>
      <point x="324" y="400" type="curve" smooth="yes"/>
      <point x="324" y="232"/>
      <point x="358" y="84"/>
      <point x="520" y="84" type="curve" smooth="yes"/>
      <point x="688" y="84"/>
      <point x="900" y="392"/>
      <point x="900" y="680" type="curve" smooth="yes"/>
      <point x="900" y="848"/>
      <point x="848" y="956"/>
      <point x="720" y="956" type="curve" smooth="yes"/>
      <point x="538" y="956"/>
      <point x="324" y="628"/>
    </contour>
  </outline>
</glyph>
<glyph name="Dcroat" format="2">
  <advance width="1636"/>
  <unicode hex="0110"/>
  <outline>
    <contour>
      <point x="-80" y="32" type="curve" smooth="yes"/>
      <point x="-80" y="78" type="line" smooth="yes"/>
      <point x="-80" y="110"/>
      <point x="-70" y="110"/>
      <point x="-38" y="110" type="curve" smooth="yes"/>
      <point x="114" y="110" type="line" smooth="yes"/>
      <point x="148" y="110"/>
      <point x="152" y="126"/>
      <point x="158" y="152" type="curve" smooth="yes"/>
      <point x="411" y="1338" type="line" smooth="yes"/>
      <point x="421" y="1386"/>
      <point x="418" y="1390"/>
      <point x="358" y="1390" type="curve" smooth="yes"/>
      <point x="232" y="1390" type="line" smooth="yes"/>
      <point x="195" y="1390"/>
      <point x="194" y="1399"/>
      <point x="194" y="1436" type="curve" smooth="yes"/>
      <point x="194" y="1458" type="line" smooth="yes"/>
      <point x="194" y="1492"/>
      <point x="197" y="1500"/>
      <point x="230" y="1500" type="curve" smooth="yes"/>
      <point x="946" y="1500" type="line" smooth="yes"/>
      <point x="1412" y="1500"/>
      <point x="1546" y="1196"/>
      <point x="1546" y="930" type="curve" smooth="yes"/>
      <point x="1546" y="384"/>
      <point x="1092" y="0"/>
      <point x="646" y="0" type="curve" smooth="yes"/>
      <point x="-48" y="0" type="line" smooth="yes"/>
      <point x="-73" y="0"/>
      <point x="-80" y="5"/>
    </contour>
    <contour>
      <point x="398" y="110" type="curve" smooth="yes"/>
      <point x="646" y="110" type="line" smooth="yes"/>
      <point x="1014" y="110"/>
      <point x="1316" y="486"/>
      <point x="1316" y="970" type="curve" smooth="yes"/>
      <point x="1316" y="1194"/>
      <point x="1274" y="1390"/>
      <point x="946" y="1390" type="curve" smooth="yes"/>
      <point x="686" y="1390" type="line" smooth="yes"/>
      <point x="629" y="1390"/>
      <point x="621" y="1384"/>
      <point x="611" y="1338" type="curve" smooth="yes"/>
      <point x="358" y="152" type="line" smooth="yes"/>
      <point x="350" y="117"/>
      <point x="352" y="110"/>
    </contour>
    <contour>
      <point x="110.06863999999999" y="840" type="curve" smooth="yes"/>
      <point x="871.71032" y="840" type="line" smooth="yes"/>
      <point x="899.69396" y="840"/>
      <point x="903.3439999999999" y="836"/>
      <point x="903.3439999999999" y="812" type="curve" smooth="yes"/>
      <point x="903.3439999999999" y="763" type="line" smooth="yes"/>
      <point x="903.3439999999999" y="739"/>
      <point x="900.91064" y="730"/>
      <point x="869.27696" y="730" type="curve" smooth="yes"/>
      <point x="107.63528" y="730" type="line" smooth="yes"/>
      <point x="77.21828" y="730"/>
      <point x="76.0016" y="734"/>
      <point x="76.0016" y="760" type="curve" smooth="yes"/>
      <point x="76.0016" y="812" type="line" smooth="yes"/>
      <point x="76.0016" y="835"/>
      <point x="84.51836" y="840"/>
    </contour>
  </outline>
</glyph>
<glyph name="kgreenlandic" format="2">
  <advance width="1184"/>
  <unicode hex="0138"/>
  <outline>
    <contour>
      <point x="1086" y="295" type="curve" smooth="yes"/>
      <point x="996" y="77"/>
      <point x="849" y="-20"/>
      <point x="730" y="-20" type="curve" smooth="yes"/>
      <point x="630" y="-20"/>
      <point x="590" y="40"/>
      <point x="606" y="170" type="curve" smooth="yes"/>
      <point x="624" y="320" type="line" smooth="yes"/>
      <point x="632" y="387"/>
      <point x="627" y="467"/>
      <point x="587" y="524" type="curve" smooth="yes"/>
      <point x="562" y="560"/>
      <point x="551" y="546"/>
      <point x="510" y="535" type="curve" smooth="yes"/>
      <point x="478" y="526"/>
      <point x="448" y="524"/>
      <point x="424" y="524" type="curve" smooth="yes"/>
      <point x="389" y="524"/>
      <point x="359" y="528"/>
      <point x="335" y="535" type="curve" smooth="yes"/>
      <point x="307" y="543"/>
      <point x="307" y="550"/>
      <point x="300" y="518" type="curve" smooth="yes"/>
      <point x="185" y="21" type="line" smooth="yes"/>
      <point x="181" y="3"/>
      <point x="182" y="0"/>
      <point x="159" y="0" type="curve" smooth="yes"/>
      <point x="30" y="0" type="line" smooth="yes"/>
      <point x="-8" y="0"/>
      <point x="2" y="9"/>
      <point x="9" y="37" type="curve" smooth="yes"/>
      <point x="208" y="899" type="line" smooth="yes"/>
      <point x="214" y="925"/>
      <point x="215" y="930"/>
      <point x="183" y="930" type="curve" smooth="yes"/>
      <point x="83" y="930" type="line" smooth="yes"/>
      <point x="62" y="930"/>
      <point x="61" y="939"/>
      <point x="61" y="961" type="curve" smooth="yes"/>
      <point x="61" y="1012" type="line" smooth="yes"/>
      <point x="61" y="1031"/>
      <point x="62" y="1040"/>
      <point x="81" y="1040" type="curve" smooth="yes"/>
      <point x="394" y="1040" type="line" smooth="yes"/>
      <point x="419" y="1040"/>
      <point x="418" y="1027"/>
      <point x="414" y="1010" type="curve" smooth="yes"/>
      <point x="334" y="665" type="line" smooth="yes"/>
      <point x="324" y="620"/>
      <point x="330" y="633"/>
      <point x="360" y="649" type="curve" smooth="yes"/>
      <point x="405" y="672"/>
      <point x="448" y="678"/>
      <point x="472" y="678" type="curve" smooth="yes"/>
      <point x="492" y="678"/>
      <point x="513" y="676"/>
      <point x="534" y="671" type="curve" smooth="yes"/>
      <point x="573" y="662"/>
      <point x="577" y="656"/>
      <point x="598" y="691" type="curve" smooth="yes"/>
      <point x="613" y="715"/>
      <point x="625" y="746"/>
      <point x="636" y="784" type="curve" smooth="yes"/>
      <point x="686" y="960"/>
      <point x="796" y="1060"/>
      <point x="916" y="1060" type="curve" smooth="yes"/>
      <point x="1038" y="1060"/>
      <point x="1104" y="982"/>
      <point x="1104" y="878" type="curve" smooth="yes"/>
      <point x="1104" y="810"/>
      <point x="1058" y="768"/>
      <point x="998" y="768" type="curve" smooth="yes"/>
      <point x="942" y="768"/>
      <point x="902" y="806"/>
      <point x="902" y="856" type="curve" smooth="yes"/>
      <point x="902" y="920"/>
      <point x="940" y="924"/>
      <point x="940" y="956" type="curve" smooth="yes"/>
      <point x="940" y="976"/>
      <point x="926" y="980"/>
      <point x="902" y="980" type="curve" smooth="yes"/>
      <point x="832" y="980"/>
      <point x="756" y="910"/>
      <point x="710" y="740" type="curve" smooth="yes"/>
      <point x="699" y="700"/>
      <point x="683" y="667"/>
      <point x="664" y="640" type="curve" smooth="yes"/>
      <point x="646" y="614"/>
      <point x="654" y="617"/>
      <point x="677" y="598" type="curve" smooth="yes"/>
      <point x="755" y="533"/>
      <point x="812" y="428"/>
      <point x="798" y="282" type="curve" smooth="yes"/>
      <point x="784" y="154" type="line" smooth="yes"/>
      <point x="780" y="120"/>
      <point x="788" y="104"/>
      <point x="822" y="104" type="curve" smooth="yes"/>
      <point x="853" y="104"/>
      <point x="948" y="169"/>
      <point x="1008" y="314" type="curve" smooth="yes"/>
      <point x="1020" y="344"/>
      <point x="1016" y="354"/>
      <point x="1050" y="342" type="curve" smooth="yes"/>
      <point x="1069" y="336" type="line" smooth="yes"/>
      <point x="1099" y="326"/>
      <point x="1098" y="324"/>
    </contour>
  </outline>
</glyph>
<glyph name="lslash" format="2">
  <advance width="619"/>
  <unicode hex="0142"/>
  <outline>
    <contour>
      <point x="10" y="810" type="curve" smooth="yes"/>
      <point x="580" y="1145" type="line" smooth="yes"/>
      <point x="601" y="1159"/>
      <point x="604" y="1165"/>
      <point x="604" y="1128" type="curve" smooth="yes"/>
      <point x="604" y="1068" type="line" smooth="yes"/>
      <point x="604" y="1031"/>
      <point x="600" y="1030"/>
      <point x="578" y="1016" type="curve" smooth="yes"/>
      <point x="18" y="687" type="line" smooth="yes"/>
      <point x="-2" y="674"/>
      <point x="-6" y="665"/>
      <point x="-6" y="701" type="curve" smooth="yes"/>
      <point x="-6" y="775" type="line" smooth="yes"/>
      <point x="-6" y="799"/>
      <point x="-4" y="801"/>
    </contour>
    <component base="l"/>
  </outline>
</glyph>
<glyph name="Eng" format="2">
  <advance width="1794"/>
  <unicode hex="014A"/>
  <outline>
    <contour>
      <point x="316" y="1500" type="curve" smooth="yes"/>
      <point x="626" y="1500" type="line" smooth="yes"/>
      <point x="676" y="1500"/>
      <point x="679" y="1496"/>
      <point x="670" y="1457" type="curve" smooth="yes"/>
      <point x="627" y="1269" type="line" smooth="yes"/>
      <point x="612" y="1204"/>
      <point x="615" y="1196"/>
      <point x="664" y="1269" type="curve" smooth="yes"/>
      <point x="748" y="1393"/>
      <point x="912" y="1518"/>
      <point x="1132" y="1518" type="curve" smooth="yes"/>
      <point x="1500" y="1518"/>
      <point x="1621" y="1363"/>
      <point x="1549" y="1023" type="curve" smooth="yes"/>
      <point x="1336" y="22" type="line" smooth="yes"/>
      <point x="1271.46" y="-281.311"/>
      <point x="1124" y="-520"/>
      <point x="842" y="-520" type="curve" smooth="yes"/>
      <point x="664" y="-520"/>
      <point x="600" y="-410"/>
      <point x="600" y="-286" type="curve" smooth="yes"/>
      <point x="600" y="-210"/>
      <point x="658" y="-138"/>
      <point x="738" y="-138" type="curve" smooth="yes"/>
      <point x="806" y="-138"/>
      <point x="854" y="-184"/>
      <point x="854" y="-250" type="curve" smooth="yes"/>
      <point x="854" y="-320"/>
      <point x="796" y="-334"/>
      <point x="796" y="-374" type="curve" smooth="yes"/>
      <point x="796" y="-400"/>
      <point x="808" y="-432"/>
      <point x="862" y="-432" type="curve" smooth="yes"/>
      <point x="1044" y="-432"/>
      <point x="1126" y="-22"/>
      <point x="1176" y="208" type="curve" smooth="yes"/>
      <point x="1380" y="1166" type="line" smooth="yes"/>
      <point x="1410" y="1309"/>
      <point x="1326" y="1412"/>
      <point x="1096" y="1412" type="curve" smooth="yes"/>
      <point x="791" y="1412"/>
      <point x="579" y="1063"/>
      <point x="517" y="795" type="curve" smooth="yes"/>
      <point x="351" y="49" type="line" smooth="yes"/>
      <point x="344" y="18"/>
      <point x="341" y="0"/>
      <point x="300" y="0" type="curve" smooth="yes"/>
      <point x="-13" y="0" type="line" smooth="yes"/>
      <point x="-33.8167" y="0"/>
      <point x="-35" y="8.98633"/>
      <point x="-35" y="30" type="curve" smooth="yes"/>
      <point x="-35" y="81" type="line" smooth="yes"/>
      <point x="-35" y="100.455"/>
      <point x="-34.4581" y="110"/>
      <point x="-15" y="110" type="curve" smooth="yes"/>
      <point x="132" y="110" type="line" smooth="yes"/>
      <point x="155.948" y="110"/>
      <point x="155.274" y="111.979"/>
      <point x="159.585" y="131" type="curve" smooth="yes"/>
      <point x="437" y="1355" type="line" smooth="yes"/>
      <point x="445" y="1389"/>
      <point x="438" y="1390"/>
      <point x="396" y="1390" type="curve" smooth="yes"/>
      <point x="314" y="1390" type="line" smooth="yes"/>
      <point x="281" y="1390"/>
      <point x="280" y="1399"/>
      <point x="280" y="1433" type="curve" smooth="yes"/>
      <point x="280" y="1461" type="line" smooth="yes"/>
      <point x="280" y="1494"/>
      <point x="284" y="1500"/>
    </contour>
  </outline>
</glyph>
<glyph name="eng" format="2">
  <advance width="1266"/>
  <unicode hex="014B"/>
  <outline>
    <contour>
      <point x="136" y="1040" type="curve" smooth="yes"/>
      <point x="416" y="1040" type="line" smooth="yes"/>
      <point x="466" y="1040"/>
      <point x="469" y="1036"/>
      <point x="460" y="997" type="curve" smooth="yes"/>
      <point x="417" y="809" type="line" smooth="yes"/>
      <point x="402" y="744"/>
      <point x="405" y="736"/>
      <point x="454" y="809" type="curve" smooth="yes"/>
      <point x="558" y="963"/>
      <point x="682" y="1058"/>
      <point x="812" y="1058" type="curve" smooth="yes"/>
      <point x="990" y="1058"/>
      <point x="1083" y="965"/>
      <point x="1024" y="682" type="curve" smooth="yes"/>
      <point x="886" y="22" type="line" smooth="yes"/>
      <point x="823" y="-282"/>
      <point x="724" y="-520"/>
      <point x="442" y="-520" type="curve" smooth="yes"/>
      <point x="264" y="-520"/>
      <point x="200" y="-410"/>
      <point x="200" y="-286" type="curve" smooth="yes"/>
      <point x="200" y="-210"/>
      <point x="258" y="-138"/>
      <point x="338" y="-138" type="curve" smooth="yes"/>
      <point x="406" y="-138"/>
      <point x="454" y="-184"/>
      <point x="454" y="-250" type="curve" smooth="yes"/>
      <point x="454" y="-320"/>
      <point x="396" y="-334"/>
      <point x="396" y="-374" type="curve" smooth="yes"/>
      <point x="396" y="-400"/>
      <point x="408" y="-432"/>
      <point x="462" y="-432" type="curve" smooth="yes"/>
      <point x="644" y="-432"/>
      <point x="696" y="-22"/>
      <point x="746" y="208" type="curve" smooth="yes"/>
      <point x="880" y="826" type="line" smooth="yes"/>
      <point x="896" y="902"/>
      <point x="866" y="952"/>
      <point x="786" y="952" type="curve" smooth="yes"/>
      <point x="611" y="952"/>
      <point x="369" y="603"/>
      <point x="307" y="335" type="curve" smooth="yes"/>
      <point x="241" y="49" type="line" smooth="yes"/>
      <point x="234" y="18"/>
      <point x="231" y="0"/>
      <point x="190" y="0" type="curve" smooth="yes"/>
      <point x="112" y="0" type="line" smooth="yes"/>
      <point x="55" y="0"/>
      <point x="51" y="4"/>
      <point x="61" y="49" type="curve" smooth="yes"/>
      <point x="257" y="895" type="line" smooth="yes"/>
      <point x="265" y="929"/>
      <point x="258" y="930"/>
      <point x="216" y="930" type="curve" smooth="yes"/>
      <point x="134" y="930" type="line" smooth="yes"/>
      <point x="101" y="930"/>
      <point x="100" y="939"/>
      <point x="100" y="973" type="curve" smooth="yes"/>
      <point x="100" y="1001" type="line" smooth="yes"/>
      <point x="100" y="1034"/>
      <point x="104" y="1040"/>
    </contour>
  </outline>
</glyph>
<glyph name="uni0237" format="2">
  <advance width="600"/>
  <unicode hex="0237"/>
  <anchor x="383" y="1040" name="Anchor-0"/>
  <outline>
    <contour>
      <point x="495" y="991" type="curve" smooth="yes"/>
      <point x="286" y="22" type="line" smooth="yes"/>
      <point x="220" y="-281"/>
      <point x="124" y="-520"/>
      <point x="-158" y="-520" type="curve" smooth="yes"/>
      <point x="-336" y="-520"/>
      <point x="-400" y="-410"/>
      <point x="-400" y="-286" type="curve" smooth="yes"/>
      <point x="-400" y="-210"/>
      <point x="-342" y="-138"/>
      <point x="-262" y="-138" type="curve" smooth="yes"/>
      <point x="-194" y="-138"/>
      <point x="-146" y="-184"/>
      <point x="-146" y="-250" type="curve" smooth="yes"/>
      <point x="-146" y="-320"/>
      <point x="-204" y="-334"/>
      <point x="-204" y="-374" type="curve" smooth="yes"/>
      <point x="-204" y="-400"/>
      <point x="-192" y="-432"/>
      <point x="-138" y="-432" type="curve" smooth="yes"/>
      <point x="44" y="-432"/>
      <point x="96" y="-22"/>
      <point x="146" y="208" type="curve" smooth="yes"/>
      <point x="293" y="887" type="line" smooth="yes"/>
      <point x="302" y="927"/>
      <point x="296" y="930"/>
      <point x="246" y="930" type="curve" smooth="yes"/>
      <point x="174" y="930" type="line" smooth="yes"/>
      <point x="149" y="930"/>
      <point x="146" y="937"/>
      <point x="146" y="963" type="curve" smooth="yes"/>
      <point x="146" y="1001" type="line" smooth="yes"/>
      <point x="146" y="1032"/>
      <point x="149" y="1040"/>
      <point x="179" y="1040" type="curve" smooth="yes"/>
      <point x="450" y="1040" type="line" smooth="yes"/>
      <point x="504" y="1040"/>
      <point x="504" y="1033"/>
    </contour>
  </outline>
</glyph>
<glyph name="circumflex" format="2">
  <advance width="1000"/>
  <unicode hex="02C6"/>
  <outline>
    <contour>
      <point x="439" y="1690" type="curve" smooth="yes"/>
      <point x="424" y="1714" type="line" smooth="yes"/>
      <point x="412" y="1729"/>
      <point x="413" y="1729"/>
      <point x="431" y="1744" type="curve" smooth="yes"/>
      <point x="659" y="1932" type="line" smooth="yes"/>
      <point x="676" y="1946"/>
      <point x="686" y="1949"/>
      <point x="715" y="1949" type="curve" smooth="yes"/>
      <point x="800" y="1949" type="line" smooth="yes"/>
      <point x="826" y="1949"/>
      <point x="834" y="1944"/>
      <point x="843" y="1932" type="curve" smooth="yes"/>
      <point x="994" y="1740" type="line" smooth="yes"/>
      <point x="1002" y="1730"/>
      <point x="1003" y="1730"/>
      <point x="990" y="1719" type="curve" smooth="yes"/>
      <point x="961" y="1695" type="line" smooth="yes"/>
      <point x="943" y="1680"/>
      <point x="943" y="1682"/>
      <point x="929" y="1694" type="curve" smooth="yes"/>
      <point x="775" y="1830" type="line" smooth="yes"/>
      <point x="760" y="1843"/>
      <point x="746" y="1844"/>
      <point x="725" y="1831" type="curve" smooth="yes"/>
      <point x="474" y="1684" type="line" smooth="yes"/>
      <point x="457" y="1673"/>
      <point x="449" y="1677"/>
    </contour>
  </outline>
</glyph>
<glyph name="dotaccent" format="2">
  <advance width="1000"/>
  <unicode hex="02D9"/>
  <anchor x="558" y="1040" name="_Anchor-0"/>
  <outline>
    <contour>
      <point x="631" y="1269" type="curve" smooth="yes"/>
      <point x="566" y="1269"/>
      <point x="511" y="1325"/>
      <point x="511" y="1390" type="curve" smooth="yes"/>
      <point x="511" y="1456"/>
      <point x="566" y="1510"/>
      <point x="631" y="1510" type="curve" smooth="yes"/>
      <point x="697" y="1510"/>
      <point x="751" y="1456"/>
      <point x="751" y="1390" type="curve" smooth="yes"/>
      <point x="751" y="1325"/>
      <point x="697" y="1269"/>
    </contour>
  </outline>
</glyph>
<glyph name="ogonek" format="2">
  <advance width="1000"/>
  <unicode hex="02DB"/>
  <anchor x="361" y="47" name="_Anchor-3"/>
  <outline>
    <contour>
      <point x="255" y="-372" type="curve" smooth="yes"/>
      <point x="142" y="-372"/>
      <point x="47" y="-335"/>
      <point x="71" y="-220" type="curve" smooth="yes"/>
      <point x="95" y="-108"/>
      <point x="266" y="-2"/>
      <point x="388" y="70" type="curve" smooth="yes"/>
      <point x="413" y="85"/>
      <point x="432" y="90"/>
      <point x="438" y="80" type="curve" smooth="yes"/>
      <point x="445" y="69"/>
      <point x="431" y="54"/>
      <point x="411" y="36" type="curve" smooth="yes"/>
      <point x="354" y="-16"/>
      <point x="285" y="-89"/>
      <point x="268" y="-170" type="curve" smooth="yes"/>
      <point x="257" y="-221"/>
      <point x="271" y="-275"/>
      <point x="341" y="-275" type="curve" smooth="yes"/>
      <point x="390" y="-275"/>
      <point x="431" y="-246"/>
      <point x="460" y="-214" type="curve" smooth="yes"/>
      <point x="473" y="-199"/>
      <point x="482" y="-199"/>
      <point x="490" y="-207" type="curve" smooth="yes"/>
      <point x="502" y="-217" type="line" smooth="yes"/>
      <point x="513" y="-226"/>
      <point x="511" y="-230"/>
      <point x="500" y="-245" type="curve" smooth="yes"/>
      <point x="444" y="-318"/>
      <point x="372" y="-372"/>
    </contour>
  </outline>
</glyph>
<glyph name="acutecomb" format="2">
  <unicode hex="0301"/>
  <anchor x="588" y="1500" name="_Anchor-0"/>
  <outline>
    <contour>
      <point x="878" y="1920" type="curve" smooth="yes"/>
      <point x="907" y="1870"/>
      <point x="885" y="1827"/>
      <point x="851" y="1807" type="curve" smooth="yes"/>
      <point x="623" y="1674" type="line" smooth="yes"/>
      <point x="605" y="1663"/>
      <point x="599" y="1661"/>
      <point x="584" y="1677" type="curve" smooth="yes"/>
      <point x="550" y="1713" type="line" smooth="yes"/>
      <point x="538" y="1726"/>
      <point x="538" y="1734"/>
      <point x="550" y="1745" type="curve" smooth="yes"/>
      <point x="746" y="1936" type="line" smooth="yes"/>
      <point x="783" y="1973"/>
      <point x="851" y="1966"/>
    </contour>
  </outline>
</glyph>
<glyph name="uni0304" format="2">
  <unicode hex="0304"/>
  <anchor x="659" y="1500" name="_Anchor-0"/>
  <outline>
    <contour>
      <point x="469" y="1712" type="curve" smooth="yes"/>
      <point x="469" y="1745" type="line" smooth="yes"/>
      <point x="469" y="1764"/>
      <point x="471" y="1772"/>
      <point x="489" y="1772" type="curve" smooth="yes"/>
      <point x="915" y="1772" type="line" smooth="yes"/>
      <point x="940" y="1772"/>
      <point x="949" y="1768"/>
      <point x="949" y="1741" type="curve" smooth="yes"/>
      <point x="949" y="1710" type="line" smooth="yes"/>
      <point x="949" y="1689"/>
      <point x="948" y="1680"/>
      <point x="927" y="1680" type="curve" smooth="yes"/>
      <point x="504" y="1680" type="line" smooth="yes"/>
      <point x="478" y="1680"/>
      <point x="469" y="1684"/>
    </contour>
  </outline>
</glyph>
<glyph name="uni030C" format="2">
  <unicode hex="030C"/>
  <anchor x="658" y="1500" name="_Anchor-0"/>
  <outline>
    <contour>
      <point x="597" y="1721" type="curve" smooth="yes"/>
      <point x="468" y="1887" type="line" smooth="yes"/>
      <point x="455" y="1904"/>
      <point x="450" y="1911"/>
      <point x="472" y="1926" type="curve" smooth="yes"/>
      <point x="493" y="1940" type="line" smooth="yes"/>
      <point x="518" y="1957"/>
      <point x="521" y="1953"/>
      <point x="541" y="1938" type="curve" smooth="yes"/>
      <point x="675" y="1836" type="line" smooth="yes"/>
      <point x="709" y="1810"/>
      <point x="736" y="1809"/>
      <point x="781" y="1836" type="curve" smooth="yes"/>
      <point x="972" y="1952" type="line" smooth="yes"/>
      <point x="996" y="1967"/>
      <point x="1000" y="1961"/>
      <point x="1014" y="1943" type="curve" smooth="yes"/>
      <point x="1022" y="1935" type="line" smooth="yes"/>
      <point x="1037" y="1917"/>
      <point x="1040" y="1910"/>
      <point x="1018" y="1892" type="curve" smooth="yes"/>
      <point x="803" y="1714" type="line" smooth="yes"/>
      <point x="785" y="1699"/>
      <point x="780" y="1690"/>
      <point x="748" y="1690" type="curve" smooth="yes"/>
      <point x="668" y="1690" type="line" smooth="yes"/>
      <point x="627" y="1690"/>
      <point x="612" y="1702"/>
    </contour>
  </outline>
</glyph>
<glyph name="uni0312" format="2">
  <unicode hex="0312"/>
  <anchor x="533" y="920" name="_Anchor-0"/>
  <outline>
    <contour>
      <point x="710.8" y="1197.6" type="curve" smooth="yes"/>
      <point x="710.8" y="1144.8"/>
      <point x="664.4" y="1103.2"/>
      <point x="603.6" y="1103.2" type="curve" smooth="yes"/>
      <point x="541.1999999999999" y="1103.2"/>
      <point x="491.59999999999997" y="1152.8"/>
      <point x="491.6" y="1253.6" type="curve" smooth="yes"/>
      <point x="491.6" y="1392.8"/>
      <point x="627.6" y="1512.8"/>
      <point x="759.6" y="1524.8" type="curve" smooth="yes"/>
      <point x="771.6" y="1525.6"/>
      <point x="778.0" y="1526.4"/>
      <point x="778.0" y="1512.8" type="curve" smooth="yes"/>
      <point x="778.0" y="1478.4" type="line" smooth="yes"/>
      <point x="778.0" y="1464.0"/>
      <point x="770.0" y="1461.6"/>
      <point x="758.0" y="1460.0" type="curve" smooth="yes"/>
      <point x="685.2" y="1448.8"/>
      <point x="566.8" y="1375.2"/>
      <point x="575.6" y="1283.2" type="curve" smooth="yes"/>
      <point x="577.2" y="1270.4"/>
      <point x="584.4" y="1276.8"/>
      <point x="593.2" y="1282.4" type="curve" smooth="yes"/>
      <point x="603.6" y="1288.8"/>
      <point x="617.2" y="1292.0"/>
      <point x="634.0" y="1292.0" type="curve" smooth="yes"/>
      <point x="686.8" y="1292.0"/>
      <point x="710.8" y="1250.4"/>
    </contour>
  </outline>
</glyph>
